SplineFontDB: 3.2
FontName: Beyond
FullName: Beyond
FamilyName: Beyond
Weight: Standard
Copyright: Copyright (c) 2023, Karl Granli, Beyond Code AS
UComments: "2023-7-18: Created with FontForge (http://fontforge.org)"
Version: 001.000
ItalicAngle: 0
UnderlinePosition: -275
UnderlineWidth: 225
Ascent: 725
Descent: 275
InvalidEm: 0
LayerCount: 2
Layer: 0 0 "Back" 1
Layer: 1 0 "Fore" 0
XUID: [1021 988 -204709491 1551539]
StyleMap: 0x0000
FSType: 0
OS2Version: 0
OS2_WeightWidthSlopeOnly: 0
OS2_UseTypoMetrics: 1
CreationTime: 1689690114
ModificationTime: 1727696821
OS2TypoAscent: 0
OS2TypoAOffset: 1
OS2TypoDescent: 0
OS2TypoDOffset: 1
OS2TypoLinegap: 90
OS2WinAscent: 0
OS2WinAOffset: 1
OS2WinDescent: 0
OS2WinDOffset: 1
HheadAscent: 0
HheadAOffset: 1
HheadDescent: 0
HheadDOffset: 1
OS2Vendor: 'PfEd'
Lookup: 258 0 0 "'kern' Horizontal Kerning in Latin lookup 0" { "'kern' Horizontal Kerning in Latin lookup 0-1" [150,15,6] } ['kern' ('DFLT' <'dflt' > 'latn' <'dflt' > ) ]
MarkAttachClasses: 1
DEI: 91125
Encoding: ISO8859-1
UnicodeInterp: none
NameList: AGL For New Fonts
DisplaySize: -48
AntiAlias: 1
FitToEm: 0
WinInfo: 0 36 16
BeginPrivate: 0
EndPrivate
BeginChars: 258 127

StartChar: g
Encoding: 103 103 0
Width: 550
Flags: W
HStem: -225.5 74.998<241.198 352.08> -20.5 20G<425 500> -20.5 20G<425 500> -0.5 75<197.428 352.572> 374.5 75<197.428 352.572>
VStem: 50 75<146.928 302.072> 275 37.5<-208.711 -167.289> 425 75<-77.5797 302.072>
LayerCount: 2
Fore
SplineSet
275 374.5 m 0x9f
 192.158203125 374.5 125 307.341796875 125 224.5 c 0
 125 141.658203125 192.158203125 74.5 275 74.5 c 0
 357.841796875 74.5 425 141.658203125 425 224.5 c 0
 425 307.341796875 357.841796875 374.5 275 374.5 c 0x9f
275 449.5 m 0
 399.265625 449.5 500 348.765625 500 224.5 c 0
 500 100.234375 399.265625 -0.5 275 -0.5 c 0
 150.734375 -0.5 50 100.234375 50 224.5 c 0
 50 348.765625 150.734375 449.5 275 449.5 c 0
500 -0.5 m 1xcf
 425 -0.5 l 1
 425 224.5 l 1
 500 224.5 l 1
 500 -0.5 l 1xcf
500 -0.5 m 1
 500 -30.048828125 494.1796875 -59.306640625 482.871992734 -86.6051677552 c 0
 471.564453125 -113.903320312 454.9921875 -138.705078125 434.098632812 -159.598632812 c 0
 413.205078125 -180.4921875 388.403320312 -197.064453125 361.105167755 -208.371992734 c 0
 333.806640625 -219.6796875 304.548828125 -225.5 275 -225.5 c 1
 275 -150.501953125 l 1
 294.69921875 -150.501953125 314.204101562 -146.623046875 332.407574961 -139.082424192 c 0
 350.603515625 -131.544921875 367.138671875 -120.498046875 381.068359375 -106.568359375 c 0
 394.998046875 -92.638671875 406.044921875 -76.103515625 413.581185297 -57.9105657213 c 0
 421.123046875 -39.7041015625 425 -20.197265625 425 -0.5 c 1
 500 -0.5 l 1
312.5 -188 m 0
 312.5 -208.7109375 295.7109375 -225.5 275 -225.5 c 0
 254.2890625 -225.5 237.5 -208.7109375 237.5 -188 c 0
 237.5 -167.2890625 254.2890625 -150.501953125 275 -150.501953125 c 0
 295.7109375 -150.501953125 312.5 -167.2890625 312.5 -188 c 0
EndSplineSet
Validated: 5
EndChar

StartChar: A
Encoding: 65 65 1
Width: 550
Flags: W
HStem: -0.5 21G<77.1445 97.8555 452.145 472.855> -0.5 21G<77.1445 97.8555 452.145 472.855> 37 37.5<66.7891 108.211 441.789 483.211> 224.5 75<197.428 352.572> 430.379 20G<50 125 425 500> 599.5 75<197.428 352.572>
VStem: 50 75<3.19786 527.072> 425 75<3.19786 527.072>
LayerCount: 2
Fore
SplineSet
50 37 m 5x3f
 50 450.37890625 l 5
 125 450.37890625 l 5
 125 37 l 5
 50 37 l 5x3f
125 37 m 4
 125 16.2890625 108.2109375 -0.5 87.5 -0.5 c 4xbf
 66.7890625 -0.5 50 16.2890625 50 37 c 4
 50 57.7109375 66.7890625 74.5 87.5 74.5 c 4
 108.2109375 74.5 125 57.7109375 125 37 c 4
500 37 m 5
 425 37 l 5
 425 450.37890625 l 5
 500 450.37890625 l 5
 500 37 l 5
425 37 m 4
 425 57.7109375 441.7890625 74.5 462.5 74.5 c 4
 483.2109375 74.5 500 57.7109375 500 37 c 4
 500 16.2890625 483.2109375 -0.5 462.5 -0.5 c 4
 441.7890625 -0.5 425 16.2890625 425 37 c 4
275 299.5 m 4
 357.841796875 299.5 425 366.658203125 425 449.5 c 4
 425 532.341796875 357.841796875 599.5 275 599.5 c 4
 192.158203125 599.5 125 532.341796875 125 449.5 c 4
 125 366.658203125 192.158203125 299.5 275 299.5 c 4
275 224.5 m 4
 150.734375 224.5 50 325.234375 50 449.5 c 4
 50 573.765625 150.734375 674.5 275 674.5 c 4
 399.265625 674.5 500 573.765625 500 449.5 c 4
 500 325.234375 399.265625 224.5 275 224.5 c 4
EndSplineSet
Validated: 5
EndChar

StartChar: B
Encoding: 66 66 2
Width: 550
Flags: W
HStem: -0.03125 75<197.428 352.572> 374.969 75<197.428 309.07> 459.969 75<66.7891 108.211> 496.219 1.25<50 124.985> 599.078 74.3281<164.156 293.35>
VStem: 50 75<147.397 224.969 459.969 559.089> 425 75<147.397 302.54>
LayerCount: 2
Fore
SplineSet
275 74.96875 m 0xce
 357.841796875 74.96875 425 142.126953125 425 224.96875 c 0
 425 307.810546875 357.841796875 374.96875 275 374.96875 c 0
 192.158203125 374.96875 125 307.810546875 125 224.96875 c 0
 125 142.126953125 192.158203125 74.96875 275 74.96875 c 0xce
275 -0.03125 m 0
 150.734375 -0.03125 50 100.703125 50 224.96875 c 0
 50 349.234375 150.734375 449.96875 275 449.96875 c 0
 399.265625 449.96875 500 349.234375 500 224.96875 c 0
 500 100.703125 399.265625 -0.03125 275 -0.03125 c 0
50 497.46875 m 1xde
 125 497.46875 l 1
 125 224.96875 l 1
 50 224.96875 l 1
 50 497.46875 l 1xde
125 497.46875 m 0
 125 476.7578125 108.2109375 459.96875 87.5 459.96875 c 0xee
 66.7890625 459.96875 50 476.7578125 50 497.46875 c 0xde
 50 518.1796875 66.7890625 534.96875 87.5 534.96875 c 0xee
 108.2109375 534.96875 125 518.1796875 125 497.46875 c 0
50 496.21875 m 1xde
 50 524.927734375 56.9140625 553.212890625 70.158203125 578.681640625 c 0
 83.4033203125 604.153320312 102.5859375 626.057617188 126.0859375 642.546875 c 0
 149.587890625 659.033203125 176.713867188 669.619140625 205.170898438 673.40625 c 0
 233.627929688 677.193359375 262.578125 674.0703125 289.572265625 664.302734375 c 0
 316.567382812 654.534179688 340.8125 638.40625 360.255859375 617.28515625 c 0
 379.69921875 596.165039062 393.771484375 570.671875 401.279296875 542.96484375 c 0
 408.787109375 515.25390625 409.509765625 486.145507812 403.388671875 458.098632812 c 0
 397.265625 430.051757812 384.477539062 403.892578125 366.108398438 381.83203125 c 1
 308.486328125 429.814453125 l 1
 319.15234375 442.623046875 326.57421875 457.80859375 330.126953125 474.08984375 c 0
 333.681640625 490.37109375 333.26171875 507.268554688 328.904296875 523.35546875 c 0
 324.548828125 539.439453125 316.376953125 554.23828125 305.08984375 566.5 c 0
 293.803710938 578.759765625 279.728515625 588.12109375 264.057617188 593.791992188 c 0
 248.388671875 599.462890625 231.58203125 601.275390625 215.060546875 599.078125 c 0
 198.54296875 596.880859375 182.794921875 590.735351562 169.15234375 581.162109375 c 0
 155.509765625 571.591796875 144.375 558.875 136.6875 544.08984375 c 0
 128.999023438 529.3046875 124.985351562 512.883789062 124.985351562 496.21875 c 1
 50 496.21875 l 1xde
EndSplineSet
Validated: 37
EndChar

StartChar: C
Encoding: 67 67 3
Width: 550
Flags: W
HStem: 223.25 1.25<50 124.993> 449.5 1.25<50 124.993>
VStem: 50 75<147.311 526.688>
LayerCount: 2
Fore
SplineSet
490.943359375 507.08984375 m 4
 490.943359375 486.379882812 474.153320312 469.58984375 453.443359375 469.58984375 c 4
 432.73046875 469.58984375 415.943359375 486.379882812 415.943359375 507.08984375 c 4
 415.943359375 527.80078125 432.73046875 544.58984375 453.443359375 544.58984375 c 4
 474.153320312 544.58984375 490.943359375 527.80078125 490.943359375 507.08984375 c 4
50 449.5 m 5
 50 503.07421875 69.1171875 554.888671875 103.909179688 595.625 c 4
 138.701171875 636.36328125 186.890625 663.349609375 239.802734375 671.728515625 c 4
 292.71484375 680.110351562 346.8828125 669.3359375 392.564453125 641.34375 c 4
 438.240234375 613.352539062 472.431640625 569.98046875 488.987304688 519.029296875 c 5
 417.666015625 495.85546875 l 5
 406.62890625 529.82421875 383.833984375 558.740234375 353.376953125 577.40234375 c 4
 322.92578125 596.064453125 286.8125 603.248046875 251.533203125 597.662109375 c 4
 216.2578125 592.073242188 184.130859375 574.08203125 160.93359375 546.921875 c 4
 137.737304688 519.76171875 124.993164062 485.217773438 124.993164062 449.5 c 5
 50 449.5 l 5
490.943359375 166.91015625 m 4
 490.943359375 146.19921875 474.153320312 129.41015625 453.443359375 129.41015625 c 4
 432.73046875 129.41015625 415.943359375 146.19921875 415.943359375 166.91015625 c 4
 415.943359375 187.620117188 432.73046875 204.41015625 453.443359375 204.41015625 c 4
 474.153320312 204.41015625 490.943359375 187.620117188 490.943359375 166.91015625 c 4
50 224.5 m 5
 124.993164062 224.5 l 5
 124.993164062 188.782226562 137.737304688 154.236328125 160.93359375 127.078125 c 4
 184.130859375 99.91796875 216.2578125 81.9267578125 251.533203125 76.3408203125 c 4
 286.8125 70.751953125 322.92578125 77.935546875 353.376953125 96.59765625 c 4
 383.833984375 115.259765625 406.62890625 144.177734375 417.666015625 178.14453125 c 5
 488.987304688 154.973632812 l 5
 472.431640625 104.01953125 438.240234375 60.6474609375 392.564453125 32.65625 c 4
 346.8828125 4.666015625 292.71484375 -6.1103515625 239.802734375 2.271484375 c 4
 186.890625 10.650390625 138.701171875 37.63671875 103.909179688 78.375 c 4
 69.1171875 119.111328125 50 170.927734375 50 224.5 c 5
50 450.75 m 5
 125 450.75 l 5
 125 223.25 l 5
 50 223.25 l 5
 50 450.75 l 5
EndSplineSet
Validated: 37
EndChar

StartChar: f
Encoding: 102 102 4
Width: 402
Flags: W
HStem: -0.5 21G<127.145 147.855> -0.5 21G<127.145 147.855> 37 37.5<116.789 158.211> 374.5 75<66.7891 100.002 174.985 208.211> 449.5 21G<100.002 174.992> 599.5 75<304.289 345.711>
VStem: 100 75<16.2891 469.199> 287.5 37.5<616.289 657.711>
LayerCount: 2
Fore
SplineSet
175 37 m 4xa7
 175 16.2890625 158.2109375 -0.5 137.5 -0.5 c 4
 116.7890625 -0.5 100 16.2890625 100 37 c 4
 100 57.7109375 116.7890625 74.5 137.5 74.5 c 4
 158.2109375 74.5 175 57.7109375 175 37 c 4xa7
100.001953125 449.5 m 5x37
 175 449.5 l 5
 175 37 l 5
 100 37 l 5
 100.001953125 449.5 l 5x37
100.001953125 449.5 m 5
 100.001953125 479.048828125 105.8203125 508.306640625 117.126953125 535.603515625 c 4
 128.435546875 562.900390625 145.0078125 587.705078125 165.900390625 608.599609375 c 4
 186.794921875 629.4921875 211.599609375 646.064453125 238.896484375 657.373046875 c 4
 266.193359375 668.6796875 295.451171875 674.5 325 674.5 c 5
 325 599.517578125 l 5
 305.30078125 599.517578125 285.791015625 595.637695312 267.58984375 588.098632812 c 4
 249.389648438 580.559570312 232.8515625 569.5078125 218.920898438 555.579101562 c 4
 204.9921875 541.6484375 193.940429688 525.110351562 186.401367188 506.91015625 c 4
 178.862304688 488.708984375 174.985351562 469.19921875 174.985351562 449.5 c 5
 100.001953125 449.5 l 5
362.5 637 m 4
 362.5 616.2890625 345.7109375 599.5 325 599.5 c 4
 304.2890625 599.5 287.5 616.2890625 287.5 637 c 4
 287.5 657.7109375 304.2890625 674.5 325 674.5 c 4
 345.7109375 674.5 362.5 657.7109375 362.5 637 c 4
325 674.5 m 5
 325 599.5078125 l 5
 305.30078125 599.5078125 285.79296875 595.627929688 267.595703125 588.088867188 c 4
 249.39453125 580.549804688 232.859375 569.5 218.927734375 555.572265625 c 4
 205 541.640625 193.950195312 525.10546875 186.411132812 506.904296875 c 4
 178.872070312 488.70703125 174.9921875 469.19921875 174.9921875 449.5 c 5
 100.001953125 449.5 l 5
 100.001953125 479.048828125 105.8203125 508.306640625 117.126953125 535.603515625 c 4
 128.435546875 562.900390625 145.0078125 587.705078125 165.900390625 608.599609375 c 4
 186.794921875 629.4921875 211.599609375 646.064453125 238.896484375 657.373046875 c 4
 266.193359375 668.6796875 295.451171875 674.5 325 674.5 c 5
50 412 m 4
 50 432.7109375 66.7890625 449.5 87.5 449.5 c 6
 187.5 449.5 l 6
 208.2109375 449.5 225 432.7109375 225 412 c 4
 225 391.2890625 208.2109375 374.5 187.5 374.5 c 6
 87.5 374.5 l 6
 66.7890625 374.5 50 391.2890625 50 412 c 4
175 37 m 0
 175 16.2890625 158.2109375 -0.5 137.5 -0.5 c 0xa7
 116.7890625 -0.5 100 16.2890625 100 37 c 0
 100 57.7109375 116.7890625 74.5 137.5 74.5 c 0
 158.2109375 74.5 175 57.7109375 175 37 c 0
100.001953125 449.5 m 1x37
 175 449.5 l 1
 175 37 l 1
 100 37 l 1
 100.001953125 449.5 l 1x37
100.001953125 449.5 m 1
 100.001953125 479.048828125 105.8203125 508.306640625 117.126953125 535.603515625 c 0
 128.435546875 562.900390625 145.0078125 587.705078125 165.900390625 608.599609375 c 0
 186.794921875 629.4921875 211.599609375 646.064453125 238.896484375 657.373046875 c 0
 266.193359375 668.6796875 295.451171875 674.5 325 674.5 c 1
 325 599.517578125 l 1
 305.30078125 599.517578125 285.791015625 595.637695312 267.58984375 588.098632812 c 0
 249.389648438 580.559570312 232.8515625 569.5078125 218.920898438 555.579101562 c 0
 204.9921875 541.6484375 193.940429688 525.110351562 186.401367188 506.91015625 c 0
 178.862304688 488.708984375 174.985351562 469.19921875 174.985351562 449.5 c 1
 100.001953125 449.5 l 1
362.5 637 m 0
 362.5 616.2890625 345.7109375 599.5 325 599.5 c 0
 304.2890625 599.5 287.5 616.2890625 287.5 637 c 0
 287.5 657.7109375 304.2890625 674.5 325 674.5 c 0
 345.7109375 674.5 362.5 657.7109375 362.5 637 c 0
325 674.5 m 1
 325 599.5078125 l 1
 305.30078125 599.5078125 285.79296875 595.627929688 267.595703125 588.088867188 c 0
 249.39453125 580.549804688 232.859375 569.5 218.927734375 555.572265625 c 0
 205 541.640625 193.950195312 525.10546875 186.411132812 506.904296875 c 0
 178.872070312 488.70703125 174.9921875 469.19921875 174.9921875 449.5 c 1
 100.001953125 449.5 l 1
 100.001953125 479.048828125 105.8203125 508.306640625 117.126953125 535.603515625 c 0
 128.435546875 562.900390625 145.0078125 587.705078125 165.900390625 608.599609375 c 0
 186.794921875 629.4921875 211.599609375 646.064453125 238.896484375 657.373046875 c 0
 266.193359375 668.6796875 295.451171875 674.5 325 674.5 c 1
50 412 m 0
 50 432.7109375 66.7890625 449.5 87.5 449.5 c 2
 187.5 449.5 l 2
 208.2109375 449.5 225 432.7109375 225 412 c 0
 225 391.2890625 208.2109375 374.5 187.5 374.5 c 2
 87.5 374.5 l 2
 66.7890625 374.5 50 391.2890625 50 412 c 0
EndSplineSet
Validated: 5
EndChar

StartChar: D
Encoding: 68 68 5
Width: 550
Flags: W
HStem: -0.5 75<87.5 266.36> 599.5 75<87.5 266.36>
VStem: 87.5 37.5<16.2891 74.5 599.5 657.711> 162.5 1.25<-0.5 74.5 599.5 674.5> 424.988 75.0117<232.616 441.384>
LayerCount: 2
Fore
SplineSet
50 637 m 6
 50 657.7109375 66.7890625 674.5 87.5 674.5 c 4
 108.2109375 674.5 125 657.7109375 125 637 c 6
 125 37 l 6
 125 16.2890625 108.2109375 -0.5 87.5 -0.5 c 4
 66.7890625 -0.5 50 16.2890625 50 37 c 6
 50 637 l 6
162.5 674.5 m 5
 206.821289062 674.5 250.708007812 665.76953125 291.655273438 648.80859375 c 4
 332.602539062 631.848632812 369.809570312 606.98828125 401.147460938 575.647460938 c 4
 432.48828125 544.309570312 457.348632812 507.102539062 474.30859375 466.155273438 c 4
 491.26953125 425.208007812 500 381.318359375 500 337 c 4
 500 292.681640625 491.26953125 248.791992188 474.30859375 207.844726562 c 4
 457.348632812 166.897460938 432.48828125 129.690429688 401.147460938 98.3525390625 c 4
 369.806640625 67.01171875 332.602539062 42.1513671875 291.655273438 25.19140625 c 4
 250.708007812 8.23046875 206.821289062 -0.5 162.5 -0.5 c 5
 162.5 74.51171875 l 5
 196.970703125 74.51171875 231.103515625 81.298828125 262.94921875 94.4921875 c 4
 294.796875 107.68359375 323.732421875 127.017578125 348.107421875 151.392578125 c 4
 372.482421875 175.767578125 391.81640625 204.703125 405.0078125 236.55078125 c 4
 418.201171875 268.396484375 424.98828125 302.529296875 424.98828125 337 c 4
 424.98828125 371.470703125 418.201171875 405.603515625 405.0078125 437.44921875 c 4
 391.81640625 469.296875 372.482421875 498.232421875 348.107421875 522.607421875 c 4
 323.732421875 546.982421875 294.796875 566.31640625 262.94921875 579.5078125 c 4
 231.103515625 592.698242188 196.970703125 599.48828125 162.5 599.48828125 c 5
 162.5 674.5 l 5
87.5 674.5 m 5
 163.75 674.5 l 5
 163.75 599.5 l 5
 87.5 599.5 l 5
 87.5 674.5 l 5
87.5 74.5 m 5
 163.75 74.5 l 5
 163.75 -0.5 l 5
 87.5 -0.5 l 5
 87.5 74.5 l 5
EndSplineSet
Validated: 5
EndChar

StartChar: E
Encoding: 69 69 6
Width: 506
Flags: W
HStem: 422.747 26.7529G<50 125 314.524 335.234> 449.5 21G<50 124.984>
VStem: 50 75<146.715 224.5 353.848 527.284>
LayerCount: 2
Fore
SplineSet
50 224.5 m 5x20
 50 270.796875 64.28125 315.96484375 90.89453125 353.84765625 c 4
 117.509765625 391.728515625 155.162109375 420.4765625 198.716796875 436.174804688 c 4
 242.271484375 451.87109375 289.60546875 453.748046875 334.26953125 441.552734375 c 5
 314.515625 369.216796875 l 5
 284.73828125 377.349609375 253.177734375 376.096679688 224.13671875 365.6328125 c 4
 195.099609375 355.166015625 169.994140625 335.99609375 152.25 310.740234375 c 4
 134.50390625 285.484375 124.982421875 255.3671875 124.982421875 224.5 c 5
 50 224.5 l 5x20
362.37890625 405.247070312 m 4
 362.37890625 384.537109375 345.58984375 367.747070312 324.87890625 367.747070312 c 4
 304.169921875 367.747070312 287.37890625 384.537109375 287.37890625 405.247070312 c 4
 287.37890625 425.959960938 304.169921875 442.747070312 324.87890625 442.747070312 c 4
 345.58984375 442.747070312 362.37890625 425.959960938 362.37890625 405.247070312 c 4
50 224.5 m 5
 124.982421875 224.5 l 5
 124.982421875 193.6328125 134.50390625 163.515625 152.25 138.2578125 c 4
 169.994140625 113.00390625 195.099609375 93.833984375 224.13671875 83.3671875 c 4
 253.177734375 72.9033203125 284.73828125 71.650390625 314.515625 79.783203125 c 4
 344.29296875 87.9130859375 370.83984375 105.032226562 390.529296875 128.801757812 c 5
 448.2734375 80.9697265625 l 5
 418.7421875 45.318359375 378.9296875 19.6416015625 334.26953125 7.447265625 c 4
 289.60546875 -4.75 242.271484375 -2.87109375 198.716796875 12.8251953125 c 4
 155.162109375 28.5234375 117.509765625 57.271484375 90.89453125 95.15234375 c 4
 64.28125 133.03515625 50 178.203125 50 224.5 c 5
456.67578125 104.638671875 m 4
 456.67578125 83.931640625 439.88671875 67.138671875 419.17578125 67.138671875 c 4
 398.462890625 67.138671875 381.67578125 83.931640625 381.67578125 104.638671875 c 4
 381.67578125 125.349609375 398.462890625 142.138671875 419.17578125 142.138671875 c 4
 439.88671875 142.138671875 456.67578125 125.349609375 456.67578125 104.638671875 c 4
50 449.5 m 5xa0
 50.001953125 495.796875 64.28125 540.96484375 90.8984375 578.84765625 c 4
 117.51171875 616.728515625 155.162109375 645.478515625 198.716796875 661.174804688 c 4
 242.271484375 676.87109375 289.609375 678.748046875 334.26953125 666.552734375 c 4
 378.931640625 654.358398438 418.744140625 628.681640625 448.275390625 593.030273438 c 5
 390.529296875 545.1953125 l 5
 370.83984375 568.967773438 344.29296875 586.086914062 314.515625 594.21875 c 4
 284.740234375 602.349609375 253.1796875 601.096679688 224.140625 590.6328125 c 4
 195.099609375 580.166015625 169.99609375 560.999023438 152.25 535.740234375 c 4
 134.505859375 510.484375 124.984375 480.3671875 124.984375 449.5 c 5
 50 449.5 l 5xa0
456.67578125 569.358398438 m 4
 456.67578125 548.6484375 439.88671875 531.858398438 419.17578125 531.858398438 c 4
 398.466796875 531.858398438 381.67578125 548.6484375 381.67578125 569.358398438 c 4
 381.67578125 590.071289062 398.466796875 606.858398438 419.17578125 606.858398438 c 4
 439.88671875 606.858398438 456.67578125 590.071289062 456.67578125 569.358398438 c 4
50 449.5 m 5
 125 449.5 l 5
 125 222 l 5
 50 222 l 5
 50 449.5 l 5
EndSplineSet
Validated: 37
EndChar

StartChar: F
Encoding: 70 70 7
Width: 506
Flags: W
HStem: -0.116211 21G<77.1445 97.8545> -0.116211 21G<77.1445 97.8545> 37.3838 37.5<66.7891 108.209> 429.884 20G<50 125 313.309 334.02> 449.884 21G<50 124.984>
VStem: 50 75<3.58182 224.884 354.232 527.668>
LayerCount: 2
Fore
SplineSet
50 449.883789062 m 5x34
 50.001953125 496.180664062 64.28125 541.348632812 90.8984375 579.232421875 c 4
 117.51171875 617.11328125 155.162109375 645.86328125 198.716796875 661.55859375 c 4
 242.271484375 677.254882812 289.609375 679.131835938 334.26953125 666.9375 c 4
 378.931640625 654.7421875 418.744140625 629.06640625 448.275390625 593.4140625 c 5
 390.529296875 545.580078125 l 5
 370.83984375 569.3515625 344.29296875 586.470703125 314.515625 594.603515625 c 4
 284.740234375 602.733398438 253.1796875 601.48046875 224.140625 591.016601562 c 4
 195.099609375 580.55078125 169.99609375 561.3828125 152.25 536.124023438 c 4
 134.505859375 510.868164062 124.984375 480.750976562 124.984375 449.883789062 c 5
 50 449.883789062 l 5x34
456.67578125 569.7421875 m 4
 456.67578125 549.032226562 439.88671875 532.2421875 419.17578125 532.2421875 c 4
 398.466796875 532.2421875 381.67578125 549.032226562 381.67578125 569.7421875 c 4
 381.67578125 590.455078125 398.466796875 607.2421875 419.17578125 607.2421875 c 4
 439.88671875 607.2421875 456.67578125 590.455078125 456.67578125 569.7421875 c 4
125 37.3837890625 m 4
 125 16.673828125 108.208984375 -0.1162109375 87.5 -0.1162109375 c 4xa4
 66.7890625 -0.1162109375 50 16.673828125 50 37.3837890625 c 4
 50 58.0947265625 66.7890625 74.8837890625 87.5 74.8837890625 c 4
 108.208984375 74.8837890625 125 58.0947265625 125 37.3837890625 c 4
50 449.883789062 m 5x34
 125 449.883789062 l 5
 125 37.3837890625 l 5
 50 37.3837890625 l 5
 50 449.883789062 l 5x34
50 224.883789062 m 5
 50 271.180664062 64.28125 316.348632812 90.89453125 354.232421875 c 4
 117.509765625 392.11328125 155.162109375 420.860351562 198.716796875 436.55859375 c 4
 242.271484375 452.254882812 289.60546875 454.131835938 334.26953125 441.9375 c 5
 314.515625 369.600585938 l 5
 284.73828125 377.733398438 253.177734375 376.48046875 224.13671875 366.016601562 c 4
 195.099609375 355.55078125 169.994140625 336.380859375 152.25 311.124023438 c 4
 134.50390625 285.868164062 124.982421875 255.750976562 124.982421875 224.883789062 c 5
 50 224.883789062 l 5
361.1640625 405.962890625 m 4
 361.1640625 385.252929688 344.375 368.462890625 323.6640625 368.462890625 c 4
 302.953125 368.462890625 286.1640625 385.252929688 286.1640625 405.962890625 c 4
 286.1640625 426.673828125 302.953125 443.462890625 323.6640625 443.462890625 c 4
 344.375 443.462890625 361.1640625 426.673828125 361.1640625 405.962890625 c 4
EndSplineSet
Validated: 37
EndChar

StartChar: G
Encoding: 71 71 8
Width: 550
Flags: W
HStem: 0.331055 75<225.272 324.729> 224.081 1.25<50 124.992> 320.326 75<295 428.377> 450.331 1.25<50 124.992>
VStem: 50 75<189.613 486.049> 257.5 75<272.121 320.331 357.831 378.542> 295 37.5<320.331 378.542> 370.168 75<337.116 378.539> 425 75<175.604 275.061>
LayerCount: 2
Fore
SplineSet
490.942382812 507.921875 m 4xf8
 490.942382812 487.2109375 474.15234375 470.421875 453.442382812 470.421875 c 4
 432.729492188 470.421875 415.942382812 487.2109375 415.942382812 507.921875 c 4
 415.942382812 528.631835938 432.729492188 545.421875 453.442382812 545.421875 c 4
 474.15234375 545.421875 490.942382812 528.631835938 490.942382812 507.921875 c 4xf8
50 450.331054688 m 5
 50 503.905273438 69.1162109375 555.719726562 103.908203125 596.45703125 c 4
 138.701171875 637.194335938 186.889648438 664.181640625 239.802734375 672.560546875 c 4
 292.71484375 680.94140625 346.8828125 670.16796875 392.563476562 642.174804688 c 4
 438.240234375 614.18359375 472.431640625 570.8125 488.986328125 519.860351562 c 5
 417.666015625 496.686523438 l 5
 406.62890625 530.65625 383.833007812 559.572265625 353.376953125 578.234375 c 4
 322.924804688 596.896484375 286.811523438 604.079101562 251.533203125 598.493164062 c 4
 216.2578125 592.904296875 184.130859375 574.9140625 160.932617188 547.752929688 c 4
 137.736328125 520.592773438 124.9921875 486.048828125 124.9921875 450.331054688 c 5
 50 450.331054688 l 5
50 225.331054688 m 5
 124.9921875 225.331054688 l 5
 124.9921875 189.61328125 137.736328125 155.067382812 160.932617188 127.909179688 c 4
 184.130859375 100.749023438 216.2578125 82.7578125 251.533203125 77.171875 c 4
 286.811523438 71.583984375 322.924804688 78.7666015625 353.376953125 97.4287109375 c 4
 383.833007812 116.090820312 406.62890625 145.008789062 417.666015625 178.9765625 c 5
 488.986328125 155.8046875 l 5
 472.431640625 104.850585938 438.240234375 61.478515625 392.563476562 33.48828125 c 4
 346.8828125 5.4970703125 292.71484375 -5.279296875 239.802734375 3.1025390625 c 4
 186.889648438 11.4814453125 138.701171875 38.46875 103.908203125 79.2060546875 c 4
 69.1162109375 119.943359375 50 171.759765625 50 225.331054688 c 5
50 451.581054688 m 5
 125 451.581054688 l 5
 125 224.081054688 l 5
 50 224.081054688 l 5
 50 451.581054688 l 5
434.099609375 384.430664062 m 5
 476.293945312 342.233398438 500 285.006835938 500 225.331054688 c 4
 500 165.658203125 476.293945312 108.4296875 434.099609375 66.232421875 c 4
 391.90234375 24.037109375 334.67578125 0.3310546875 275 0.3310546875 c 4
 215.327148438 0.3310546875 158.09765625 24.037109375 115.900390625 66.232421875 c 5
 168.93359375 119.264648438 l 5
 197.065429688 91.134765625 235.216796875 75.3310546875 275 75.3310546875 c 4
 314.783203125 75.3310546875 352.934570312 91.134765625 381.06640625 119.264648438 c 4
 409.197265625 147.396484375 425 185.548828125 425 225.331054688 c 4xf880
 425 265.114257812 409.197265625 303.265625 381.06640625 331.3984375 c 5
 434.099609375 384.430664062 l 5
445.16796875 357.826171875 m 4xf9
 445.16796875 337.116210938 428.376953125 320.326171875 407.66796875 320.326171875 c 4
 386.958007812 320.326171875 370.16796875 337.116210938 370.16796875 357.826171875 c 4
 370.16796875 378.5390625 386.958007812 395.326171875 407.66796875 395.326171875 c 4
 428.376953125 395.326171875 445.16796875 378.5390625 445.16796875 357.826171875 c 4xf9
257.5 357.831054688 m 6xfc
 257.5 378.541992188 274.2890625 395.331054688 295 395.331054688 c 4xfa
 315.7109375 395.331054688 332.5 378.541992188 332.5 357.831054688 c 6
 332.5 292.831054688 l 6xfc
 332.5 272.12109375 315.7109375 255.331054688 295 255.331054688 c 4xfa
 274.2890625 255.331054688 257.5 272.12109375 257.5 292.831054688 c 6
 257.5 357.831054688 l 6xfc
295 320.331054688 m 5
 295 395.331054688 l 5
 407.5 395.331054688 l 6
 428.2109375 395.331054688 445 378.541992188 445 357.831054688 c 4
 445 337.12109375 428.2109375 320.331054688 407.5 320.331054688 c 6
 295 320.331054688 l 5
490.942382812 507.921875 m 0
 490.942382812 487.2109375 474.15234375 470.421875 453.442382812 470.421875 c 0
 432.729492188 470.421875 415.942382812 487.2109375 415.942382812 507.921875 c 0
 415.942382812 528.631835938 432.729492188 545.421875 453.442382812 545.421875 c 0
 474.15234375 545.421875 490.942382812 528.631835938 490.942382812 507.921875 c 0
50 450.331054688 m 1
 50 503.905273438 69.1162109375 555.719726562 103.908203125 596.45703125 c 0
 138.701171875 637.194335938 186.889648438 664.181640625 239.802734375 672.560546875 c 0
 292.71484375 680.94140625 346.8828125 670.16796875 392.563476562 642.174804688 c 0
 438.240234375 614.18359375 472.431640625 570.8125 488.986328125 519.860351562 c 1
 417.666015625 496.686523438 l 1
 406.62890625 530.65625 383.833007812 559.572265625 353.376953125 578.234375 c 0
 322.924804688 596.896484375 286.811523438 604.079101562 251.533203125 598.493164062 c 0
 216.2578125 592.904296875 184.130859375 574.9140625 160.932617188 547.752929688 c 0
 137.736328125 520.592773438 124.9921875 486.048828125 124.9921875 450.331054688 c 1
 50 450.331054688 l 1
50 225.331054688 m 1
 124.9921875 225.331054688 l 1
 124.9921875 189.61328125 137.736328125 155.067382812 160.932617188 127.909179688 c 0
 184.130859375 100.749023438 216.2578125 82.7578125 251.533203125 77.171875 c 0
 286.811523438 71.583984375 322.924804688 78.7666015625 353.376953125 97.4287109375 c 0
 383.833007812 116.090820312 406.62890625 145.008789062 417.666015625 178.9765625 c 1
 488.986328125 155.8046875 l 1
 472.431640625 104.850585938 438.240234375 61.478515625 392.563476562 33.48828125 c 0
 346.8828125 5.4970703125 292.71484375 -5.279296875 239.802734375 3.1025390625 c 0
 186.889648438 11.4814453125 138.701171875 38.46875 103.908203125 79.2060546875 c 0
 69.1162109375 119.943359375 50 171.759765625 50 225.331054688 c 1
50 451.581054688 m 1
 125 451.581054688 l 1
 125 224.081054688 l 1
 50 224.081054688 l 1
 50 451.581054688 l 1
434.099609375 384.430664062 m 1
 476.293945312 342.233398438 500 285.006835938 500 225.331054688 c 0
 500 165.658203125 476.293945312 108.4296875 434.099609375 66.232421875 c 0
 391.90234375 24.037109375 334.67578125 0.3310546875 275 0.3310546875 c 0
 215.327148438 0.3310546875 158.09765625 24.037109375 115.900390625 66.232421875 c 1
 168.93359375 119.264648438 l 1
 197.065429688 91.134765625 235.216796875 75.3310546875 275 75.3310546875 c 0
 314.783203125 75.3310546875 352.934570312 91.134765625 381.06640625 119.264648438 c 0
 409.197265625 147.396484375 425 185.548828125 425 225.331054688 c 0xf880
 425 265.114257812 409.197265625 303.265625 381.06640625 331.3984375 c 1
 434.099609375 384.430664062 l 1
445.16796875 357.826171875 m 0xf9
 445.16796875 337.116210938 428.376953125 320.326171875 407.66796875 320.326171875 c 0
 386.958007812 320.326171875 370.16796875 337.116210938 370.16796875 357.826171875 c 0
 370.16796875 378.5390625 386.958007812 395.326171875 407.66796875 395.326171875 c 0
 428.376953125 395.326171875 445.16796875 378.5390625 445.16796875 357.826171875 c 0xf9
257.5 357.831054688 m 2xfc
 257.5 378.541992188 274.2890625 395.331054688 295 395.331054688 c 0xfa
 315.7109375 395.331054688 332.5 378.541992188 332.5 357.831054688 c 2
 332.5 292.831054688 l 2xfc
 332.5 272.12109375 315.7109375 255.331054688 295 255.331054688 c 0xfa
 274.2890625 255.331054688 257.5 272.12109375 257.5 292.831054688 c 2
 257.5 357.831054688 l 2xfc
295 320.331054688 m 1
 295 395.331054688 l 1
 407.5 395.331054688 l 2
 428.2109375 395.331054688 445 378.541992188 445 357.831054688 c 0
 445 337.12109375 428.2109375 320.331054688 407.5 320.331054688 c 2
 295 320.331054688 l 1
EndSplineSet
Validated: 37
EndChar

StartChar: H
Encoding: 72 72 9
Width: 550
Flags: W
HStem: 375.498 74.9883<197.454 351.254> 600.486 37.5<66.7891 108.211 441.789 483.211> 655.486 20G<77.1445 97.8555 452.145 472.855>
VStem: 50 75<225.486 671.788> 425 75<225.486 671.788>
LayerCount: 2
Fore
SplineSet
192.55859375 81.365234375 m 4
 192.55859375 60.654296875 175.76953125 43.865234375 155.05859375 43.865234375 c 4
 134.34765625 43.865234375 117.55859375 60.654296875 117.55859375 81.365234375 c 4
 117.55859375 102.076171875 134.34765625 118.865234375 155.05859375 118.865234375 c 4
 175.76953125 118.865234375 192.55859375 102.076171875 192.55859375 81.365234375 c 4
357.421875 81.365234375 m 4
 357.421875 102.076171875 374.208984375 118.865234375 394.921875 118.865234375 c 4
 415.6328125 118.865234375 432.421875 102.076171875 432.421875 81.365234375 c 4
 432.421875 60.654296875 415.6328125 43.865234375 394.921875 43.865234375 c 4
 374.208984375 43.865234375 357.421875 60.654296875 357.421875 81.365234375 c 4
130.984375 52.615234375 m 5
 95.431640625 82.234375 69.875 122.08984375 57.7978515625 166.760742188 c 4
 45.72265625 211.428710938 47.7099609375 258.733398438 63.494140625 302.234375 c 4
 79.27734375 345.73046875 108.087890625 383.303710938 145.998046875 409.833984375 c 4
 183.911132812 436.36328125 229.08203125 450.559570312 275.353515625 450.486328125 c 4
 321.625976562 450.413085938 366.75 436.07421875 404.580078125 409.426757812 c 4
 442.407226562 382.779296875 471.1015625 345.11328125 486.748046875 301.568359375 c 4
 502.392578125 258.020507812 504.233398438 210.708984375 492.013671875 166.080078125 c 4
 479.796875 121.448242188 454.119140625 81.66796875 418.471679688 52.1640625 c 5
 370.65625 109.9296875 l 5
 394.421875 129.602539062 411.544921875 156.12109375 419.689453125 185.87890625 c 4
 427.833984375 215.6328125 426.609375 247.177734375 416.176757812 276.2109375 c 4
 405.744140625 305.247070312 386.616210938 330.357421875 361.39453125 348.123046875 c 4
 336.171875 365.891601562 306.0859375 375.452148438 275.234375 375.498046875 c 4
 244.384765625 375.549804688 214.267578125 366.083984375 188.9921875 348.396484375 c 4
 163.715820312 330.706054688 144.506835938 305.657226562 133.984375 276.653320312 c 4
 123.458984375 247.654296875 122.133789062 216.11328125 130.185546875 186.331054688 c 4
 138.240234375 156.55078125 155.278320312 129.9765625 178.982421875 110.23046875 c 5
 130.984375 52.615234375 l 5
50 637.986328125 m 5
 125 637.986328125 l 5
 125 225.486328125 l 5
 50 225.486328125 l 5
 50 637.986328125 l 5
125 637.986328125 m 4
 125 617.275390625 108.2109375 600.486328125 87.5 600.486328125 c 4
 66.7890625 600.486328125 50 617.275390625 50 637.986328125 c 4
 50 658.697265625 66.7890625 675.486328125 87.5 675.486328125 c 4
 108.2109375 675.486328125 125 658.697265625 125 637.986328125 c 4
500 637.986328125 m 5
 500 225.486328125 l 5
 425 225.486328125 l 5
 425 637.986328125 l 5
 500 637.986328125 l 5
425 637.986328125 m 4
 425 658.697265625 441.7890625 675.486328125 462.5 675.486328125 c 4
 483.2109375 675.486328125 500 658.697265625 500 637.986328125 c 4
 500 617.275390625 483.2109375 600.486328125 462.5 600.486328125 c 4
 441.7890625 600.486328125 425 617.275390625 425 637.986328125 c 4
EndSplineSet
Validated: 37
EndChar

StartChar: I
Encoding: 73 73 10
Width: 440
Flags: W
HStem: -0.5 21G<205.971 235.519> -0.5 21G<205.971 235.519> 37 37.5<200.034 241.455> 599.512 32.4883<200.034 241.455> 654.5 20G<205.971 235.519>
VStem: 183.245 75<16.2891 657.711>
LayerCount: 2
Fore
SplineSet
379.84375 65.400390625 m 5xbc
 358.950195312 44.5078125 334.147460938 27.935546875 306.848632812 16.626953125 c 4
 279.55078125 5.3203125 250.29296875 -0.5 220.745117188 -0.5 c 4
 191.196289062 -0.5 161.938476562 5.3203125 134.641601562 16.626953125 c 4
 107.340820312 27.935546875 82.5390625 44.5078125 61.6455078125 65.400390625 c 5
 114.670898438 118.427734375 l 5
 128.600585938 104.498046875 145.13671875 93.447265625 163.336914062 85.908203125 c 4
 181.538085938 78.369140625 201.044921875 74.490234375 220.745117188 74.490234375 c 4
 240.444335938 74.490234375 259.951171875 78.369140625 278.151367188 85.908203125 c 4
 296.352539062 93.447265625 312.890625 104.498046875 326.81640625 118.427734375 c 5
 379.84375 65.400390625 l 5xbc
391.484375 92.5712890625 m 4
 391.484375 71.861328125 374.697265625 55.0712890625 353.984375 55.0712890625 c 4
 333.274414062 55.0712890625 316.484375 71.861328125 316.484375 92.5712890625 c 4
 316.484375 113.28125 333.274414062 130.071289062 353.984375 130.071289062 c 4
 374.697265625 130.071289062 391.484375 113.28125 391.484375 92.5712890625 c 4
125 92.5712890625 m 4
 125 71.861328125 108.209960938 55.0712890625 87.5 55.0712890625 c 4
 66.7900390625 55.0712890625 50 71.861328125 50 92.5712890625 c 4
 50 113.28125 66.7900390625 130.071289062 87.5 130.071289062 c 4
 108.209960938 130.071289062 125 113.28125 125 92.5712890625 c 4
183.245117188 637 m 5
 258.245117188 637 l 5
 258.245117188 42 l 5
 183.245117188 42 l 5
 183.245117188 637 l 5
258.245117188 637 m 4
 258.245117188 616.2890625 241.455078125 599.5 220.745117188 599.5 c 4
 200.034179688 599.5 183.245117188 616.2890625 183.245117188 637 c 4
 183.245117188 657.7109375 200.034179688 674.5 220.745117188 674.5 c 4
 241.455078125 674.5 258.245117188 657.7109375 258.245117188 637 c 4
379.84375 608.599609375 m 5
 326.81640625 555.57421875 l 5
 312.890625 569.501953125 296.352539062 580.552734375 278.151367188 588.091796875 c 4
 259.951171875 595.630859375 240.444335938 599.51171875 220.745117188 599.51171875 c 4
 201.044921875 599.51171875 181.538085938 595.630859375 163.336914062 588.091796875 c 4
 145.13671875 580.552734375 128.600585938 569.501953125 114.670898438 555.57421875 c 5
 61.6455078125 608.599609375 l 5
 82.5390625 629.4921875 107.340820312 646.064453125 134.641601562 657.373046875 c 4
 161.938476562 668.6796875 191.196289062 674.5 220.745117188 674.5 c 4
 250.29296875 674.5 279.55078125 668.6796875 306.848632812 657.373046875 c 4
 334.147460938 646.064453125 358.950195312 629.4921875 379.84375 608.599609375 c 5
391.484375 581.428710938 m 4
 391.484375 560.71875 374.697265625 543.928710938 353.984375 543.928710938 c 4
 333.274414062 543.928710938 316.484375 560.71875 316.484375 581.428710938 c 4
 316.484375 602.138671875 333.274414062 618.928710938 353.984375 618.928710938 c 4
 374.697265625 618.928710938 391.484375 602.138671875 391.484375 581.428710938 c 4
125 581.428710938 m 4
 125 560.71875 108.209960938 543.928710938 87.5 543.928710938 c 4
 66.7900390625 543.928710938 50 560.71875 50 581.428710938 c 4
 50 602.138671875 66.7900390625 618.928710938 87.5 618.928710938 c 4
 108.209960938 618.928710938 125 602.138671875 125 581.428710938 c 4
183.245117188 37 m 5
 183.245117188 632 l 5
 258.245117188 632 l 5
 258.245117188 37 l 5
 183.245117188 37 l 5
258.245117188 37 m 4
 258.245117188 16.2890625 241.455078125 -0.5 220.745117188 -0.5 c 4
 200.034179688 -0.5 183.245117188 16.2890625 183.245117188 37 c 4
 183.245117188 57.7109375 200.034179688 74.5 220.745117188 74.5 c 4
 241.455078125 74.5 258.245117188 57.7109375 258.245117188 37 c 4
379.84375 65.400390625 m 1
 358.950195312 44.5078125 334.147460938 27.935546875 306.848632812 16.626953125 c 0
 279.55078125 5.3203125 250.29296875 -0.5 220.745117188 -0.5 c 0
 191.196289062 -0.5 161.938476562 5.3203125 134.641601562 16.626953125 c 0
 107.340820312 27.935546875 82.5390625 44.5078125 61.6455078125 65.400390625 c 1
 114.670898438 118.427734375 l 1
 128.600585938 104.498046875 145.13671875 93.447265625 163.336914062 85.908203125 c 0
 181.538085938 78.369140625 201.044921875 74.490234375 220.745117188 74.490234375 c 0
 240.444335938 74.490234375 259.951171875 78.369140625 278.151367188 85.908203125 c 0
 296.352539062 93.447265625 312.890625 104.498046875 326.81640625 118.427734375 c 1
 379.84375 65.400390625 l 1
391.484375 92.5712890625 m 0
 391.484375 71.861328125 374.697265625 55.0712890625 353.984375 55.0712890625 c 0
 333.274414062 55.0712890625 316.484375 71.861328125 316.484375 92.5712890625 c 0
 316.484375 113.28125 333.274414062 130.071289062 353.984375 130.071289062 c 0
 374.697265625 130.071289062 391.484375 113.28125 391.484375 92.5712890625 c 0
125 92.5712890625 m 0
 125 71.861328125 108.209960938 55.0712890625 87.5 55.0712890625 c 0
 66.7900390625 55.0712890625 50 71.861328125 50 92.5712890625 c 0
 50 113.28125 66.7900390625 130.071289062 87.5 130.071289062 c 0
 108.209960938 130.071289062 125 113.28125 125 92.5712890625 c 0
183.245117188 637 m 1
 258.245117188 637 l 1
 258.245117188 42 l 1
 183.245117188 42 l 1
 183.245117188 637 l 1
258.245117188 637 m 0
 258.245117188 616.2890625 241.455078125 599.5 220.745117188 599.5 c 0
 200.034179688 599.5 183.245117188 616.2890625 183.245117188 637 c 0
 183.245117188 657.7109375 200.034179688 674.5 220.745117188 674.5 c 0
 241.455078125 674.5 258.245117188 657.7109375 258.245117188 637 c 0
379.84375 608.599609375 m 1
 326.81640625 555.57421875 l 1
 312.890625 569.501953125 296.352539062 580.552734375 278.151367188 588.091796875 c 0
 259.951171875 595.630859375 240.444335938 599.51171875 220.745117188 599.51171875 c 0
 201.044921875 599.51171875 181.538085938 595.630859375 163.336914062 588.091796875 c 0
 145.13671875 580.552734375 128.600585938 569.501953125 114.670898438 555.57421875 c 1
 61.6455078125 608.599609375 l 1
 82.5390625 629.4921875 107.340820312 646.064453125 134.641601562 657.373046875 c 0
 161.938476562 668.6796875 191.196289062 674.5 220.745117188 674.5 c 0
 250.29296875 674.5 279.55078125 668.6796875 306.848632812 657.373046875 c 0
 334.147460938 646.064453125 358.950195312 629.4921875 379.84375 608.599609375 c 1
391.484375 581.428710938 m 0
 391.484375 560.71875 374.697265625 543.928710938 353.984375 543.928710938 c 0
 333.274414062 543.928710938 316.484375 560.71875 316.484375 581.428710938 c 0
 316.484375 602.138671875 333.274414062 618.928710938 353.984375 618.928710938 c 0
 374.697265625 618.928710938 391.484375 602.138671875 391.484375 581.428710938 c 0
125 581.428710938 m 0
 125 560.71875 108.209960938 543.928710938 87.5 543.928710938 c 0
 66.7900390625 543.928710938 50 560.71875 50 581.428710938 c 0
 50 602.138671875 66.7900390625 618.928710938 87.5 618.928710938 c 0
 108.209960938 618.928710938 125 602.138671875 125 581.428710938 c 0
183.245117188 37 m 1
 183.245117188 632 l 1
 258.245117188 632 l 1
 258.245117188 37 l 1
 183.245117188 37 l 1
258.245117188 37 m 0
 258.245117188 16.2890625 241.455078125 -0.5 220.745117188 -0.5 c 0
 200.034179688 -0.5 183.245117188 16.2890625 183.245117188 37 c 0
 183.245117188 57.7109375 200.034179688 74.5 220.745117188 74.5 c 0
 241.455078125 74.5 258.245117188 57.7109375 258.245117188 37 c 0
EndSplineSet
Validated: 5
EndChar

StartChar: J
Encoding: 74 74 11
Width: 550
Flags: W
HStem: -0.5 74.9883<197.501 352.499> 187 37.5<66.7891 108.211> 599.5 37.5<441.789 483.211> 654.5 20G<452.145 472.855>
VStem: 50 75<147.421 258.302> 425 75<147.421 670.802>
LayerCount: 2
Fore
SplineSet
425 637 m 4
 425 657.7109375 441.7890625 674.5 462.5 674.5 c 4
 483.2109375 674.5 500 657.7109375 500 637 c 4
 500 616.2890625 483.2109375 599.5 462.5 599.5 c 4
 441.7890625 599.5 425 616.2890625 425 637 c 4
500 224.5 m 5
 425.014648438 224.5 l 5
 425 637 l 5
 500 637 l 5
 500 224.5 l 5
500 224.5 m 5
 500 194.951171875 494.1796875 165.693359375 482.873046875 138.396484375 c 4
 471.564453125 111.096679688 454.9921875 86.294921875 434.099609375 65.400390625 c 4
 413.205078125 44.5078125 388.403320312 27.935546875 361.10546875 16.626953125 c 4
 333.806640625 5.3203125 304.548828125 -0.5 275 -0.5 c 4
 245.451171875 -0.5 216.193359375 5.3203125 188.896484375 16.626953125 c 4
 161.599609375 27.935546875 136.794921875 44.5078125 115.900390625 65.400390625 c 4
 95.0078125 86.294921875 78.435546875 111.096679688 67.126953125 138.396484375 c 4
 55.8203125 165.693359375 50 194.951171875 50 224.5 c 5
 124.985351562 224.5 l 5
 124.985351562 204.80078125 128.8671875 185.29296875 136.40625 167.092773438 c 4
 143.9453125 148.892578125 154.995117188 132.353515625 168.923828125 118.42578125 c 4
 182.853515625 104.495117188 199.392578125 93.4453125 217.592773438 85.904296875 c 4
 235.79296875 78.3671875 255.30078125 74.48828125 275 74.48828125 c 4
 294.69921875 74.48828125 314.20703125 78.3671875 332.407226562 85.904296875 c 4
 350.607421875 93.4453125 367.146484375 104.495117188 381.07421875 118.42578125 c 4
 395.004882812 132.353515625 406.0546875 148.892578125 413.595703125 167.092773438 c 4
 421.1328125 185.29296875 425.014648438 204.80078125 425.014648438 224.5 c 5
 500 224.5 l 5
125 224.5 m 4
 125 203.7890625 108.2109375 187 87.5 187 c 4
 66.7890625 187 50 203.7890625 50 224.5 c 4
 50 245.2109375 66.7890625 262 87.5 262 c 4
 108.2109375 262 125 245.2109375 125 224.5 c 4
EndSplineSet
Validated: 5
EndChar

StartChar: a
Encoding: 97 97 13
Width: 550
Flags: HW
HStem: -2.05346e+11 2.4576e+10<1.59174e+11 2.10012e+11> -2.05346e+11 6.88128e+09G<2.4264e+11 2.49426e+11> -1.93058e+11 1.2288e+10<2.39246e+11 2.5282e+11> -8.24661e+10 2.4576e+10<1.59174e+11 2.10012e+11>
VStem: 1.10865e+11 2.4576e+10<-1.57037e+11 -1.06199e+11> 2.33745e+11 2.4576e+10<-2.04134e+11 -1.06199e+11>
LayerCount: 2
Fore
SplineSet
425 57.29296875 m 1
 385.193359375 21.6650390625 332.626953125 0 275 0 c 0
 150.734375 0 50 100.734375 50 225 c 0
 50 349.265625 150.734375 450 275 450 c 0
 399.265625 450 500 349.265625 500 225 c 6
 500 37.5 l 6
 500 16.7890625 483.2109375 0 462.5 0 c 0
 441.7890625 0 425 16.7890625 425 37.5 c 2
 425 57.29296875 l 1
425 225 m 0
 425 307.841796875 357.841796875 375 275 375 c 0
 192.158203125 375 125 307.841796875 125 225 c 0
 125 142.158203125 192.158203125 75 275 75 c 0
 357.841796875 75 425 142.158203125 425 225 c 0
EndSplineSet
EndChar

StartChar: b
Encoding: 98 98 14
Width: 550
Flags: HW
HStem: -886.25 187.5<543.57 931.43> 51.25 187.5<543.57 931.43> 613.75 93.75<216.973 320.527> 751.25 50G<242.861 294.639>
VStem: 175 187.5<-517.68 792.005> 1112.5 187.5<-517.68 -129.82>
LayerCount: 2
Fore
SplineSet
125 637.5 m 2
 125 392.70703125 l 1
 164.806640625 428.334960938 217.373046875 450 275 450 c 0
 399.265625 450 500 349.265625 500 225 c 0
 500 100.734375 399.265625 0 275 0 c 0
 150.734375 0 50 100.734375 50 225 c 2
 50 637.5 l 2
 50 658.2109375 66.7890625 675 87.5 675 c 0
 108.2109375 675 125 658.2109375 125 637.5 c 2
275 75 m 0
 357.841796875 75 425 142.158203125 425 225 c 0
 425 307.841796875 357.841796875 375 275 375 c 0
 192.158203125 375 125 307.841796875 125 225 c 0
 125 142.158203125 192.158203125 75 275 75 c 0
EndSplineSet
EndChar

StartChar: c
Encoding: 99 99 15
Width: 507
Flags: HW
VStem: 3.40527e+07 1.09122e+09<-6.61853e+09 -4.38044e+09>
LayerCount: 2
Fore
SplineSet
447.654296875 80.7802734375 m 0
 418.05859375 45.3623046875 378.2890625 19.9033203125 333.725585938 7.85546875 c 0
 289.057617188 -4.22265625 241.75 -2.2353515625 198.25390625 13.548828125 c 0
 154.755859375 29.33203125 117.182617188 58.1435546875 90.65234375 96.0556640625 c 0
 64.123046875 133.965820312 49.9267578125 179.134765625 50 225.409179688 c 0
 50.0732421875 271.680664062 64.4091796875 316.805664062 91.0595703125 354.634765625 c 0
 117.70703125 392.461914062 155.37109375 421.153320312 198.91796875 436.80078125 c 0
 242.465820312 452.447265625 289.77734375 454.288085938 334.40625 442.071289062 c 0
 379.038085938 429.852539062 418.818359375 404.170898438 448.322265625 368.526367188 c 1
 448.3125 368.51953125 l 2
 453.510742188 362.083984375 456.62109375 353.892578125 456.62109375 344.9765625 c 0
 456.62109375 324.266601562 439.83203125 307.4765625 419.12109375 307.4765625 c 0
 407.084960938 307.4765625 396.372070312 313.1484375 389.51171875 321.963867188 c 0
 369.951171875 345.079101562 343.83984375 361.7421875 314.607421875 369.745117188 c 0
 284.8515625 377.889648438 253.30859375 376.6640625 224.275390625 366.231445312 c 0
 195.2421875 355.799804688 170.12890625 336.670898438 152.361328125 311.44921875 c 0
 134.594726562 286.2265625 125.034179688 256.141601562 124.98828125 225.2890625 c 0
 124.939453125 194.439453125 134.40234375 164.322265625 152.08984375 139.046875 c 0
 169.77734375 113.770507812 194.83203125 94.5595703125 223.830078125 84.037109375 c 0
 252.83203125 73.5146484375 284.373046875 72.1884765625 314.155273438 80.2431640625 c 0
 343.671875 88.2216796875 370.0390625 105.033203125 389.731445312 128.409179688 c 0
 396.6015625 137.061523438 407.211914062 142.61328125 419.12109375 142.61328125 c 0
 439.83203125 142.61328125 456.62109375 125.82421875 456.62109375 105.11328125 c 0
 456.62109375 95.826171875 453.244140625 87.330078125 447.654296875 80.7802734375 c 0
EndSplineSet
EndChar

StartChar: d
Encoding: 100 100 16
Width: 550
Flags: W
HStem: -0.5 75<197.428 352.572> 374.5 75<197.428 352.572> 599.5 37.5<441.789 483.211> 654.5 20G<452.145 472.855>
VStem: 50 75<146.928 302.072> 425 75<146.928 670.802>
LayerCount: 2
Fore
SplineSet
275 74.5 m 4
 357.841796875 74.5 425 141.658203125 425 224.5 c 4
 425 307.341796875 357.841796875 374.5 275 374.5 c 4
 192.158203125 374.5 125 307.341796875 125 224.5 c 4
 125 141.658203125 192.158203125 74.5 275 74.5 c 4
275 -0.5 m 4
 150.734375 -0.5 50 100.234375 50 224.5 c 4
 50 348.765625 150.734375 449.5 275 449.5 c 4
 399.265625 449.5 500 348.765625 500 224.5 c 4
 500 100.234375 399.265625 -0.5 275 -0.5 c 4
500 637 m 5
 500 224.5 l 5
 425 224.5 l 5
 425 637 l 5
 500 637 l 5
425 637 m 4
 425 657.7109375 441.7890625 674.5 462.5 674.5 c 4
 483.2109375 674.5 500 657.7109375 500 637 c 4
 500 616.2890625 483.2109375 599.5 462.5 599.5 c 4
 441.7890625 599.5 425 616.2890625 425 637 c 4
EndSplineSet
Validated: 5
EndChar

StartChar: e
Encoding: 101 101 17
Width: 506
Flags: W
VStem: 50 74.9883<195.265 301.31>
LayerCount: 2
Fore
SplineSet
419.12109375 142.61328125 m 4
 439.83203125 142.61328125 456.62109375 125.82421875 456.62109375 105.11328125 c 4
 456.62109375 84.4033203125 439.83203125 67.61328125 419.12109375 67.61328125 c 4
 398.41015625 67.61328125 381.62109375 84.4033203125 381.62109375 105.11328125 c 4
 381.62109375 125.82421875 398.41015625 142.61328125 419.12109375 142.61328125 c 4
333.725585938 7.85546875 m 4
 289.057617188 -4.22265625 241.75 -2.2353515625 198.25390625 13.548828125 c 4
 154.755859375 29.33203125 117.182617188 58.1435546875 90.65234375 96.0556640625 c 4
 64.123046875 133.965820312 49.9267578125 179.134765625 50 225.409179688 c 4
 50.0732421875 271.680664062 64.4091796875 316.805664062 91.0595703125 354.634765625 c 4
 117.70703125 392.461914062 155.37109375 421.153320312 198.91796875 436.80078125 c 4
 242.465820312 452.447265625 289.77734375 454.288085938 334.40625 442.071289062 c 4
 379.038085938 429.852539062 418.818359375 404.170898438 448.322265625 368.526367188 c 5
 448.3125 368.51953125 l 6
 453.510742188 362.083984375 456.62109375 353.892578125 456.62109375 344.9765625 c 4
 456.62109375 332.247070312 450.28125 320.997070312 440.583984375 314.219726562 c 5
 440.583984375 314.219726562 405 288 390 307 c 4
 383.890752012 314.738380785 374 350 374 350 c 5
 374 350 393.019444969 383.059656409 401 388 c 4
 422 401 448.3125 368.51953125 448.3125 368.51953125 c 5
 441.4375 377.032226562 430.916015625 382.4765625 419.12109375 382.4765625 c 4
 398.41015625 382.4765625 381.62109375 365.6875 381.62109375 344.9765625 c 4
 381.62109375 336.302734375 384.568359375 328.31640625 389.51171875 321.961914062 c 4
 396.372070312 313.1484375 407.084960938 307.4765625 419.12109375 307.4765625 c 4
 426.681640625 307.4765625 433.720703125 309.712890625 439.607421875 313.563476562 c 6
 440.537109375 314.188476562 l 5
 440.229492188 313.975585938 439.919921875 313.765625 439.607421875 313.563476562 c 6
 162.111328125 126.260742188 l 5
 178.732421875 107.266601562 199.94140625 92.7060546875 223.830078125 84.037109375 c 4
 252.83203125 73.5146484375 284.373046875 72.1884765625 314.155273438 80.2431640625 c 4
 343.935546875 88.2919921875 370.509765625 105.333007812 390.255859375 129.034179688 c 5
 447.87109375 81.0390625 l 5
 418.251953125 45.4873046875 378.396484375 19.9326171875 333.725585938 7.85546875 c 4
128.259765625 193.895507812 m 5
 358.78125 349.493164062 l 5
 345.33203125 358.545898438 330.427734375 365.4140625 314.607421875 369.745117188 c 4
 284.8515625 377.889648438 253.30859375 376.6640625 224.275390625 366.231445312 c 4
 195.2421875 355.799804688 170.12890625 336.670898438 152.361328125 311.44921875 c 4
 134.594726562 286.2265625 125.034179688 256.141601562 124.98828125 225.2890625 c 4
 124.970703125 214.68359375 126.079101562 204.1640625 128.259765625 193.895507812 c 5
EndSplineSet
Validated: 37
EndChar

StartChar: h
Encoding: 104 104 18
Width: 550
Flags: W
HStem: 375.498 74.9883<197.454 351.255> 600.486 37.5<66.79 108.211> 655.486 20G<77.145 97.8555>
VStem: 50 75<225.486 671.788>
LayerCount: 2
Fore
SplineSet
192.55859375 81.365234375 m 4
 192.55859375 60.654296875 175.76953125 43.865234375 155.05859375 43.865234375 c 4
 134.348632812 43.865234375 117.55859375 60.654296875 117.55859375 81.365234375 c 4
 117.55859375 102.076171875 134.348632812 118.865234375 155.05859375 118.865234375 c 4
 175.76953125 118.865234375 192.55859375 102.076171875 192.55859375 81.365234375 c 4
357.421875 81.365234375 m 4
 357.421875 102.076171875 374.208984375 118.865234375 394.921875 118.865234375 c 4
 415.6328125 118.865234375 432.421875 102.076171875 432.421875 81.365234375 c 4
 432.421875 60.654296875 415.6328125 43.865234375 394.921875 43.865234375 c 4
 374.208984375 43.865234375 357.421875 60.654296875 357.421875 81.365234375 c 4
130.984375 52.615234375 m 5
 95.4326171875 82.234375 69.8759765625 122.08984375 57.7978515625 166.760742188 c 4
 45.72265625 211.428710938 47.7099609375 258.733398438 63.494140625 302.234375 c 4
 79.27734375 345.73046875 108.088867188 383.303710938 145.999023438 409.833984375 c 4
 183.911132812 436.36328125 229.08203125 450.559570312 275.354492188 450.486328125 c 4
 321.625976562 450.413085938 366.750976562 436.07421875 404.580078125 409.426757812 c 4
 442.407226562 382.779296875 471.1015625 345.11328125 486.748046875 301.568359375 c 4
 502.392578125 258.020507812 504.233398438 210.708984375 492.014648438 166.080078125 c 4
 479.797851562 121.448242188 454.119140625 81.66796875 418.471679688 52.1640625 c 5
 370.657226562 109.9296875 l 5
 394.421875 129.602539062 411.545898438 156.12109375 419.690429688 185.87890625 c 4
 427.834960938 215.6328125 426.609375 247.177734375 416.176757812 276.2109375 c 4
 405.745117188 305.247070312 386.616210938 330.357421875 361.39453125 348.123046875 c 4
 336.171875 365.891601562 306.086914062 375.452148438 275.234375 375.498046875 c 4
 244.384765625 375.549804688 214.267578125 366.083984375 188.9921875 348.396484375 c 4
 163.715820312 330.706054688 144.506835938 305.657226562 133.984375 276.653320312 c 4
 123.459960938 247.654296875 122.133789062 216.11328125 130.185546875 186.331054688 c 4
 138.240234375 156.55078125 155.278320312 129.9765625 178.982421875 110.23046875 c 5
 130.984375 52.615234375 l 5
50 637.986328125 m 5
 125 637.986328125 l 5
 125 225.486328125 l 5
 50 225.486328125 l 5
 50 637.986328125 l 5
125 637.986328125 m 4
 125 617.275390625 108.2109375 600.486328125 87.5 600.486328125 c 4
 66.7900390625 600.486328125 50 617.275390625 50 637.986328125 c 4
 50 658.697265625 66.7900390625 675.486328125 87.5 675.486328125 c 4
 108.2109375 675.486328125 125 658.697265625 125 637.986328125 c 4
EndSplineSet
Validated: 37
EndChar

StartChar: i
Encoding: 105 105 19
Width: 440
Flags: W
HStem: 0 21G<205.229 234.777> 0 21G<205.229 234.777> 42.5 32.4902<200.303 239.702> 430 20G<209.647 230.358> 525 75<186.201 253.805>
VStem: 182.503 75<42.5 446.302 528.698 596.302>
LayerCount: 2
Fore
SplineSet
257.502929688 562.5 m 0x3c
 257.502929688 541.7890625 240.712890625 525 220.002929688 525 c 0
 199.291992188 525 182.502929688 541.7890625 182.502929688 562.5 c 0
 182.502929688 583.2109375 199.291992188 600 220.002929688 600 c 0
 240.712890625 600 257.502929688 583.2109375 257.502929688 562.5 c 0x3c
379.1015625 65.900390625 m 1
 358.208007812 45.0078125 333.405273438 28.435546875 306.106445312 17.126953125 c 0
 278.80859375 5.8203125 249.55078125 0 220.002929688 0 c 0xbc
 190.454101562 0 161.196289062 5.8203125 133.899414062 17.126953125 c 0
 106.598632812 28.435546875 81.796875 45.0078125 60.9033203125 65.900390625 c 1
 113.928710938 118.927734375 l 1
 127.858398438 104.998046875 144.39453125 93.947265625 162.594726562 86.408203125 c 0
 180.795898438 78.869140625 200.302734375 74.990234375 220.002929688 74.990234375 c 0
 239.702148438 74.990234375 259.208984375 78.869140625 277.409179688 86.408203125 c 0
 295.610351562 93.947265625 312.1484375 104.998046875 326.07421875 118.927734375 c 1
 379.1015625 65.900390625 l 1
390.7421875 93.0712890625 m 0
 390.7421875 72.361328125 373.955078125 55.5712890625 353.2421875 55.5712890625 c 0
 332.532226562 55.5712890625 315.7421875 72.361328125 315.7421875 93.0712890625 c 0
 315.7421875 113.78125 332.532226562 130.571289062 353.2421875 130.571289062 c 0
 373.955078125 130.571289062 390.7421875 113.78125 390.7421875 93.0712890625 c 0
124.2578125 93.0712890625 m 0
 124.2578125 72.361328125 107.467773438 55.5712890625 86.7578125 55.5712890625 c 0
 66.0478515625 55.5712890625 49.2578125 72.361328125 49.2578125 93.0712890625 c 0
 49.2578125 113.78125 66.0478515625 130.571289062 86.7578125 130.571289062 c 0
 107.467773438 130.571289062 124.2578125 113.78125 124.2578125 93.0712890625 c 0
182.502929688 412.5 m 2
 182.502929688 433.2109375 199.291992188 450 220.002929688 450 c 0
 240.712890625 450 257.502929688 433.2109375 257.502929688 412.5 c 2
 257.502929688 42.5 l 1
 182.502929688 42.5 l 1
 182.502929688 412.5 l 2
EndSplineSet
Validated: 5
EndChar

StartChar: j
Encoding: 106 106 20
Width: 362
Flags: W
HStem: -225.5 75<53.6979 164.579> -20.5 20G<237.515 312.5> -20.5 20G<237.515 312.5> -0.5 21G<237.514 312.5> -0.5 21G<237.514 312.5> 374.5 37.5<254.289 295.711> 429.5 20G<264.645 285.355> 524.5 75<241.198 308.802>
VStem: 87.5 37.5<-208.711 -167.289> 237.5 75<-77.5799 445.802 528.198 595.802>
LayerCount: 2
Fore
SplineSet
237.5 412 m 0x87c0
 237.5 432.7109375 254.2890625 449.5 275 449.5 c 0
 295.7109375 449.5 312.5 432.7109375 312.5 412 c 0
 312.5 391.2890625 295.7109375 374.5 275 374.5 c 0
 254.2890625 374.5 237.5 391.2890625 237.5 412 c 0x87c0
312.5 -0.5 m 1xc7c0
 237.514648438 -0.5 l 1
 237.5 412 l 1
 312.5 412 l 1
 312.5 -0.5 l 1xc7c0
312.5 562 m 0
 312.5 541.2890625 295.7109375 524.5 275 524.5 c 0
 254.2890625 524.5 237.5 541.2890625 237.5 562 c 0
 237.5 582.7109375 254.2890625 599.5 275 599.5 c 0
 295.7109375 599.5 312.5 582.7109375 312.5 562 c 0
125 -188 m 0
 125 -208.7109375 108.2109375 -225.5 87.5 -225.5 c 0
 66.7890625 -225.5 50 -208.7109375 50 -188 c 0
 50 -167.2890625 66.7890625 -150.5 87.5 -150.5 c 0
 108.2109375 -150.5 125 -167.2890625 125 -188 c 0
312.5 -0.5 m 1
 312.5 -30.048828125 306.6796875 -59.306640625 295.373046875 -86.60546875 c 0
 284.064453125 -113.903320312 267.4921875 -138.705078125 246.599609375 -159.599609375 c 0
 225.705078125 -180.4921875 200.900390625 -197.064453125 173.603515625 -208.373046875 c 0
 146.306640625 -219.6796875 117.048828125 -225.5 87.5 -225.5 c 1
 87.5 -150.514648438 l 1
 107.19921875 -150.514648438 126.70703125 -146.634765625 144.91015625 -139.098632812 c 0
 163.110351562 -131.556640625 179.646484375 -120.5078125 193.576171875 -106.576171875 c 0
 207.5078125 -92.6484375 218.556640625 -76.1103515625 226.095703125 -57.9072265625 c 0
 233.634765625 -39.70703125 237.514648438 -20.19921875 237.514648438 -0.5 c 1
 312.5 -0.5 l 1
EndSplineSet
Validated: 5
EndChar

StartChar: k
Encoding: 107 107 21
Width: 550
Flags: W
HStem: 0 21G<76.5 97.5 450.5 471.5> 0 21G<76.5 97.5 450.5 471.5> 38 37<54.7794 119.968 440 482> 343 38<291 333> 398 20G<301.5 322.5> 599 37<66 108> 654 20G<76.5 97.5>
VStem: 50 75<3.74496 75 196 670.255> 274 75<302.822 414.448> 424 75<3.74496 113.742>
LayerCount: 2
Fore
SplineSet
50 636 m 1x3fc0
 125 636 l 1
 125 38 l 1
 50 38 l 1
 50 636 l 1x3fc0
125 636 m 0
 125 615 108 599 87 599 c 0
 66 599 50 615 50 636 c 0
 50 657 66 674 87 674 c 0
 108 674 125 657 125 636 c 0
125 38 m 0
 125 17 108 0 87 0 c 0xbfc0
 66 0 50 17 50 38 c 0
 50 59 66 75 87 75 c 0
 108 75 125 59 125 38 c 0
499 38 m 1
 424 38 l 1
 424 58 420 77 412 95 c 0
 404 113 394 130 380 144 c 0
 366 158 349 168 331 176 c 0
 313 184 294 187 274 187 c 0
 254 187 235 184 217 176 c 0
 199 168 182 158 168 144 c 0
 154 130 144 113 136 95 c 0
 128 77 125 58 125 38 c 1
 50 38 l 1
 50 67 56 97 67 124 c 0
 78 151 95 175 116 196 c 0
 137 217 161 234 188 245 c 0
 215 256 245 262 274 262 c 0
 303 262 333 256 360 245 c 0
 387 234 412 217 433 196 c 0
 454 175 471 151 482 124 c 0
 493 97 499 67 499 38 c 1
125 156 m 1
 125 231 l 1
 145 231 164 234 182 242 c 0
 200 250 216 261 230 275 c 0
 244 289 255 305 263 323 c 0
 271 341 274 361 274 381 c 1
 349 381 l 1
 349 352 343 322 332 295 c 0
 321 268 304 243 283 222 c 0
 262 201 237 184 210 173 c 0
 183 162 154 156 125 156 c 1
499 38 m 0
 499 17 482 0 461 0 c 0
 440 0 424 17 424 38 c 0
 424 59 440 75 461 75 c 0
 482 75 499 59 499 38 c 0
349 381 m 0
 349 360 333 343 312 343 c 0
 291 343 274 360 274 381 c 0
 274 402 291 418 312 418 c 0
 333 418 349 402 349 381 c 0
EndSplineSet
Validated: 5
EndChar

StartChar: l
Encoding: 108 108 22
Width: 362
Flags: W
HStem: -0.5 75<199.136 308.802> 599.5 37.5<66.7891 108.211> 654.5 20G<77.1445 97.8555>
VStem: 50 75<148.637 670.802> 237.5 37.5<16.2891 57.7109>
LayerCount: 2
Fore
SplineSet
125 637 m 4
 125 616.2890625 108.2109375 599.5 87.5 599.5 c 4
 66.7890625 599.5 50 616.2890625 50 637 c 4
 50 657.7109375 66.7890625 674.5 87.5 674.5 c 4
 108.2109375 674.5 125 657.7109375 125 637 c 4
50 224.5 m 5
 50 637 l 5
 125 637 l 5
 124.985351562 224.5 l 5
 50 224.5 l 5
312.5 37 m 4
 312.5 16.2890625 295.7109375 -0.5 275 -0.5 c 4
 254.2890625 -0.5 237.5 16.2890625 237.5 37 c 4
 237.5 57.7109375 254.2890625 74.5 275 74.5 c 4
 295.7109375 74.5 312.5 57.7109375 312.5 37 c 4
275 -0.5 m 5
 215.327148438 -0.5 158.095703125 23.2060546875 115.900390625 65.400390625 c 4
 73.7060546875 107.59765625 50.001953125 164.827148438 50 224.5 c 5
 124.985351562 224.5 l 5
 124.985351562 184.712890625 140.7890625 146.555664062 168.923828125 118.423828125 c 4
 197.055664062 90.2890625 235.212890625 74.482421875 275 74.482421875 c 5
 275 -0.5 l 5
EndSplineSet
Validated: 5
EndChar

StartChar: m
Encoding: 109 109 23
Width: 550
Flags: W
HStem: 229.984 37.5<254.289 295.71> 374.999 29.9854<244.385 306.086>
VStem: 237.5 75<196.182 404.984>
LayerCount: 2
Fore
SplineSet
192.55859375 80.86328125 m 4
 192.55859375 60.1552734375 175.768554688 43.36328125 155.05859375 43.36328125 c 4
 134.34765625 43.36328125 117.55859375 60.1552734375 117.55859375 80.86328125 c 4
 117.55859375 101.57421875 134.34765625 118.36328125 155.05859375 118.36328125 c 4
 175.768554688 118.36328125 192.55859375 101.57421875 192.55859375 80.86328125 c 4
357.421875 80.86328125 m 4
 357.421875 101.57421875 374.208984375 118.36328125 394.921875 118.36328125 c 4
 415.631835938 118.36328125 432.421875 101.57421875 432.421875 80.86328125 c 4
 432.421875 60.1552734375 415.631835938 43.36328125 394.921875 43.36328125 c 4
 374.208984375 43.36328125 357.421875 60.1552734375 357.421875 80.86328125 c 4
130.983398438 52.11328125 m 5
 95.431640625 81.732421875 69.875 121.590820312 57.7978515625 166.258789062 c 4
 45.72265625 210.9296875 47.7099609375 258.234375 63.4931640625 301.732421875 c 4
 79.27734375 345.228515625 108.087890625 382.801757812 145.998046875 409.33203125 c 4
 183.911132812 435.861328125 229.08203125 450.057617188 275.353515625 449.984375 c 4
 321.625976562 449.9140625 366.75 435.575195312 404.580078125 408.927734375 c 4
 442.407226562 382.27734375 471.100585938 344.61328125 486.748046875 301.06640625 c 4
 502.392578125 257.521484375 504.233398438 210.208984375 492.013671875 165.578125 c 4
 479.796875 120.946289062 454.118164062 81.16796875 418.471679688 51.662109375 c 5
 370.65625 109.427734375 l 5
 394.420898438 129.09765625 411.544921875 155.619140625 419.689453125 185.376953125 c 4
 427.833984375 215.1328125 426.608398438 246.67578125 416.176757812 275.711914062 c 4
 405.744140625 304.745117188 386.616210938 329.857421875 361.393554688 347.623046875 c 4
 336.171875 365.389648438 306.0859375 374.950195312 275.234375 374.999023438 c 4
 244.384765625 375.047851562 214.267578125 365.58203125 188.991210938 347.89453125 c 4
 163.715820312 330.20703125 144.506835938 305.155273438 133.984375 276.154296875 c 4
 123.458984375 247.15234375 122.133789062 215.611328125 130.185546875 185.83203125 c 4
 138.239257812 156.048828125 155.278320312 129.474609375 178.981445312 109.725585938 c 5
 130.983398438 52.11328125 l 5
312.5 229.984375 m 4
 312.5 209.2734375 295.709960938 192.484375 275 192.484375 c 4
 254.2890625 192.484375 237.5 209.2734375 237.5 229.984375 c 4
 237.5 250.6953125 254.2890625 267.484375 275 267.484375 c 4
 295.709960938 267.484375 312.5 250.6953125 312.5 229.984375 c 4
237.5 229.984375 m 5
 237.5 404.984375 l 5
 312.5 404.984375 l 5
 312.5 229.984375 l 5
 237.5 229.984375 l 5
EndSplineSet
Validated: 37
EndChar

StartChar: o
Encoding: 111 111 24
Width: 550
Flags: W
HStem: 0 75<197.428 352.572> 375 75<197.428 352.572>
VStem: 50 75<147.428 302.572> 425 75<147.428 302.572>
LayerCount: 2
Fore
SplineSet
125 225 m 4
 125 307.866210938 192.133789062 375 275 375 c 4
 357.866210938 375 425 307.866210938 425 225 c 4
 425 142.133789062 357.866210938 75 275 75 c 4
 192.133789062 75 125 142.133789062 125 225 c 4
50 225 m 0
 50 100.76171875 150.76171875 0 275 0 c 0
 399.23828125 0 500 100.76171875 500 225 c 0
 500 349.23828125 399.23828125 450 275 450 c 0
 150.76171875 450 50 349.23828125 50 225 c 0
EndSplineSet
Validated: 9
EndChar

StartChar: n
Encoding: 110 110 25
Width: 550
Flags: W
HStem: 374.998 74.9883<197.453 351.254>
LayerCount: 2
Fore
SplineSet
192.55859375 80.865234375 m 4
 192.55859375 60.154296875 175.768554688 43.365234375 155.05859375 43.365234375 c 4
 134.34765625 43.365234375 117.55859375 60.154296875 117.55859375 80.865234375 c 4
 117.55859375 101.576171875 134.34765625 118.365234375 155.05859375 118.365234375 c 4
 175.768554688 118.365234375 192.55859375 101.576171875 192.55859375 80.865234375 c 4
357.421875 80.865234375 m 4
 357.421875 101.576171875 374.208984375 118.365234375 394.921875 118.365234375 c 4
 415.631835938 118.365234375 432.421875 101.576171875 432.421875 80.865234375 c 4
 432.421875 60.154296875 415.631835938 43.365234375 394.921875 43.365234375 c 4
 374.208984375 43.365234375 357.421875 60.154296875 357.421875 80.865234375 c 4
130.983398438 52.115234375 m 5
 95.431640625 81.734375 69.875 121.58984375 57.7978515625 166.260742188 c 4
 45.72265625 210.928710938 47.7099609375 258.236328125 63.4931640625 301.732421875 c 4
 79.27734375 345.23046875 108.087890625 382.803710938 145.998046875 409.333984375 c 4
 183.911132812 435.86328125 229.08203125 450.059570312 275.353515625 449.986328125 c 4
 321.625976562 449.913085938 366.75 435.577148438 404.580078125 408.926757812 c 4
 442.407226562 382.279296875 471.100585938 344.615234375 486.748046875 301.068359375 c 4
 502.392578125 257.520507812 504.233398438 210.208984375 492.013671875 165.580078125 c 4
 479.796875 120.948242188 454.118164062 81.16796875 418.471679688 51.6640625 c 5
 370.65625 109.4296875 l 5
 394.420898438 129.102539062 411.544921875 155.62109375 419.689453125 185.37890625 c 4
 427.833984375 215.134765625 426.608398438 246.677734375 416.176757812 275.7109375 c 4
 405.744140625 304.744140625 386.616210938 329.857421875 361.393554688 347.625 c 4
 336.171875 365.391601562 306.0859375 374.952148438 275.234375 374.998046875 c 4
 244.384765625 375.046875 214.267578125 365.583984375 188.991210938 347.896484375 c 4
 163.715820312 330.208984375 144.506835938 305.157226562 133.984375 276.15625 c 4
 123.458984375 247.154296875 122.133789062 215.61328125 130.185546875 185.831054688 c 4
 138.239257812 156.05078125 155.278320312 129.4765625 178.981445312 109.73046875 c 5
 130.983398438 52.115234375 l 5
EndSplineSet
Validated: 37
EndChar

StartChar: p
Encoding: 112 112 26
Width: 550
Flags: W
HStem: -188 37.5<66.7891 108.211> -0.5 75<197.428 352.572> 374.5 75<197.428 352.572>
VStem: 50 75<-221.802 302.072> 425 75<146.928 302.072>
LayerCount: 2
Fore
SplineSet
275 374.5 m 4
 192.158203125 374.5 125 307.341796875 125 224.5 c 4
 125 141.658203125 192.158203125 74.5 275 74.5 c 4
 357.841796875 74.5 425 141.658203125 425 224.5 c 4
 425 307.341796875 357.841796875 374.5 275 374.5 c 4
275 449.5 m 4
 399.265625 449.5 500 348.765625 500 224.5 c 4
 500 100.234375 399.265625 -0.5 275 -0.5 c 4
 150.734375 -0.5 50 100.234375 50 224.5 c 4
 50 348.765625 150.734375 449.5 275 449.5 c 4
50 -188 m 5
 50 224.5 l 5
 125 224.5 l 5
 125 -188 l 5
 50 -188 l 5
125 -188 m 4
 125 -208.7109375 108.2109375 -225.5 87.5 -225.5 c 4
 66.7890625 -225.5 50 -208.7109375 50 -188 c 4
 50 -167.2890625 66.7890625 -150.5 87.5 -150.5 c 4
 108.2109375 -150.5 125 -167.2890625 125 -188 c 4
EndSplineSet
Validated: 5
EndChar

StartChar: q
Encoding: 113 113 27
Width: 550
Flags: W
HStem: -188 37.5<441.789 483.211> -0.5 75<197.428 352.572> 374.5 75<197.428 352.572>
VStem: 50 75<146.928 302.072> 425 75<-221.802 302.072>
LayerCount: 2
Fore
SplineSet
275 374.5 m 4
 192.158203125 374.5 125 307.341796875 125 224.5 c 4
 125 141.658203125 192.158203125 74.5 275 74.5 c 4
 357.841796875 74.5 425 141.658203125 425 224.5 c 4
 425 307.341796875 357.841796875 374.5 275 374.5 c 4
275 449.5 m 4
 399.265625 449.5 500 348.765625 500 224.5 c 4
 500 100.234375 399.265625 -0.5 275 -0.5 c 4
 150.734375 -0.5 50 100.234375 50 224.5 c 4
 50 348.765625 150.734375 449.5 275 449.5 c 4
500 -188 m 5
 425 -188 l 5
 425 224.5 l 5
 500 224.5 l 5
 500 -188 l 5
425 -188 m 4
 425 -167.2890625 441.7890625 -150.5 462.5 -150.5 c 4
 483.2109375 -150.5 500 -167.2890625 500 -188 c 4
 500 -208.7109375 483.2109375 -225.5 462.5 -225.5 c 4
 441.7890625 -225.5 425 -208.7109375 425 -188 c 4
EndSplineSet
Validated: 5
EndChar

StartChar: r
Encoding: 114 114 28
Width: 506
Flags: W
HStem: -0.616211 21G<77.1445 97.8545> -0.616211 21G<77.1445 97.8545> 36.8838 37.5<66.7891 108.209>
VStem: 50 75<3.08182 302.168>
LayerCount: 2
Fore
SplineSet
50 224.383789062 m 5x30
 50.001953125 270.680664062 64.28125 315.848632812 90.8984375 353.732421875 c 4
 117.51171875 391.61328125 155.162109375 420.36328125 198.716796875 436.05859375 c 4
 242.271484375 451.754882812 289.609375 453.631835938 334.26953125 441.4375 c 4
 378.931640625 429.2421875 418.744140625 403.56640625 448.275390625 367.9140625 c 5
 390.529296875 320.080078125 l 5
 370.83984375 343.8515625 344.29296875 360.970703125 314.515625 369.103515625 c 4
 284.740234375 377.233398438 253.1796875 375.98046875 224.140625 365.516601562 c 4
 195.099609375 355.05078125 169.99609375 335.8828125 152.25 310.624023438 c 4
 134.505859375 285.368164062 124.984375 255.250976562 124.984375 224.383789062 c 5
 50 224.383789062 l 5x30
456.67578125 344.2421875 m 4
 456.67578125 323.532226562 439.88671875 306.7421875 419.17578125 306.7421875 c 4
 398.466796875 306.7421875 381.67578125 323.532226562 381.67578125 344.2421875 c 4
 381.67578125 364.955078125 398.466796875 381.7421875 419.17578125 381.7421875 c 4
 439.88671875 381.7421875 456.67578125 364.955078125 456.67578125 344.2421875 c 4
125 36.8837890625 m 4
 125 16.173828125 108.208984375 -0.6162109375 87.5 -0.6162109375 c 4xb0
 66.7890625 -0.6162109375 50 16.173828125 50 36.8837890625 c 4
 50 57.5947265625 66.7890625 74.3837890625 87.5 74.3837890625 c 4
 108.208984375 74.3837890625 125 57.5947265625 125 36.8837890625 c 4
50 224.383789062 m 5
 125 224.383789062 l 5
 125 36.8837890625 l 5
 50 36.8837890625 l 5
 50 224.383789062 l 5
EndSplineSet
Validated: 37
EndChar

StartChar: s
Encoding: 115 115 29
Width: 506
Flags: W
HStem: 0.25 74.9121<175.863 330.488> 187.501 75<127.229 379.038> 374.84 74.9092<175.778 330.403>
VStem: 50.0801 74.9434<264.436 310.536> 155.637 0.613281<187.501 262.501> 215.629 75.0078<204.29 245.711> 350.016 0.613281<187.501 262.501> 381.242 74.9434<139.468 185.567>
LayerCount: 2
Fore
SplineSet
290.63671875 225.000976562 m 4
 290.63671875 204.290039062 273.84765625 187.500976562 253.13671875 187.500976562 c 4
 232.42578125 187.500976562 215.63671875 204.290039062 215.63671875 225.000976562 c 4
 215.63671875 245.7109375 232.42578125 262.500976562 253.13671875 262.500976562 c 4
 273.84765625 262.500976562 290.63671875 245.7109375 290.63671875 225.000976562 c 4
156.25 187.500976562 m 5
 137.130859375 187.500976562 118.365234375 192.659179688 101.935546875 202.432617188 c 4
 85.501953125 212.205078125 72.013671875 226.231445312 62.88671875 243.030273438 c 4
 53.759765625 259.830078125 49.3359375 278.780273438 50.080078125 297.881835938 c 4
 50.822265625 316.985351562 56.705078125 335.53515625 67.111328125 351.575195312 c 5
 130.033203125 310.7578125 l 6
 126.974609375 306.041015625 125.244140625 300.583984375 125.0234375 294.966796875 c 4
 124.806640625 289.346679688 126.107421875 283.775390625 128.791015625 278.833984375 c 4
 131.474609375 273.892578125 135.44140625 269.768554688 140.275390625 266.892578125 c 4
 145.107421875 264.01953125 150.626953125 262.502929688 156.25 262.502929688 c 5
 156.25 187.500976562 l 5
435.166015625 344.44921875 m 4
 435.166015625 323.73828125 418.375 306.94921875 397.666015625 306.94921875 c 4
 376.955078125 306.94921875 360.166015625 323.73828125 360.166015625 344.44921875 c 4
 360.166015625 365.159179688 376.955078125 381.94921875 397.666015625 381.94921875 c 4
 418.375 381.94921875 435.166015625 365.159179688 435.166015625 344.44921875 c 4
67.109375 351.568359375 m 5
 86.732421875 380.411132812 112.796875 404.294921875 143.236328125 421.3359375 c 4
 173.677734375 438.375 207.66796875 448.103515625 242.513671875 449.749023438 c 4
 277.36328125 451.397460938 312.11328125 444.91796875 344.02734375 430.826171875 c 4
 375.94140625 416.731445312 404.140625 395.413085938 426.396484375 368.547851562 c 5
 368.6484375 320.704101562 l 5
 353.810546875 338.614257812 335.009765625 352.828125 313.734375 362.224609375 c 4
 292.45703125 371.619140625 269.287109375 375.938476562 246.0546875 374.83984375 c 4
 222.822265625 373.743164062 200.162109375 367.256835938 179.8671875 355.896484375 c 4
 159.572265625 344.537109375 142.197265625 328.611328125 129.11328125 309.3828125 c 5
 67.109375 351.568359375 l 5
155.63671875 262.500976562 m 5
 253.13671875 262.500976562 l 5
 253.13671875 187.500976562 l 5
 155.63671875 187.500976562 l 5
 155.63671875 262.500976562 l 5
215.62890625 225.000976562 m 4
 215.62890625 245.7109375 232.41796875 262.500976562 253.12890625 262.500976562 c 4
 273.83984375 262.500976562 290.62890625 245.7109375 290.62890625 225.000976562 c 4
 290.62890625 204.290039062 273.83984375 187.500976562 253.12890625 187.500976562 c 4
 232.41796875 187.500976562 215.62890625 204.290039062 215.62890625 225.000976562 c 4
350.015625 262.500976562 m 5
 369.13671875 262.500976562 387.900390625 257.341796875 404.330078125 247.569335938 c 4
 420.76171875 237.795898438 434.251953125 223.770507812 443.37890625 206.970703125 c 4
 452.505859375 190.173828125 456.9296875 171.223632812 456.185546875 152.1171875 c 4
 455.443359375 133.015625 449.560546875 114.465820312 439.154296875 98.42578125 c 5
 376.232421875 139.24609375 l 5
 379.291015625 143.9609375 381.025390625 149.416992188 381.2421875 155.03515625 c 4
 381.4609375 160.65234375 380.158203125 166.228515625 377.474609375 171.16796875 c 4
 374.791015625 176.109375 370.82421875 180.232421875 365.990234375 183.108398438 c 4
 361.158203125 185.979492188 355.638671875 187.498046875 350.015625 187.498046875 c 5
 350.015625 262.500976562 l 5
71.099609375 105.552734375 m 4
 71.099609375 126.262695312 87.890625 143.052734375 108.599609375 143.052734375 c 4
 129.310546875 143.052734375 146.099609375 126.262695312 146.099609375 105.552734375 c 4
 146.099609375 84.83984375 129.310546875 68.052734375 108.599609375 68.052734375 c 4
 87.890625 68.052734375 71.099609375 84.83984375 71.099609375 105.552734375 c 4
439.15625 98.435546875 m 5
 419.53125 69.5908203125 393.46875 45.7060546875 363.029296875 28.6650390625 c 4
 332.587890625 11.626953125 298.59765625 1.8974609375 263.751953125 0.25 c 4
 228.90234375 -1.3935546875 194.15234375 5.083984375 162.23828125 19.17578125 c 4
 130.32421875 33.267578125 102.125 54.587890625 79.869140625 81.453125 c 5
 137.6171875 129.297851562 l 5
 152.455078125 111.387695312 171.255859375 97.173828125 192.53125 87.779296875 c 4
 213.80859375 78.3818359375 236.978515625 74.0634765625 260.2109375 75.162109375 c 4
 283.443359375 76.2578125 306.103515625 82.7421875 326.3984375 94.1044921875 c 4
 346.693359375 105.46484375 364.068359375 121.387695312 377.154296875 140.618164062 c 5
 439.15625 98.435546875 l 5
350.62890625 187.500976562 m 5
 253.12890625 187.500976562 l 5
 253.12890625 262.500976562 l 5
 350.62890625 262.500976562 l 5
 350.62890625 187.500976562 l 5
EndSplineSet
Validated: 37
EndChar

StartChar: t
Encoding: 116 116 30
Width: 362
Flags: W
HStem: 0.493164 75<197.921 308.802> 375.503 75<125 271.302> 600.503 37.5<66.7891 108.211>
VStem: 50 75<148.425 375.503 450.503 671.805> 200 37.5<392.293 433.713> 237.5 37.5<17.2803 58.7031>
LayerCount: 2
Fore
SplineSet
312.5 37.9931640625 m 0xf4
 312.5 17.2802734375 295.7109375 0.4931640625 275 0.4931640625 c 0
 254.2890625 0.4931640625 237.5 17.2802734375 237.5 37.9931640625 c 0
 237.5 58.703125 254.2890625 75.4931640625 275 75.4931640625 c 0
 295.7109375 75.4931640625 312.5 58.703125 312.5 37.9931640625 c 0xf4
125 638.002929688 m 0
 125 617.29296875 108.2109375 600.502929688 87.5 600.502929688 c 0
 66.7890625 600.502929688 50 617.29296875 50 638.002929688 c 0
 50 658.712890625 66.7890625 675.502929688 87.5 675.502929688 c 0
 108.2109375 675.502929688 125 658.712890625 125 638.002929688 c 0
50 225.502929688 m 1
 50 638.002929688 l 1
 125 638.002929688 l 1
 125 375.502929688 l 1
 124.985351562 225.502929688 l 1
 50 225.502929688 l 1
125 375.502929688 m 1
 120 450.502929688 l 1
 237.5 450.502929688 l 1
 237.5 375.502929688 l 1
 125 375.502929688 l 1
275 413.002929688 m 0
 275 392.29296875 258.2109375 375.502929688 237.5 375.502929688 c 0xf4
 216.7890625 375.502929688 200 392.29296875 200 413.002929688 c 0xf8
 200 433.712890625 216.7890625 450.502929688 237.5 450.502929688 c 0
 258.2109375 450.502929688 275 433.712890625 275 413.002929688 c 0
275 0.5029296875 m 1
 245.451171875 0.5029296875 216.193359375 6.3232421875 188.896484375 17.62890625 c 0
 161.599609375 28.9375 136.794921875 45.509765625 115.900390625 66.404296875 c 0
 95.0078125 87.296875 78.435546875 112.099609375 67.126953125 139.399414062 c 0
 55.8203125 166.697265625 50 195.955078125 50 225.502929688 c 1
 124.9921875 225.502929688 l 1
 124.9921875 205.802734375 128.872070312 186.298828125 136.411132812 168.09765625 c 0
 143.950195312 149.897460938 155 133.359375 168.927734375 119.43359375 c 0
 182.859375 105.502929688 199.39453125 94.453125 217.595703125 86.9140625 c 0
 235.79296875 79.375 255.30078125 75.49609375 275 75.49609375 c 1
 275 0.5029296875 l 1
EndSplineSet
Validated: 5
EndChar

StartChar: u
Encoding: 117 117 31
Width: 550
Flags: W
HStem: 0.0136719 74.9883<197.453 351.254> 386.635 20G<144.703 165.414 384.565 405.277>
LayerCount: 2
Fore
SplineSet
192.55859375 369.134765625 m 4
 192.55859375 348.423828125 175.768554688 331.634765625 155.05859375 331.634765625 c 4
 134.34765625 331.634765625 117.55859375 348.423828125 117.55859375 369.134765625 c 4
 117.55859375 389.845703125 134.34765625 406.634765625 155.05859375 406.634765625 c 4
 175.768554688 406.634765625 192.55859375 389.845703125 192.55859375 369.134765625 c 4
357.421875 369.134765625 m 4
 357.421875 389.845703125 374.208984375 406.634765625 394.921875 406.634765625 c 4
 415.631835938 406.634765625 432.421875 389.845703125 432.421875 369.134765625 c 4
 432.421875 348.423828125 415.631835938 331.634765625 394.921875 331.634765625 c 4
 374.208984375 331.634765625 357.421875 348.423828125 357.421875 369.134765625 c 4
130.983398438 397.884765625 m 5
 178.981445312 340.26953125 l 5
 155.278320312 320.5234375 138.239257812 293.94921875 130.185546875 264.166015625 c 4
 122.133789062 234.38671875 123.458984375 202.845703125 133.984375 173.846679688 c 4
 144.506835938 144.842773438 163.715820312 119.793945312 188.991210938 102.103515625 c 4
 214.267578125 84.416015625 244.384765625 74.9501953125 275.234375 75.001953125 c 4
 306.0859375 75.0478515625 336.171875 84.6083984375 361.393554688 102.376953125 c 4
 386.616210938 120.142578125 405.744140625 145.252929688 416.176757812 174.2890625 c 4
 426.608398438 203.322265625 427.833984375 234.865234375 419.689453125 264.623046875 c 4
 411.544921875 294.37890625 394.420898438 320.900390625 370.65625 340.572265625 c 5
 418.471679688 398.3359375 l 5
 454.118164062 368.830078125 479.796875 329.051757812 492.013671875 284.419921875 c 4
 504.233398438 239.791015625 502.392578125 192.479492188 486.748046875 148.931640625 c 4
 471.100585938 105.38671875 442.407226562 67.720703125 404.580078125 41.0732421875 c 4
 366.75 14.4228515625 321.625976562 0.0869140625 275.353515625 0.013671875 c 4
 229.08203125 -0.0595703125 183.911132812 14.13671875 145.998046875 40.666015625 c 4
 108.087890625 67.1962890625 79.27734375 104.76953125 63.4931640625 148.265625 c 4
 47.7099609375 191.766601562 45.72265625 239.071289062 57.7978515625 283.739257812 c 4
 69.875 328.407226562 95.431640625 368.267578125 130.983398438 397.884765625 c 5
EndSplineSet
Validated: 37
EndChar

StartChar: v
Encoding: 118 118 32
Width: 528
Flags: W
HStem: 0.00585938 75<232.609 274.03> 0.00585938 21G<253.32 276.444> 386.627 20.0254G<77.1445 97.855 362.908 383.617>
VStem: 253.32 37.5<16.7959 69.5769>
LayerCount: 2
Fore
SplineSet
253.3203125 0.005859375 m 5xb0
 253.3203125 74.9921875 l 5
 284.155273438 74.9921875 314.240234375 84.494140625 339.482421875 102.203125 c 4
 364.723632812 119.9140625 383.896484375 144.974609375 394.384765625 173.96875 c 4
 404.877929688 202.96484375 406.176757812 234.48828125 398.110351562 264.25 c 4
 390.045898438 294.009765625 373.002929688 320.5625 349.303710938 340.294921875 c 5
 397.28515625 397.918945312 l 5
 432.827148438 368.329101562 458.385742188 328.501953125 470.485351562 283.866210938 c 4
 482.583007812 239.227539062 480.631835938 191.947265625 464.897460938 148.458984375 c 4
 449.165039062 104.969726562 420.41015625 67.384765625 382.553710938 40.822265625 c 4
 344.692382812 14.259765625 299.567382812 0.005859375 253.3203125 0.005859375 c 5xb0
335.76171875 369.126953125 m 4
 335.76171875 389.837890625 352.553710938 406.626953125 373.26171875 406.626953125 c 4
 393.971679688 406.626953125 410.76171875 389.837890625 410.76171875 369.126953125 c 4
 410.76171875 348.416992188 393.971679688 331.626953125 373.26171875 331.626953125 c 4
 352.553710938 331.626953125 335.76171875 348.416992188 335.76171875 369.126953125 c 4
215.8203125 37.505859375 m 4
 215.8203125 58.216796875 232.609375 75.005859375 253.3203125 75.005859375 c 4
 274.030273438 75.005859375 290.8203125 58.216796875 290.8203125 37.505859375 c 4
 290.8203125 16.7958984375 274.030273438 0.005859375 253.3203125 0.005859375 c 4
 232.609375 0.005859375 215.8203125 16.7958984375 215.8203125 37.505859375 c 4
121.040039062 385.919921875 m 5
 289.396484375 49.1328125 l 5
 222.311523438 15.5947265625 l 5
 53.955078125 352.384765625 l 5
 121.040039062 385.919921875 l 5
50 369.15234375 m 4
 50 389.862304688 66.7890625 406.65234375 87.5 406.65234375 c 4
 108.209960938 406.65234375 125 389.862304688 125 369.15234375 c 4
 125 348.44140625 108.209960938 331.65234375 87.5 331.65234375 c 4
 66.7890625 331.65234375 50 348.44140625 50 369.15234375 c 4
EndSplineSet
Validated: 37
EndChar

StartChar: w
Encoding: 119 119 33
Width: 550
Flags: W
HStem: 45.0137 29.9883<244.385 306.086> 182.514 37.5<254.289 295.71> 386.635 20G<144.703 165.414 384.565 405.277>
VStem: 237.5 75<45.0137 253.816>
LayerCount: 2
Fore
SplineSet
192.55859375 369.134765625 m 0
 192.55859375 348.423828125 175.768554688 331.634765625 155.05859375 331.634765625 c 0
 134.34765625 331.634765625 117.55859375 348.423828125 117.55859375 369.134765625 c 0
 117.55859375 389.845703125 134.34765625 406.634765625 155.05859375 406.634765625 c 0
 175.768554688 406.634765625 192.55859375 389.845703125 192.55859375 369.134765625 c 0
357.421875 369.134765625 m 0
 357.421875 389.845703125 374.208984375 406.634765625 394.921875 406.634765625 c 0
 415.631835938 406.634765625 432.421875 389.845703125 432.421875 369.134765625 c 0
 432.421875 348.423828125 415.631835938 331.634765625 394.921875 331.634765625 c 0
 374.208984375 331.634765625 357.421875 348.423828125 357.421875 369.134765625 c 0
130.983398438 397.884765625 m 1
 178.981445312 340.26953125 l 1
 155.278320312 320.5234375 138.239257812 293.94921875 130.185546875 264.166015625 c 0
 122.133789062 234.38671875 123.458984375 202.845703125 133.984375 173.846679688 c 0
 144.506835938 144.842773438 163.715820312 119.793945312 188.991210938 102.103515625 c 0
 214.267578125 84.416015625 244.384765625 74.9501953125 275.234375 75.001953125 c 0
 306.0859375 75.0478515625 336.171875 84.6083984375 361.393554688 102.376953125 c 0
 386.616210938 120.142578125 405.744140625 145.252929688 416.176757812 174.2890625 c 0
 426.608398438 203.322265625 427.833984375 234.865234375 419.689453125 264.623046875 c 0
 411.544921875 294.37890625 394.420898438 320.900390625 370.65625 340.572265625 c 1
 418.471679688 398.3359375 l 1
 454.118164062 368.830078125 479.796875 329.051757812 492.013671875 284.419921875 c 0
 504.233398438 239.791015625 502.392578125 192.479492188 486.748046875 148.931640625 c 0
 471.100585938 105.38671875 442.407226562 67.720703125 404.580078125 41.0732421875 c 0
 366.75 14.4228515625 321.625976562 0.0869140625 275.353515625 0.013671875 c 0
 229.08203125 -0.0595703125 183.911132812 14.13671875 145.998046875 40.666015625 c 0
 108.087890625 67.1962890625 79.27734375 104.76953125 63.4931640625 148.265625 c 0
 47.7099609375 191.763671875 45.72265625 239.071289062 57.7978515625 283.739257812 c 0
 69.875 328.407226562 95.431640625 368.267578125 130.983398438 397.884765625 c 1
312.5 220.013671875 m 0
 312.5 199.302734375 295.709960938 182.513671875 275 182.513671875 c 0
 254.2890625 182.513671875 237.5 199.302734375 237.5 220.013671875 c 0
 237.5 240.724609375 254.2890625 257.513671875 275 257.513671875 c 0
 295.709960938 257.513671875 312.5 240.724609375 312.5 220.013671875 c 0
237.5 220.013671875 m 1
 312.5 220.013671875 l 1
 312.5 45.013671875 l 1
 237.5 45.013671875 l 1
 237.5 220.013671875 l 1
EndSplineSet
Validated: 37
EndChar

StartChar: x
Encoding: 120 120 34
Width: 550
Flags: W
HStem: 0 21G<77.1445 97.8555 452.145 472.855> 0 21G<77.1445 97.8555 452.145 472.855> 37.5 37.5<66.7891 108.211 441.789 483.211> 187.49 75.0195<245.451 304.549> 375 37.5<66.7891 108.211 441.789 483.211> 430 20G<77.1445 97.8555 452.145 472.855>
VStem: 50 75<3.69786 114.579 335.421 446.302> 425 75<3.69786 114.579 335.421 446.302>
LayerCount: 2
Fore
SplineSet
125 412.5 m 0x3f
 125 391.7890625 108.2109375 375 87.5 375 c 0
 66.7890625 375 50 391.7890625 50 412.5 c 0
 50 433.2109375 66.7890625 450 87.5 450 c 0
 108.2109375 450 125 433.2109375 125 412.5 c 0x3f
500 412.5 m 0
 500 391.7890625 483.2109375 375 462.5 375 c 0
 441.7890625 375 425 391.7890625 425 412.5 c 0
 425 433.2109375 441.7890625 450 462.5 450 c 0
 483.2109375 450 500 433.2109375 500 412.5 c 0
125 37.5 m 0
 125 16.7890625 108.2109375 0 87.5 0 c 0xbf
 66.7890625 0 50 16.7890625 50 37.5 c 0
 50 58.2109375 66.7890625 75 87.5 75 c 0
 108.2109375 75 125 58.2109375 125 37.5 c 0
500 37.5 m 0
 500 16.7890625 483.2109375 0 462.5 0 c 0
 441.7890625 0 425 16.7890625 425 37.5 c 0
 425 58.2109375 441.7890625 75 462.5 75 c 0
 483.2109375 75 500 58.2109375 500 37.5 c 0
50 412.5 m 1
 125.009765625 412.5 l 1
 125.009765625 392.802734375 128.888671875 373.298828125 136.42578125 355.099609375 c 0
 143.96484375 336.904296875 155.01171875 320.369140625 168.940429688 306.440429688 c 0
 182.869140625 292.51171875 199.404296875 281.46484375 217.599609375 273.92578125 c 0
 235.798828125 266.388671875 255.302734375 262.509765625 275 262.509765625 c 0
 294.697265625 262.509765625 314.19921875 266.388671875 332.400390625 273.92578125 c 0
 350.59765625 281.46484375 367.130859375 292.51171875 381.059570312 306.440429688 c 0
 394.98828125 320.369140625 406.03515625 336.904296875 413.572265625 355.099609375 c 0
 421.111328125 373.298828125 424.990234375 392.802734375 424.990234375 412.5 c 1
 500 412.5 l 1
 500 382.951171875 494.1796875 353.693359375 482.873046875 326.396484375 c 0
 471.564453125 299.099609375 454.9921875 274.294921875 434.099609375 253.400390625 c 0
 413.205078125 232.5078125 388.403320312 215.935546875 361.10546875 204.626953125 c 0
 333.806640625 193.3203125 304.548828125 187.5 275 187.5 c 0
 245.451171875 187.5 216.193359375 193.3203125 188.896484375 204.626953125 c 0
 161.599609375 215.935546875 136.794921875 232.5078125 115.900390625 253.400390625 c 0
 95.0078125 274.294921875 78.435546875 299.099609375 67.126953125 326.396484375 c 0
 55.8203125 353.693359375 50 382.951171875 50 412.5 c 1
50 37.5 m 1
 50 67.048828125 55.8203125 96.306640625 67.126953125 123.603515625 c 0
 78.435546875 150.903320312 95.0078125 175.705078125 115.900390625 196.599609375 c 0
 136.794921875 217.4921875 161.599609375 234.064453125 188.896484375 245.373046875 c 0
 216.193359375 256.6796875 245.451171875 262.5 275 262.5 c 0
 304.548828125 262.5 333.806640625 256.6796875 361.10546875 245.373046875 c 0
 388.403320312 234.064453125 413.205078125 217.4921875 434.099609375 196.599609375 c 0
 454.9921875 175.705078125 471.564453125 150.903320312 482.873046875 123.603515625 c 0
 494.1796875 96.306640625 500 67.048828125 500 37.5 c 1
 424.990234375 37.5 l 1
 424.990234375 57.197265625 421.111328125 76.69921875 413.572265625 94.900390625 c 0
 406.03515625 113.09765625 394.98828125 129.630859375 381.059570312 143.559570312 c 0
 367.130859375 157.48828125 350.59765625 168.53515625 332.400390625 176.072265625 c 0
 314.19921875 183.611328125 294.697265625 187.490234375 275 187.490234375 c 0
 255.302734375 187.490234375 235.798828125 183.611328125 217.599609375 176.072265625 c 0
 199.404296875 168.53515625 182.869140625 157.48828125 168.940429688 143.559570312 c 0
 155.01171875 129.630859375 143.96484375 113.09765625 136.42578125 94.900390625 c 0
 128.888671875 76.69921875 125.009765625 57.197265625 125.009765625 37.5 c 1
 50 37.5 l 1
EndSplineSet
Validated: 5
EndChar

StartChar: y
Encoding: 121 121 35
Width: 550
Flags: W
HStem: -186.986 37.5<254.289 295.71> 0.513672 25<237.5 312.5> 387.135 20G<144.723 165.433 384.586 405.296>
VStem: 237.5 75<-220.788 25.5137>
LayerCount: 2
Fore
SplineSet
237.5 25.513671875 m 5
 312.5 25.513671875 l 5
 312.5 -186.986328125 l 5
 237.5 -186.986328125 l 5
 237.5 25.513671875 l 5
312.5 -186.986328125 m 4
 312.5 -207.697265625 295.709960938 -224.486328125 275 -224.486328125 c 4
 254.2890625 -224.486328125 237.5 -207.697265625 237.5 -186.986328125 c 4
 237.5 -166.275390625 254.2890625 -149.486328125 275 -149.486328125 c 4
 295.709960938 -149.486328125 312.5 -166.275390625 312.5 -186.986328125 c 4
357.44140625 369.634765625 m 4
 357.44140625 390.345703125 374.23046875 407.134765625 394.94140625 407.134765625 c 4
 415.651367188 407.134765625 432.44140625 390.345703125 432.44140625 369.634765625 c 4
 432.44140625 348.923828125 415.651367188 332.134765625 394.94140625 332.134765625 c 4
 374.23046875 332.134765625 357.44140625 348.923828125 357.44140625 369.634765625 c 4
192.578125 369.634765625 m 4
 192.578125 348.923828125 175.788085938 332.134765625 155.078125 332.134765625 c 4
 134.3671875 332.134765625 117.578125 348.923828125 117.578125 369.634765625 c 4
 117.578125 390.345703125 134.3671875 407.134765625 155.078125 407.134765625 c 4
 175.788085938 407.134765625 192.578125 390.345703125 192.578125 369.634765625 c 4
419.015625 398.384765625 m 5
 454.567382812 368.767578125 480.124023438 328.907226562 492.19921875 284.239257812 c 4
 504.27734375 239.571289062 502.290039062 192.263671875 486.505859375 148.765625 c 4
 470.72265625 105.26953125 441.911132812 67.6962890625 403.999023438 41.166015625 c 4
 366.088867188 14.63671875 320.919921875 0.4404296875 274.645507812 0.513671875 c 4
 228.374023438 0.5869140625 183.249023438 14.9228515625 145.419921875 41.5732421875 c 4
 107.592773438 68.220703125 78.9013671875 105.88671875 63.25390625 149.431640625 c 4
 47.607421875 192.979492188 45.7666015625 240.291015625 57.9833984375 284.919921875 c 4
 70.2021484375 329.551757812 95.8837890625 369.330078125 131.528320312 398.8359375 c 5
 179.342773438 341.072265625 l 5
 155.578125 321.400390625 138.45703125 294.87890625 130.309570312 265.123046875 c 4
 122.165039062 235.365234375 123.390625 203.822265625 133.823242188 174.7890625 c 4
 144.254882812 145.752929688 163.383789062 120.642578125 188.60546875 102.876953125 c 4
 213.828125 85.1083984375 243.913085938 75.5478515625 274.765625 75.501953125 c 4
 305.615234375 75.4501953125 335.732421875 84.916015625 361.0078125 102.603515625 c 4
 386.284179688 120.293945312 405.495117188 145.342773438 416.017578125 174.34375 c 4
 426.540039062 203.345703125 427.866210938 234.88671875 419.811523438 264.666015625 c 4
 411.762695312 294.44921875 394.721679688 321.0234375 371.020507812 340.76953125 c 5
 419.015625 398.384765625 l 5
EndSplineSet
Validated: 37
EndChar

StartChar: z
Encoding: 122 122 36
Width: 480
Flags: W
HStem: 0.182617 74.9316<163.794 318.827> 79.4082 75<53.698 121.302> 295.59 75<360.618 428.221> 374.885 74.9336<163.091 318.125>
LayerCount: 2
Fore
SplineSet
372.412109375 363.475585938 m 1
 415.603515625 302.16015625 l 1
 109.0234375 86.2099609375 l 1
 65.8330078125 147.526367188 l 1
 372.412109375 363.475585938 l 1
422.400390625 105.138671875 m 0
 422.400390625 84.4306640625 405.61328125 67.638671875 384.900390625 67.638671875 c 0
 364.189453125 67.638671875 347.400390625 84.4306640625 347.400390625 105.138671875 c 0
 347.400390625 125.848632812 364.189453125 142.638671875 384.900390625 142.638671875 c 0
 405.61328125 142.638671875 422.400390625 125.848632812 422.400390625 105.138671875 c 0
56.4580078125 95.853515625 m 1
 117.869140625 138.8984375 l 1
 131.119140625 119.997070312 148.55078125 104.40625 168.811523438 93.34375 c 0
 189.0703125 82.279296875 211.609375 76.0419921875 234.67578125 75.1142578125 c 0
 257.740234375 74.1865234375 280.706054688 78.595703125 301.790039062 87.9951171875 c 0
 322.874023438 97.39453125 341.501953125 111.532226562 356.2265625 129.30859375 c 1
 413.98046875 81.4716796875 l 1
 391.892578125 54.806640625 363.951171875 33.6005859375 332.327148438 19.4990234375 c 0
 300.706054688 5.3994140625 266.255859375 -1.2119140625 231.66015625 0.1826171875 c 0
 197.063476562 1.5712890625 163.2578125 10.9296875 132.869140625 27.5234375 c 0
 102.48046875 44.1201171875 76.3310546875 67.501953125 56.4580078125 95.853515625 c 1
125 116.908203125 m 0
 125 96.2001953125 108.2109375 79.408203125 87.5 79.408203125 c 0
 66.7900390625 79.408203125 50 96.2001953125 50 116.908203125 c 0
 50 137.619140625 66.7900390625 154.408203125 87.5 154.408203125 c 0
 108.2109375 154.408203125 125 137.619140625 125 116.908203125 c 0
59.517578125 344.857421875 m 0
 59.517578125 365.5703125 76.306640625 382.357421875 97.017578125 382.357421875 c 0
 117.727539062 382.357421875 134.517578125 365.5703125 134.517578125 344.857421875 c 0
 134.517578125 324.147460938 117.727539062 307.357421875 97.017578125 307.357421875 c 0
 76.306640625 307.357421875 59.517578125 324.147460938 59.517578125 344.857421875 c 0
425.461914062 354.14453125 m 1
 364.05078125 311.100585938 l 1
 350.80078125 330.001953125 333.3671875 345.592773438 313.108398438 356.654296875 c 0
 292.849609375 367.71875 270.310546875 373.95703125 247.244140625 374.884765625 c 0
 224.1796875 375.8125 201.2109375 371.405273438 180.129882812 362.00390625 c 0
 159.045898438 352.604492188 140.41796875 338.465820312 125.69140625 320.690429688 c 1
 67.939453125 368.52734375 l 1
 90.025390625 395.192382812 117.966796875 416.3984375 149.58984375 430.5 c 0
 181.213867188 444.598632812 215.6640625 451.209960938 250.259765625 449.818359375 c 0
 284.853515625 448.424804688 318.662109375 439.069335938 349.05078125 422.474609375 c 0
 379.439453125 405.880859375 405.588867188 382.497070312 425.461914062 354.14453125 c 1
356.919921875 333.08984375 m 0
 356.919921875 353.80078125 373.708984375 370.58984375 394.419921875 370.58984375 c 0
 415.126953125 370.58984375 431.919921875 353.80078125 431.919921875 333.08984375 c 0
 431.919921875 312.379882812 415.126953125 295.58984375 394.419921875 295.58984375 c 0
 373.708984375 295.58984375 356.919921875 312.379882812 356.919921875 333.08984375 c 0
EndSplineSet
Validated: 37
EndChar

StartChar: K
Encoding: 75 75 37
Width: 550
Flags: W
HStem: -0.5 21G<77.145 97.8555 436.497 457.208> -0.5 21G<77.145 97.8555 436.497 457.208> 654.5 20G<77.145 97.8555>
VStem: 50 75<3.19786 112 280.813 670.802> 424.917 74.9395<75.1446 190.128>
LayerCount: 2
Fore
SplineSet
50 637 m 6xb8
 50 657.7109375 66.7900390625 674.5 87.5 674.5 c 4
 108.2109375 674.5 125 657.7109375 125 637 c 6
 125 37 l 6
 125 16.2890625 108.2109375 -0.5 87.5 -0.5 c 4
 66.7900390625 -0.5 50 16.2890625 50 37 c 6
 50 637 l 6xb8
50 112 m 5
 50 145.413085938 57.44140625 178.404296875 71.78515625 208.58203125 c 4
 86.1279296875 238.759765625 107.009765625 265.364257812 132.91796875 286.46484375 c 4
 158.826171875 307.561523438 189.109375 322.626953125 221.565429688 330.5625 c 4
 254.021484375 338.49609375 287.836914062 339.104492188 320.556640625 332.33984375 c 4
 353.276367188 325.57421875 384.08203125 311.607421875 410.73046875 291.451171875 c 4
 437.377929688 271.294921875 459.202148438 245.45703125 474.619140625 215.813476562 c 4
 490.034179688 186.169921875 498.655273438 153.46484375 499.856445312 120.076171875 c 4
 501.0546875 86.6826171875 494.802734375 53.4453125 481.55078125 22.771484375 c 5
 412.712890625 52.5078125 l 5
 421.547851562 72.958984375 425.717773438 95.1201171875 424.916992188 117.3828125 c 4
 424.119140625 139.64453125 418.369140625 161.451171875 408.09375 181.213867188 c 4
 397.8125 200.979492188 383.26171875 218.208984375 365.49609375 231.646484375 c 4
 347.727539062 245.083984375 327.190429688 254.39453125 305.375976562 258.90625 c 4
 283.559570312 263.41796875 261.013671875 263.013671875 239.373046875 257.72265625 c 4
 217.734375 252.431640625 197.543945312 242.388671875 180.271484375 228.3203125 c 4
 162.99609375 214.25390625 149.072265625 196.513671875 139.509765625 176.39453125 c 4
 129.946289062 156.275390625 124.985351562 134.27734375 124.985351562 112 c 5
 50 112 l 5
484.353515625 37 m 4
 484.353515625 16.2890625 467.563476562 -0.5 446.853515625 -0.5 c 4
 426.140625 -0.5 409.353515625 16.2890625 409.353515625 37 c 4
 409.353515625 57.7109375 426.140625 74.5 446.853515625 74.5 c 4
 467.563476562 74.5 484.353515625 57.7109375 484.353515625 37 c 4
433.284179688 660.56640625 m 6
 446.323242188 676.658203125 469.936523438 679.130859375 486.028320312 666.091796875 c 4
 502.1171875 653.052734375 504.58984375 629.439453125 491.552734375 613.34765625 c 6
 183.801757812 233.591796875 l 6
 170.76171875 217.502929688 147.146484375 215.029296875 131.057617188 228.06640625 c 4
 114.965820312 241.106445312 112.493164062 264.72265625 125.532226562 280.813476562 c 6
 433.284179688 660.56640625 l 6
EndSplineSet
Validated: 37
EndChar

StartChar: L
Encoding: 76 76 38
Width: 506
Flags: W
HStem: 600.116 37.5<66.7891 108.209> 655.116 20G<77.1445 97.8545>
VStem: 50 75<147.33 671.418>
LayerCount: 2
Fore
SplineSet
50 225.116210938 m 1
 124.984375 225.116210938 l 1
 124.984375 194.249023438 134.505859375 164.131835938 152.25 138.873046875 c 0
 169.99609375 113.619140625 195.099609375 94.44921875 224.140625 83.9833984375 c 0
 253.1796875 73.51953125 284.740234375 72.2666015625 314.515625 80.396484375 c 0
 344.29296875 88.529296875 370.83984375 105.645507812 390.529296875 129.41796875 c 1
 448.275390625 81.5859375 l 1
 418.744140625 45.93359375 378.931640625 20.2578125 334.26953125 8.0625 c 0
 289.609375 -4.134765625 242.271484375 -2.2548828125 198.716796875 13.44140625 c 0
 155.162109375 29.1396484375 117.51171875 57.88671875 90.8984375 95.767578125 c 0
 64.28125 133.651367188 50.001953125 178.819335938 50 225.116210938 c 1
456.67578125 105.254882812 m 0
 456.67578125 84.546875 439.88671875 67.7548828125 419.17578125 67.7548828125 c 0
 398.466796875 67.7548828125 381.67578125 84.546875 381.67578125 105.254882812 c 0
 381.67578125 125.965820312 398.466796875 142.754882812 419.17578125 142.754882812 c 0
 439.88671875 142.754882812 456.67578125 125.965820312 456.67578125 105.254882812 c 0
125 637.616210938 m 0
 125 616.905273438 108.208984375 600.116210938 87.5 600.116210938 c 0
 66.7890625 600.116210938 50 616.905273438 50 637.616210938 c 0
 50 658.326171875 66.7890625 675.116210938 87.5 675.116210938 c 0
 108.208984375 675.116210938 125 658.326171875 125 637.616210938 c 0
50 225.116210938 m 1
 50 637.616210938 l 1
 125 637.616210938 l 1
 125 375.116210938 l 1
 124.984375 225.116210938 l 1
 50 225.116210938 l 1
EndSplineSet
Validated: 37
EndChar

StartChar: M
Encoding: 77 77 39
Width: 550
Flags: W
HStem: -0.5 21G<77.1445 97.8555 452.145 472.855> -0.5 21G<77.1445 97.8555 452.145 472.855> 429.5 20G<50 125 425 500> 449.5 21G<50 124.992 425.008 500> 599.508 2.49219<255.301 294.699> 654.5 20G<260.226 289.774>
VStem: 50 75<3.19786 526.579> 237.5 75<115.698 602> 425 75<3.19786 526.579>
CounterMasks: 1 0380
LayerCount: 2
Fore
SplineSet
50 449.5 m 5x2f80
 50 479.048828125 55.8203125 508.306640625 67.126953125 535.603515625 c 4
 78.435546875 562.900390625 95.0078125 587.705078125 115.900390625 608.599609375 c 4
 136.794921875 629.4921875 161.599609375 646.064453125 188.896484375 657.373046875 c 4
 216.193359375 668.6796875 245.451171875 674.5 275 674.5 c 4
 304.548828125 674.5 333.806640625 668.6796875 361.10546875 657.373046875 c 4
 388.403320312 646.064453125 413.205078125 629.4921875 434.099609375 608.599609375 c 4
 454.9921875 587.705078125 471.564453125 562.900390625 482.873046875 535.603515625 c 4
 494.1796875 508.306640625 500 479.048828125 500 449.5 c 5
 425.0078125 449.5 l 5
 425.0078125 469.19921875 421.127929688 488.70703125 413.588867188 506.904296875 c 4
 406.049804688 525.10546875 395 541.640625 381.072265625 555.572265625 c 4
 367.143554688 569.5 350.60546875 580.549804688 332.404296875 588.088867188 c 4
 314.204101562 595.627929688 294.69921875 599.5078125 275 599.5078125 c 4
 255.30078125 599.5078125 235.79296875 595.627929688 217.595703125 588.088867188 c 4
 199.39453125 580.549804688 182.859375 569.5 168.927734375 555.572265625 c 4
 155 541.640625 143.950195312 525.10546875 136.411132812 506.904296875 c 4
 128.872070312 488.70703125 124.9921875 469.19921875 124.9921875 449.5 c 5
 50 449.5 l 5x2f80
50 449.5 m 5
 125 449.5 l 5
 125 37 l 6
 125 16.2890625 108.2109375 -0.5 87.5 -0.5 c 4xaf80
 66.7890625 -0.5 50 16.2890625 50 37 c 6
 50 449.5 l 5
237.5 602 m 5
 312.5 602 l 5
 312.5 149.5 l 6
 312.5 128.7890625 295.7109375 112 275 112 c 4
 254.2890625 112 237.5 128.7890625 237.5 149.5 c 6
 237.5 602 l 5
425 449.5 m 5
 500 449.5 l 5
 500 37 l 6
 500 16.2890625 483.2109375 -0.5 462.5 -0.5 c 4
 441.7890625 -0.5 425 16.2890625 425 37 c 6
 425 449.5 l 5
EndSplineSet
Validated: 5
EndChar

StartChar: N
Encoding: 78 78 40
Width: 550
Flags: W
HStem: -0.5 21G<77.1445 97.8555> -0.5 21G<77.1445 97.8555> 222 2.5<425.008 500> 449.5 2.5<50 124.992> 654.5 20G<452.145 472.855>
VStem: 50 75<3.19786 526.562> 179.549 75<607.119 648.543> 295.451 75<25.457 66.8809> 425 75<147.438 670.802>
LayerCount: 2
Fore
SplineSet
180.302734375 620.354492188 m 5x3f80
 253.857421875 635.009765625 l 5
 369.697265625 53.6455078125 l 5
 296.142578125 38.990234375 l 5
 180.302734375 620.354492188 l 5x3f80
254.548828125 627.830078125 m 4
 254.548828125 607.119140625 237.758789062 590.330078125 217.048828125 590.330078125 c 4
 196.337890625 590.330078125 179.548828125 607.119140625 179.548828125 627.830078125 c 4
 179.548828125 648.54296875 196.337890625 665.330078125 217.048828125 665.330078125 c 4
 237.758789062 665.330078125 254.548828125 648.54296875 254.548828125 627.830078125 c 4
50 449.5 m 5
 50 497.014648438 65.041015625 543.310546875 92.970703125 581.750976562 c 4
 120.900390625 620.193359375 160.28125 648.8046875 205.470703125 663.486328125 c 5
 228.64453125 592.166015625 l 5
 198.517578125 582.375976562 172.260742188 563.30078125 153.642578125 537.671875 c 4
 135.021484375 512.043945312 124.9921875 481.1796875 124.9921875 449.5 c 5
 50 449.5 l 5
50 452 m 5
 125 452 l 5
 125 37 l 6
 125 16.2890625 108.2109375 -0.5 87.5 -0.5 c 4xbf80
 66.7890625 -0.5 50 16.2890625 50 37 c 6
 50 452 l 5
295.451171875 46.169921875 m 4
 295.451171875 66.880859375 312.241210938 83.669921875 332.951171875 83.669921875 c 4
 353.662109375 83.669921875 370.451171875 66.880859375 370.451171875 46.169921875 c 4
 370.451171875 25.45703125 353.662109375 8.669921875 332.951171875 8.669921875 c 4
 312.241210938 8.669921875 295.451171875 25.45703125 295.451171875 46.169921875 c 4
500 224.5 m 5
 500 176.985351562 484.958984375 130.689453125 457.029296875 92.24609375 c 4
 429.099609375 53.806640625 389.716796875 25.1953125 344.529296875 10.513671875 c 5
 321.35546875 81.833984375 l 5
 351.482421875 91.62109375 377.736328125 110.701171875 396.357421875 136.328125 c 4
 414.98046875 161.956054688 425.0078125 192.822265625 425.0078125 224.5 c 5
 500 224.5 l 5
500 222 m 5
 425 222 l 5
 425 637 l 6
 425 657.7109375 441.7890625 674.5 462.5 674.5 c 4
 483.2109375 674.5 500 657.7109375 500 637 c 6
 500 222 l 5
EndSplineSet
Validated: 5
EndChar

StartChar: O
Encoding: 79 79 41
Width: 550
Flags: W
HStem: -0.5 74.9922<197.503 352.498> 223.25 1.25<50 124.992 425.008 500> 449.5 1.25<50 124.992 425.008 500> 599.508 74.9922<197.503 352.498>
VStem: 50 75<146.584 527.416> 425 75<146.584 527.416>
LayerCount: 2
Fore
SplineSet
124.9921875 449.5 m 5
 50 449.5 l 5
 50 475.078125 54.3603515625 500.439453125 62.869140625 524.5 c 4
 64.1875 528.232421875 65.607421875 531.936523438 67.126953125 535.603515625 c 4
 78.435546875 562.900390625 95.0078125 587.705078125 115.900390625 608.599609375 c 4
 136.794921875 629.4921875 161.599609375 646.064453125 188.896484375 657.373046875 c 4
 216.193359375 668.6796875 245.451171875 674.5 275 674.5 c 4
 304.548828125 674.5 333.806640625 668.6796875 361.10546875 657.373046875 c 4
 388.403320312 646.064453125 413.205078125 629.4921875 434.099609375 608.599609375 c 4
 454.9921875 587.705078125 471.564453125 562.900390625 482.873046875 535.603515625 c 4
 484.392578125 531.936523438 485.8125 528.232421875 487.130859375 524.5 c 4
 495.639648438 500.439453125 500 475.078125 500 449.5 c 5
 425.0078125 449.5 l 5
 425.0078125 469.19921875 421.127929688 488.70703125 413.588867188 506.904296875 c 4
 406.049804688 525.10546875 395.001953125 541.643554688 381.072265625 555.572265625 c 4
 367.143554688 569.501953125 350.60546875 580.549804688 332.404296875 588.088867188 c 4
 314.204101562 595.627929688 294.69921875 599.5078125 275 599.5078125 c 4
 255.30078125 599.5078125 235.79296875 595.627929688 217.595703125 588.088867188 c 4
 199.39453125 580.552734375 182.856445312 569.501953125 168.927734375 555.572265625 c 4
 154.998046875 541.643554688 143.947265625 525.10546875 136.411132812 506.904296875 c 4
 128.872070312 488.70703125 124.9921875 469.19921875 124.9921875 449.5 c 5
124.9921875 224.5 m 5
 124.9921875 204.80078125 128.872070312 185.295898438 136.411132812 167.095703125 c 4
 143.947265625 148.89453125 154.998046875 132.356445312 168.927734375 118.427734375 c 4
 182.856445312 104.498046875 199.39453125 93.4501953125 217.595703125 85.9111328125 c 4
 235.79296875 78.3720703125 255.30078125 74.4921875 275 74.4921875 c 4
 294.69921875 74.4921875 314.204101562 78.3720703125 332.404296875 85.9111328125 c 4
 350.60546875 93.4501953125 367.143554688 104.498046875 381.072265625 118.427734375 c 4
 395.001953125 132.356445312 406.049804688 148.89453125 413.588867188 167.095703125 c 4
 421.127929688 185.295898438 425.0078125 204.80078125 425.0078125 224.5 c 5
 500 224.5 l 5
 500 198.921875 495.639648438 173.560546875 487.130859375 149.5 c 4
 485.8125 145.764648438 484.392578125 142.063476562 482.873046875 138.396484375 c 4
 471.564453125 111.096679688 454.9921875 86.294921875 434.099609375 65.400390625 c 4
 413.205078125 44.5078125 388.403320312 27.935546875 361.10546875 16.626953125 c 4
 333.806640625 5.3203125 304.548828125 -0.5 275 -0.5 c 4
 245.451171875 -0.5 216.193359375 5.3203125 188.896484375 16.626953125 c 4
 161.599609375 27.935546875 136.794921875 44.5078125 115.900390625 65.400390625 c 4
 95.0078125 86.294921875 78.435546875 111.096679688 67.126953125 138.396484375 c 4
 65.607421875 142.063476562 64.1875 145.764648438 62.869140625 149.5 c 4
 54.3603515625 173.560546875 50 198.921875 50 224.5 c 5
 124.9921875 224.5 l 5
50 450.75 m 5
 125 450.75 l 5
 125 223.25 l 5
 50 223.25 l 5
 50 450.75 l 5
425 450.75 m 5
 500 450.75 l 5
 500 223.25 l 5
 425 223.25 l 5
 425 450.75 l 5
EndSplineSet
Validated: 5
EndChar

StartChar: P
Encoding: 80 80 42
Width: 550
Flags: W
HStem: -0.5 21G<77.1445 97.8555> -0.5 21G<77.1445 97.8555> 37 37.5<66.7891 108.211> 224.5 75<197.428 352.572> 429.5 20G<50 125> 599.5 75<197.428 352.572>
VStem: 50 75<3.19786 527.072> 425 75<371.928 527.072>
LayerCount: 2
Fore
SplineSet
275 599.5 m 4x3f
 192.158203125 599.5 125 532.341796875 125 449.5 c 4
 125 366.658203125 192.158203125 299.5 275 299.5 c 4
 357.841796875 299.5 425 366.658203125 425 449.5 c 4
 425 532.341796875 357.841796875 599.5 275 599.5 c 4x3f
275 674.5 m 4
 399.265625 674.5 500 573.765625 500 449.5 c 4
 500 325.234375 399.265625 224.5 275 224.5 c 4
 150.734375 224.5 50 325.234375 50 449.5 c 4
 50 573.765625 150.734375 674.5 275 674.5 c 4
50 37 m 5
 50 449.5 l 5
 125 449.5 l 5
 125 37 l 5
 50 37 l 5
125 37 m 4
 125 16.2890625 108.2109375 -0.5 87.5 -0.5 c 4xbf
 66.7890625 -0.5 50 16.2890625 50 37 c 4
 50 57.7109375 66.7890625 74.5 87.5 74.5 c 4
 108.2109375 74.5 125 57.7109375 125 37 c 4
EndSplineSet
Validated: 5
EndChar

StartChar: Q
Encoding: 81 81 43
Width: 550
Flags: W
HStem: -0.5 74.9922<197.503 362.069> 223.25 1.25<50 124.992 425.008 500> 449.5 1.25<50 124.992 425.008 500> 599.508 74.9922<197.503 352.498>
VStem: 50 75<146.584 527.416> 425 75<146.584 527.416>
LayerCount: 2
Fore
SplineSet
124.9921875 449.5 m 5
 50 449.5 l 5
 50 475.078125 54.3603515625 500.439453125 62.869140625 524.5 c 4
 64.1875 528.232421875 65.607421875 531.936523438 67.126953125 535.603515625 c 4
 78.435546875 562.900390625 95.0078125 587.705078125 115.900390625 608.599609375 c 4
 136.794921875 629.4921875 161.599609375 646.064453125 188.896484375 657.373046875 c 4
 216.193359375 668.6796875 245.451171875 674.5 275 674.5 c 4
 304.548828125 674.5 333.806640625 668.6796875 361.10546875 657.373046875 c 4
 388.403320312 646.064453125 413.205078125 629.4921875 434.099609375 608.599609375 c 4
 454.9921875 587.705078125 471.564453125 562.900390625 482.873046875 535.603515625 c 4
 484.392578125 531.936523438 485.8125 528.232421875 487.130859375 524.5 c 4
 495.639648438 500.439453125 500 475.078125 500 449.5 c 5
 425.0078125 449.5 l 5
 425.0078125 469.19921875 421.127929688 488.70703125 413.588867188 506.904296875 c 4
 406.049804688 525.10546875 395.001953125 541.643554688 381.072265625 555.572265625 c 4
 367.143554688 569.501953125 350.60546875 580.549804688 332.404296875 588.088867188 c 4
 314.204101562 595.627929688 294.69921875 599.5078125 275 599.5078125 c 4
 255.30078125 599.5078125 235.79296875 595.627929688 217.595703125 588.088867188 c 4
 199.39453125 580.552734375 182.856445312 569.501953125 168.927734375 555.572265625 c 4
 154.998046875 541.643554688 143.947265625 525.10546875 136.411132812 506.904296875 c 4
 128.872070312 488.70703125 124.9921875 469.19921875 124.9921875 449.5 c 5
124.9921875 224.5 m 5
 124.9921875 204.80078125 128.872070312 185.295898438 136.411132812 167.095703125 c 4
 143.947265625 148.89453125 154.998046875 132.356445312 168.927734375 118.427734375 c 4
 182.856445312 104.498046875 199.39453125 93.4501953125 217.595703125 85.9111328125 c 4
 235.79296875 78.3720703125 255.30078125 74.4921875 275 74.4921875 c 4
 294.69921875 74.4921875 314.204101562 78.3720703125 332.404296875 85.9111328125 c 4
 350.60546875 93.4501953125 367.143554688 104.498046875 381.072265625 118.427734375 c 4
 395.001953125 132.356445312 406.049804688 148.89453125 413.588867188 167.095703125 c 4
 421.127929688 185.295898438 425.0078125 204.80078125 425.0078125 224.5 c 5
 500 224.5 l 5
 500 198.921875 495.639648438 173.560546875 487.130859375 149.5 c 4
 485.8125 145.764648438 484.392578125 142.063476562 482.873046875 138.396484375 c 4
 471.564453125 111.096679688 454.9921875 86.294921875 434.099609375 65.400390625 c 4
 413.205078125 44.5078125 388.403320312 27.935546875 361.10546875 16.626953125 c 4
 333.806640625 5.3203125 304.548828125 -0.5 275 -0.5 c 4
 245.451171875 -0.5 216.193359375 5.3203125 188.896484375 16.626953125 c 4
 161.599609375 27.935546875 136.794921875 44.5078125 115.900390625 65.400390625 c 4
 95.0078125 86.294921875 78.435546875 111.096679688 67.126953125 138.396484375 c 4
 65.607421875 142.063476562 64.1875 145.764648438 62.869140625 149.5 c 4
 54.3603515625 173.560546875 50 198.921875 50 224.5 c 5
 124.9921875 224.5 l 5
50 450.75 m 5
 125 450.75 l 5
 125 223.25 l 5
 50 223.25 l 5
 50 450.75 l 5
425 450.75 m 5
 500 450.75 l 5
 500 223.25 l 5
 425 223.25 l 5
 425 450.75 l 5
329.904296875 116.5625 m 6
 315.258789062 131.20703125 315.258789062 154.94921875 329.904296875 169.595703125 c 4
 344.55078125 184.241210938 368.29296875 184.241210938 382.9375 169.595703125 c 6
 489.00390625 63.53125 l 6
 503.650390625 48.884765625 503.650390625 25.1396484375 489.00390625 10.49609375 c 4
 474.360351562 -4.150390625 450.615234375 -4.150390625 435.96875 10.49609375 c 6
 329.904296875 116.5625 l 6
EndSplineSet
Validated: 37
EndChar

StartChar: R
Encoding: 82 82 44
Width: 550
Flags: W
HStem: -0.5 21G<77.1445 97.8555> -0.5 21G<77.1445 97.8555> 37 37.5<66.7891 108.211> 224.5 75<197.428 378.554> 429.5 20G<50 125> 599.5 75<197.428 352.572>
VStem: 50 75<3.19786 527.072> 425 75<371.928 527.072>
LayerCount: 2
Fore
SplineSet
275 599.5 m 4x3f
 192.158203125 599.5 125 532.341796875 125 449.5 c 4
 125 366.658203125 192.158203125 299.5 275 299.5 c 4
 357.841796875 299.5 425 366.658203125 425 449.5 c 4
 425 532.341796875 357.841796875 599.5 275 599.5 c 4x3f
275 674.5 m 4
 399.265625 674.5 500 573.765625 500 449.5 c 4
 500 325.234375 399.265625 224.5 275 224.5 c 4
 150.734375 224.5 50 325.234375 50 449.5 c 4
 50 573.765625 150.734375 674.5 275 674.5 c 4
50 37 m 5
 50 449.5 l 5
 125 449.5 l 5
 125 37 l 5
 50 37 l 5
125 37 m 4
 125 16.2890625 108.2109375 -0.5 87.5 -0.5 c 4xbf
 66.7890625 -0.5 50 16.2890625 50 37 c 4
 50 57.7109375 66.7890625 74.5 87.5 74.5 c 4
 108.2109375 74.5 125 57.7109375 125 37 c 4
493.26171875 58.447265625 m 4
 505.107421875 41.4580078125 500.935546875 18.08203125 483.947265625 6.23828125 c 4
 466.958007812 -5.607421875 443.58203125 -1.4375 431.73828125 15.552734375 c 4
 419.892578125 32.5419921875 424.0625 55.91796875 441.052734375 67.76171875 c 4
 458.041992188 79.607421875 481.41796875 75.435546875 493.26171875 58.447265625 c 4
271.3671875 245.569335938 m 5
 332.890625 288.46484375 l 5
 493.26171875 58.447265625 l 5
 431.73828125 15.552734375 l 5
 271.3671875 245.569335938 l 5
EndSplineSet
Validated: 37
EndChar

StartChar: S
Encoding: 83 83 45
Width: 500
Flags: W
HStem: 161.855 37.5<66.79 108.211> 324.355 75<188.559 320.219> 499.355 37.5<366.79 408.211>
VStem: 50 75<129.137 233.158> 350 75<465.553 560.797>
LayerCount: 2
Fore
SplineSet
50 199.35546875 m 5
 125 199.35546875 l 5
 125 174.633789062 132.33203125 150.466796875 146.067382812 129.91015625 c 4
 159.802734375 109.353515625 179.32421875 93.330078125 202.166015625 83.8701171875 c 4
 225.005859375 74.412109375 250.139648438 71.9365234375 274.387695312 76.7578125 c 4
 298.6328125 81.580078125 320.908203125 93.486328125 338.388671875 110.966796875 c 4
 355.869140625 128.447265625 367.776367188 150.720703125 372.59765625 174.970703125 c 4
 377.421875 199.21875 374.944335938 224.350585938 365.486328125 247.190429688 c 4
 356.025390625 270.034179688 340.002929688 289.553710938 319.44921875 303.291015625 c 4
 298.889648438 317.026367188 274.72265625 324.35546875 250 324.35546875 c 5
 250 399.35546875 l 5
 289.556640625 399.35546875 328.225585938 387.625 361.116210938 365.649414062 c 4
 394.00390625 343.671875 419.638671875 312.439453125 434.775390625 275.893554688 c 4
 449.912109375 239.348632812 453.875 199.133789062 446.158203125 160.336914062 c 4
 438.440429688 121.541015625 419.392578125 85.90625 391.423828125 57.9326171875 c 4
 363.450195312 29.9638671875 327.815429688 10.916015625 289.01953125 3.1982421875 c 4
 250.22265625 -4.5185546875 210.0078125 -0.556640625 173.46484375 14.580078125 c 4
 136.919921875 29.716796875 105.681640625 55.3515625 83.70703125 88.240234375 c 4
 61.7314453125 121.130859375 50 159.799804688 50 199.35546875 c 5
425 499.35546875 m 5
 350.002929688 499.35546875 l 5
 350.002929688 519.133789062 344.138671875 538.469726562 333.150390625 554.915039062 c 4
 322.1640625 571.360351562 306.54296875 584.177734375 288.26953125 591.748046875 c 4
 269.998046875 599.31640625 249.890625 601.296875 230.491210938 597.436523438 c 4
 211.091796875 593.579101562 193.271484375 584.055664062 179.287109375 570.068359375 c 4
 165.30078125 556.083984375 155.77734375 538.264648438 151.919921875 518.865234375 c 4
 148.059570312 499.465820312 150.0390625 479.358398438 157.607421875 461.086914062 c 4
 165.178710938 442.8125 177.99609375 427.1953125 194.44140625 416.206054688 c 4
 210.88671875 405.217773438 230.22265625 399.353515625 250 399.353515625 c 5
 250 324.35546875 l 5
 215.388671875 324.35546875 181.552734375 334.619140625 152.776367188 353.84765625 c 4
 123.997070312 373.079101562 101.568359375 400.408203125 88.3203125 432.385742188 c 4
 75.076171875 464.36328125 71.611328125 499.55078125 78.3623046875 533.49609375 c 4
 85.115234375 567.444335938 101.783203125 598.625976562 126.2578125 623.098632812 c 4
 150.73046875 647.573242188 181.912109375 664.241210938 215.859375 670.994140625 c 4
 249.8046875 677.747070312 284.993164062 674.280273438 316.970703125 661.03515625 c 4
 348.948242188 647.788085938 376.27734375 625.359375 395.5078125 596.580078125 c 4
 414.736328125 567.802734375 425 533.967773438 425 499.35546875 c 5
425 499.35546875 m 4
 425 478.645507812 408.2109375 461.85546875 387.5 461.85546875 c 4
 366.790039062 461.85546875 350 478.645507812 350 499.35546875 c 4
 350 520.06640625 366.790039062 536.85546875 387.5 536.85546875 c 4
 408.2109375 536.85546875 425 520.06640625 425 499.35546875 c 4
125 199.35546875 m 4
 125 178.645507812 108.2109375 161.85546875 87.5 161.85546875 c 4
 66.7900390625 161.85546875 50 178.645507812 50 199.35546875 c 4
 50 220.06640625 66.7900390625 236.85546875 87.5 236.85546875 c 4
 108.2109375 236.85546875 125 220.06640625 125 199.35546875 c 4
EndSplineSet
Validated: 37
EndChar

StartChar: T
Encoding: 84 84 46
Width: 550
Flags: W
HStem: 417 21G<77.1445 97.8555 452.145 472.855> 454.5 37.5<66.7891 108.211 441.789 483.211> 604.508 9.99219<255.301 294.699>
VStem: 50 75<420.698 531.581> 237.5 75<8.19786 614.5> 425 75<420.698 531.581>
CounterMasks: 1 1c
LayerCount: 2
Fore
SplineSet
50 454.5 m 1
 50 484.048828125 55.8203125 513.306640625 67.12890625 540.606445312 c 0
 78.435546875 567.900390625 95.0078125 592.705078125 115.901367188 613.598632812 c 0
 136.794921875 634.4921875 161.599609375 651.064453125 188.893554688 662.37109375 c 0
 216.193359375 673.6796875 245.451171875 679.5 275 679.5 c 0
 304.548828125 679.5 333.806640625 673.6796875 361.10546875 662.372070312 c 0
 388.403320312 651.064453125 413.205078125 634.4921875 434.096679688 613.600585938 c 0
 454.9921875 592.705078125 471.564453125 567.900390625 482.87109375 540.606445312 c 0
 494.1796875 513.306640625 500 484.048828125 500 454.5 c 1
 425.0078125 454.5 l 1
 425.0078125 474.19921875 421.127929688 493.70703125 413.587890625 511.907226562 c 0
 406.049804688 530.10546875 395 546.640625 381.075195312 560.56640625 c 0
 367.143554688 574.5 350.60546875 585.549804688 332.404296875 593.088867188 c 0
 314.204101562 600.627929688 294.69921875 604.5078125 275 604.5078125 c 0
 255.30078125 604.5078125 235.79296875 600.627929688 217.592773438 593.087890625 c 0
 199.39453125 585.549804688 182.859375 574.5 168.9296875 560.5703125 c 0
 155 546.640625 143.950195312 530.10546875 136.412109375 511.907226562 c 0
 128.872070312 493.70703125 124.9921875 474.19921875 124.9921875 454.5 c 1
 50 454.5 l 1
237.5 614.5 m 1
 312.5 614.5 l 1
 312.5 42 l 2
 312.5 21.2890625 295.7109375 4.5 275 4.5 c 0
 254.2890625 4.5 237.5 21.2890625 237.5 42 c 2
 237.5 614.5 l 1
125 454.5 m 0
 125 433.7890625 108.2109375 417 87.5 417 c 0
 66.7890625 417 50 433.7890625 50 454.5 c 0
 50 475.2109375 66.7890625 492 87.5 492 c 0
 108.2109375 492 125 475.2109375 125 454.5 c 0
500 454.5 m 0
 500 433.7890625 483.2109375 417 462.5 417 c 0
 441.7890625 417 425 433.7890625 425 454.5 c 0
 425 475.2109375 441.7890625 492 462.5 492 c 0
 483.2109375 492 500 475.2109375 500 454.5 c 0
EndSplineSet
Validated: 5
EndChar

StartChar: U
Encoding: 85 85 47
Width: 550
Flags: W
HStem: 0.0136719 74.9883<197.454 351.254>
VStem: 50 74.9883<148.275 552.283> 425.012 74.9883<147.095 552.744>
LayerCount: 2
Fore
SplineSet
192.55859375 619.134765625 m 0
 192.55859375 598.423828125 175.76953125 581.634765625 155.05859375 581.634765625 c 0
 134.34765625 581.634765625 117.55859375 598.423828125 117.55859375 619.134765625 c 0
 117.55859375 639.845703125 134.34765625 656.634765625 155.05859375 656.634765625 c 0
 175.76953125 656.634765625 192.55859375 639.845703125 192.55859375 619.134765625 c 0
357.421875 619.134765625 m 0
 357.421875 639.845703125 374.208984375 656.634765625 394.921875 656.634765625 c 0
 415.6328125 656.634765625 432.421875 639.845703125 432.421875 619.134765625 c 0
 432.421875 598.423828125 415.6328125 581.634765625 394.921875 581.634765625 c 0
 374.208984375 581.634765625 357.421875 598.423828125 357.421875 619.134765625 c 0
130.984375 647.884765625 m 1
 178.982421875 590.272460938 l 1
 155.278320312 570.5234375 138.240234375 543.94921875 130.185546875 514.168945312 c 0
 126.7265625 501.366210938 124.998046875 488.241210938 124.98828125 475.130859375 c 0
 124.98828125 475.091796875 124.98828125 225.05078125 124.98828125 225.01171875 c 0
 124.98828125 224.974609375 124.98828125 224.9375 124.98828125 224.901367188 c 0
 125 207.58984375 128.009765625 190.30859375 133.984375 173.846679688 c 0
 144.506835938 144.842773438 163.715820312 119.793945312 188.9921875 102.10546875 c 0
 214.267578125 84.416015625 244.384765625 74.9501953125 275.234375 75.001953125 c 0
 306.0859375 75.0478515625 336.171875 84.6083984375 361.39453125 102.376953125 c 0
 386.616210938 120.142578125 405.744140625 145.252929688 416.176757812 174.2890625 c 0
 422.048828125 190.624023438 425.001953125 207.755859375 425.01171875 224.916015625 c 0
 425.01171875 224.982421875 425.01171875 475.047851562 425.01171875 475.11328125 c 0
 425.004882812 488.384765625 423.234375 501.673828125 419.689453125 514.623046875 c 0
 411.544921875 544.37890625 394.421875 570.900390625 370.65625 590.572265625 c 1
 418.471679688 648.3359375 l 1
 454.119140625 618.830078125 479.796875 579.051757812 492.013671875 534.422851562 c 0
 497.3359375 514.979492188 499.9921875 495.03125 500 475.103515625 c 0
 500 475.044921875 500 224.986328125 500 224.92578125 c 0
 499.990234375 199.168945312 495.556640625 173.453125 486.748046875 148.931640625 c 0
 471.1015625 105.38671875 442.407226562 67.720703125 404.580078125 41.0732421875 c 0
 366.75 14.4228515625 321.625976562 0.0869140625 275.353515625 0.013671875 c 0
 229.08203125 -0.0595703125 183.911132812 14.13671875 145.998046875 40.666015625 c 0
 108.087890625 67.1962890625 79.27734375 104.771484375 63.494140625 148.267578125 c 0
 54.529296875 172.97265625 50.0146484375 198.905273438 50 224.88671875 c 0
 50 224.927734375 50 224.969726562 50 225.01171875 c 0
 50 225.0546875 50 475.099609375 50 475.142578125 c 0
 50.01171875 494.8203125 52.6025390625 514.525390625 57.7978515625 533.739257812 c 0
 69.875 578.407226562 95.431640625 618.267578125 130.984375 647.884765625 c 1
EndSplineSet
Validated: 37
EndChar

StartChar: V
Encoding: 86 86 48
Width: 550
Flags: W
HStem: -0.5 75<254.289 295.711> -0.5 21G<275 289.774> 654.5 20G<77.1445 97.8555 452.145 472.855>
VStem: 275 37.5<16.2891 69.0711> 425 75<147.42 670.802>
LayerCount: 2
Fore
SplineSet
51.70703125 625.818359375 m 5x38
 123.29296875 648.18359375 l 5
 310.896484375 47.7080078125 l 5
 239.30859375 25.341796875 l 5
 51.70703125 625.818359375 l 5x38
312.5 37 m 4
 312.5 16.2890625 295.7109375 -0.5 275 -0.5 c 4
 254.2890625 -0.5 237.5 16.2890625 237.5 37 c 4
 237.5 57.7109375 254.2890625 74.5 275 74.5 c 4xb8
 295.7109375 74.5 312.5 57.7109375 312.5 37 c 4
125 637 m 4
 125 616.2890625 108.2109375 599.5 87.5 599.5 c 4
 66.7890625 599.5 50 616.2890625 50 637 c 4
 50 657.7109375 66.7890625 674.5 87.5 674.5 c 4
 108.2109375 674.5 125 657.7109375 125 637 c 4
500 224.5 m 5
 500 194.951171875 494.1796875 165.693359375 482.873046875 138.39453125 c 4
 471.564453125 111.096679688 454.9921875 86.294921875 434.099609375 65.400390625 c 4
 413.205078125 44.5078125 388.403320312 27.935546875 361.10546875 16.626953125 c 4
 333.806640625 5.3203125 304.548828125 -0.5 275 -0.5 c 5
 275 74.4921875 l 5
 294.69921875 74.4921875 314.204101562 78.3720703125 332.404296875 85.9111328125 c 4
 350.60546875 93.4501953125 367.143554688 104.5 381.072265625 118.427734375 c 4
 395 132.356445312 406.049804688 148.89453125 413.588867188 167.095703125 c 4
 421.127929688 185.295898438 425.0078125 204.80078125 425.0078125 224.5 c 5
 500 224.5 l 5
425 224.5 m 5
 425 637 l 6
 425 657.7109375 441.7890625 674.5 462.5 674.5 c 4
 483.2109375 674.5 500 657.7109375 500 637 c 6
 500 224.5 l 5
 425 224.5 l 5
EndSplineSet
Validated: 5
EndChar

StartChar: W
Encoding: 87 87 49
Width: 550
Flags: W
HStem: -0.5 21G<260.226 289.774> -0.5 21G<260.226 289.774> 72 2.49219<255.301 294.699> 654.5 20G<77.1445 97.8555 452.145 472.855>
VStem: 50 75<147.421 670.802> 237.5 75<72 558.302> 425 75<147.421 670.802>
CounterMasks: 1 0e
LayerCount: 2
Fore
SplineSet
50 224.5 m 5xbe
 124.9921875 224.5 l 5
 124.9921875 204.80078125 128.872070312 185.295898438 136.411132812 167.095703125 c 4
 143.950195312 148.89453125 155 132.356445312 168.927734375 118.430664062 c 4
 182.859375 104.5 199.39453125 93.4501953125 217.595703125 85.9140625 c 4
 235.79296875 78.3720703125 255.30078125 74.4921875 275 74.4921875 c 4
 294.69921875 74.4921875 314.204101562 78.3720703125 332.404296875 85.9140625 c 4
 350.60546875 93.4501953125 367.143554688 104.5 381.072265625 118.430664062 c 4
 395 132.356445312 406.049804688 148.89453125 413.588867188 167.095703125 c 4
 421.127929688 185.295898438 425.0078125 204.80078125 425.0078125 224.5 c 5
 500 224.5 l 5
 500 194.951171875 494.1796875 165.693359375 482.873046875 138.396484375 c 4
 471.564453125 111.096679688 454.9921875 86.294921875 434.099609375 65.4033203125 c 4
 413.205078125 44.5078125 388.403320312 27.935546875 361.10546875 16.626953125 c 4
 333.806640625 5.3203125 304.548828125 -0.5 275 -0.5 c 4
 245.451171875 -0.5 216.193359375 5.3203125 188.896484375 16.626953125 c 4
 161.599609375 27.935546875 136.794921875 44.5078125 115.900390625 65.400390625 c 4
 95.0078125 86.294921875 78.435546875 111.096679688 67.126953125 138.396484375 c 4
 55.8203125 165.693359375 50 194.951171875 50 224.5 c 5xbe
50 224.5 m 5
 50 637 l 6
 50 657.7109375 66.7890625 674.5 87.5 674.5 c 4
 108.2109375 674.5 125 657.7109375 125 637 c 6
 125 224.5 l 5
 50 224.5 l 5
237.5 72 m 5
 237.5 524.5 l 6
 237.5 545.2109375 254.2890625 562 275 562 c 4
 295.7109375 562 312.5 545.2109375 312.5 524.5 c 6
 312.5 72 l 5
 237.5 72 l 5
425 224.5 m 5
 425 637 l 6
 425 657.7109375 441.7890625 674.5 462.5 674.5 c 4
 483.2109375 674.5 500 657.7109375 500 637 c 6
 500 224.5 l 5
 425 224.5 l 5
EndSplineSet
Validated: 5
EndChar

StartChar: X
Encoding: 88 88 50
Width: 550
Flags: W
HStem: -0.5 21G<77.1445 97.8555 452.145 472.855> -0.5 21G<77.1445 97.8555 452.145 472.855> 299.5 75<215.327 334.673> 654.5 20G<77.1445 97.8555 452.145 472.855>
VStem: 50 75<3.19786 225.363 448.637 670.802> 425 75<3.19786 225.363 448.637 670.802>
LayerCount: 2
Fore
SplineSet
500 524.5 m 5x3c
 500 464.827148438 476.293945312 407.59765625 434.099609375 365.400390625 c 4
 391.90234375 323.206054688 334.672851562 299.5 275 299.5 c 4
 215.327148438 299.5 158.095703125 323.206054688 115.900390625 365.400390625 c 4
 73.7060546875 407.59765625 50 464.827148438 50 524.5 c 5
 124.9921875 524.5 l 5
 124.9921875 484.71484375 140.795898438 446.560546875 168.927734375 418.427734375 c 4
 197.060546875 390.298828125 235.21484375 374.4921875 275 374.4921875 c 4
 314.78515625 374.4921875 352.939453125 390.298828125 381.072265625 418.427734375 c 4
 409.201171875 446.560546875 425.0078125 484.71484375 425.0078125 524.5 c 5
 500 524.5 l 5x3c
50 637 m 6
 50 657.7109375 66.7890625 674.5 87.5 674.5 c 4
 108.2109375 674.5 125 657.7109375 125 637 c 6
 125 524.5 l 5
 50 524.5 l 5
 50 637 l 6
425 637 m 6
 425 657.7109375 441.7890625 674.5 462.5 674.5 c 4
 483.2109375 674.5 500 657.7109375 500 637 c 6
 500 524.5 l 5
 425 524.5 l 5
 425 637 l 6
500 149.5 m 5
 425.0078125 149.5 l 5
 425.0078125 189.28515625 409.201171875 227.439453125 381.072265625 255.572265625 c 4
 352.939453125 283.701171875 314.78515625 299.5078125 275 299.5078125 c 4
 235.21484375 299.5078125 197.060546875 283.701171875 168.927734375 255.572265625 c 4
 140.795898438 227.439453125 124.9921875 189.28515625 124.9921875 149.5 c 5
 50 149.5 l 5
 50 209.172851562 73.7060546875 266.40234375 115.900390625 308.599609375 c 4
 158.095703125 350.793945312 215.327148438 374.5 275 374.5 c 4
 334.672851562 374.5 391.90234375 350.793945312 434.099609375 308.599609375 c 4
 476.293945312 266.40234375 500 209.172851562 500 149.5 c 5
50 37 m 6
 50 149.5 l 5
 125 149.5 l 5
 125 37 l 6
 125 16.2890625 108.2109375 -0.5 87.5 -0.5 c 4xbc
 66.7890625 -0.5 50 16.2890625 50 37 c 6
425 37 m 6
 425 149.5 l 5
 500 149.5 l 5
 500 37 l 6
 500 16.2890625 483.2109375 -0.5 462.5 -0.5 c 4
 441.7890625 -0.5 425 16.2890625 425 37 c 6
EndSplineSet
Validated: 5
EndChar

StartChar: Y
Encoding: 89 89 51
Width: 550
Flags: W
HStem: -0.5 21G<264.645 285.355> -0.5 21G<264.645 285.355> 37 37.5<254.289 295.71> 267.879 25<237.5 312.5> 654.5 20G<144.723 165.433 384.586 405.296>
VStem: 237.5 75<3.19786 292.879>
LayerCount: 2
Fore
SplineSet
237.5 292.87890625 m 5x3c
 312.5 292.87890625 l 5
 312.5 37 l 5
 237.5 37 l 5
 237.5 292.87890625 l 5x3c
312.5 37 m 4
 312.5 16.2890625 295.709960938 -0.5 275 -0.5 c 4xbc
 254.2890625 -0.5 237.5 16.2890625 237.5 37 c 4
 237.5 57.7109375 254.2890625 74.5 275 74.5 c 4
 295.709960938 74.5 312.5 57.7109375 312.5 37 c 4
357.44140625 637 m 4
 357.44140625 657.7109375 374.23046875 674.5 394.94140625 674.5 c 4
 415.651367188 674.5 432.44140625 657.7109375 432.44140625 637 c 4
 432.44140625 616.2890625 415.651367188 599.5 394.94140625 599.5 c 4
 374.23046875 599.5 357.44140625 616.2890625 357.44140625 637 c 4
192.578125 637 m 4
 192.578125 616.2890625 175.788085938 599.5 155.078125 599.5 c 4
 134.3671875 599.5 117.578125 616.2890625 117.578125 637 c 4
 117.578125 657.7109375 134.3671875 674.5 155.078125 674.5 c 4
 175.788085938 674.5 192.578125 657.7109375 192.578125 637 c 4
419.015625 665.75 m 5
 454.567382812 636.130859375 480.124023438 596.272460938 492.19921875 551.604492188 c 4
 504.27734375 506.936523438 502.290039062 459.62890625 486.505859375 416.1328125 c 4
 470.72265625 372.634765625 441.911132812 335.061523438 403.999023438 308.533203125 c 4
 366.088867188 282.001953125 320.919921875 267.80859375 274.645507812 267.87890625 c 4
 228.374023438 267.952148438 183.249023438 282.291015625 145.419921875 308.938476562 c 4
 107.592773438 335.5859375 78.9013671875 373.25 63.25390625 416.796875 c 4
 47.607421875 460.344726562 45.7666015625 507.65625 57.9833984375 552.28515625 c 4
 70.2021484375 596.916992188 95.8837890625 636.6953125 131.528320312 666.201171875 c 5
 179.342773438 608.4375 l 5
 155.578125 588.765625 138.45703125 562.244140625 130.309570312 532.48828125 c 4
 122.165039062 502.732421875 123.390625 471.1875 133.823242188 442.154296875 c 4
 144.254882812 413.12109375 163.383789062 388.0078125 188.60546875 370.240234375 c 4
 213.828125 352.473632812 243.913085938 342.916015625 274.765625 342.864257812 c 4
 305.615234375 342.818359375 335.732421875 352.283203125 361.0078125 369.970703125 c 4
 386.284179688 387.65625 405.495117188 412.7109375 416.017578125 441.708984375 c 4
 426.540039062 470.7109375 427.866210938 502.251953125 419.811523438 532.034179688 c 4
 411.762695312 561.814453125 394.721679688 588.388671875 371.020507812 608.137695312 c 5
 419.015625 665.75 l 5
EndSplineSet
Validated: 37
EndChar

StartChar: Z
Encoding: 90 90 52
Width: 550
Flags: W
HStem: -0.5 75<128.412 390.082> 74.5 37.5<66.7891 119.571> 130.75 37.5<441.789 483.211> 505.75 37.5<66.7891 108.211> 562 37.5<430.429 483.211> 599.5 75<159.918 421.59>
VStem: 50 75<91.2891 132.711 471.948 530.615> 331.25 1.25<-0.5 74.4922> 425 75<143.385 202.052 541.289 582.711>
LayerCount: 2
Fore
SplineSet
387.5 674.5 m 5x3780
 402.2734375 674.5 416.90234375 671.58984375 430.551757812 665.935546875 c 4
 444.19921875 660.283203125 456.6015625 651.995117188 467.05078125 641.548828125 c 4
 477.495117188 631.103515625 485.783203125 618.701171875 491.4375 605.051757812 c 4
 497.08984375 591.40234375 500 576.7734375 500 562 c 5
 424.998046875 562 l 5x3b80
 424.998046875 566.923828125 424.028320312 571.799804688 422.143554688 576.34765625 c 4
 420.255859375 580.8984375 417.495117188 585.032226562 414.015625 588.513671875 c 4
 410.532226562 591.995117188 406.396484375 594.758789062 401.850585938 596.640625 c 4
 397.299804688 598.525390625 392.423828125 599.495117188 387.5 599.495117188 c 5
 387.5 674.5 l 5x3780
500 562 m 4
 500 541.2890625 483.2109375 524.5 462.5 524.5 c 4
 441.7890625 524.5 425 541.2890625 425 562 c 4
 425 582.7109375 441.7890625 599.5 462.5 599.5 c 4
 483.2109375 599.5 500 582.7109375 500 562 c 4
162.5 -0.5 m 5xb380
 147.7265625 -0.5 133.09765625 2.41015625 119.448242188 8.0625 c 4
 105.798828125 13.716796875 93.396484375 22.0048828125 82.951171875 32.44921875 c 4
 72.5048828125 42.8984375 64.216796875 55.30078125 58.564453125 68.9482421875 c 4
 52.91015625 82.59765625 50 97.2265625 50 112 c 5
 125.004882812 112 l 5x7380
 125.004882812 107.076171875 125.974609375 102.200195312 127.859375 97.6494140625 c 4
 129.741210938 93.103515625 132.504882812 88.9677734375 135.986328125 85.484375 c 4
 139.467773438 82.0048828125 143.6015625 79.244140625 148.15234375 77.3564453125 c 4
 152.700195312 75.4716796875 157.576171875 74.501953125 162.5 74.501953125 c 5
 162.5 -0.5 l 5xb380
50 112 m 4
 50 132.7109375 66.7890625 149.5 87.5 149.5 c 4
 108.2109375 149.5 125 132.7109375 125 112 c 4
 125 91.2890625 108.2109375 74.5 87.5 74.5 c 4
 66.7890625 74.5 50 91.2890625 50 112 c 4
433.041992188 585.23046875 m 5
 490.65625 537.21484375 l 5
 116.9609375 88.76953125 l 5
 59.34375 136.78515625 l 5
 433.041992188 585.23046875 l 5
50 505.75 m 5
 50 550.505859375 67.7783203125 593.427734375 99.42578125 625.07421875 c 4
 131.072265625 656.721679688 173.994140625 674.5 218.75 674.5 c 5x3780
 218.75 599.5078125 l 5
 193.884765625 599.5078125 170.037109375 589.62890625 152.453125 572.046875 c 4
 134.87109375 554.462890625 124.9921875 530.615234375 124.9921875 505.75 c 5
 50 505.75 l 5
217.5 674.5 m 5
 387.5 674.5 l 5
 387.5 599.5 l 5
 217.5 599.5 l 5
 217.5 674.5 l 5
125 505.75 m 4
 125 485.0390625 108.2109375 468.25 87.5 468.25 c 4
 66.7890625 468.25 50 485.0390625 50 505.75 c 4
 50 526.4609375 66.7890625 543.25 87.5 543.25 c 4
 108.2109375 543.25 125 526.4609375 125 505.75 c 4
500 168.25 m 5
 500 123.494140625 482.21875 80.572265625 450.576171875 48.923828125 c 4
 418.927734375 17.28125 376.005859375 -0.5 331.25 -0.5 c 5xb380
 331.25 74.4921875 l 5
 356.115234375 74.4921875 379.962890625 84.37109375 397.546875 101.953125 c 4
 415.12890625 119.537109375 425.0078125 143.384765625 425.0078125 168.25 c 5
 500 168.25 l 5
332.5 -0.5 m 5
 162.5 -0.5 l 5
 162.5 74.5 l 5
 332.5 74.5 l 5
 332.5 -0.5 l 5
425 168.25 m 4
 425 188.9609375 441.7890625 205.75 462.5 205.75 c 4
 483.2109375 205.75 500 188.9609375 500 168.25 c 4
 500 147.5390625 483.2109375 130.75 462.5 130.75 c 4
 441.7890625 130.75 425 147.5390625 425 168.25 c 4
EndSplineSet
Validated: 5
EndChar

StartChar: Aring
Encoding: 197 197 53
Width: 550
Flags: W
HStem: 0.115234 21G<77.1445 97.8555 452.145 472.855> 0.115234 21G<77.1445 97.8555 452.145 472.855> 37.6152 37.5<66.7891 108.211 441.789 483.211> 224.236 75<197.428 352.572> 430.115 20G<50 125 425 500> 599.236 75<197.428 352.572> 724.236 37.5273<243.544 306.458> 836.709 37.5273<243.544 306.458>
VStem: 50 75<3.8131 526.808> 200 37.5273<767.78 830.693> 312.476 37.5244<767.78 830.693> 425 75<3.8131 526.808>
LayerCount: 2
Fore
SplineSet
50 37.615234375 m 1x3ff0
 50 450.115234375 l 1
 125 450.115234375 l 1
 125 37.615234375 l 1
 50 37.615234375 l 1x3ff0
125 37.615234375 m 0
 125 16.904296875 108.2109375 0.115234375 87.5 0.115234375 c 0xbff0
 66.7890625 0.115234375 50 16.904296875 50 37.615234375 c 0
 50 58.326171875 66.7890625 75.115234375 87.5 75.115234375 c 0
 108.2109375 75.115234375 125 58.326171875 125 37.615234375 c 0
500 37.615234375 m 1
 425 37.615234375 l 1
 425 450.115234375 l 1
 500 450.115234375 l 1
 500 37.615234375 l 1
425 37.615234375 m 0
 425 58.326171875 441.7890625 75.115234375 462.5 75.115234375 c 0
 483.2109375 75.115234375 500 58.326171875 500 37.615234375 c 0
 500 16.904296875 483.2109375 0.115234375 462.5 0.115234375 c 0
 441.7890625 0.115234375 425 16.904296875 425 37.615234375 c 0
275 299.236328125 m 0
 357.841796875 299.236328125 425 366.39453125 425 449.236328125 c 0
 425 532.078125 357.841796875 599.236328125 275 599.236328125 c 0
 192.158203125 599.236328125 125 532.078125 125 449.236328125 c 0
 125 366.39453125 192.158203125 299.236328125 275 299.236328125 c 0
275 224.236328125 m 0
 150.734375 224.236328125 50 324.970703125 50 449.236328125 c 0
 50 573.501953125 150.734375 674.236328125 275 674.236328125 c 0
 399.265625 674.236328125 500 573.501953125 500 449.236328125 c 0
 500 324.970703125 399.265625 224.236328125 275 224.236328125 c 0
350 799.236328125 m 4
 350 757.815429688 316.423828125 724.236328125 275 724.236328125 c 4
 233.579101562 724.236328125 200 757.815429688 200 799.236328125 c 4
 200 840.657226562 233.579101562 874.236328125 275 874.236328125 c 4
 316.423828125 874.236328125 350 840.657226562 350 799.236328125 c 4
237.52734375 799.236328125 m 4
 237.52734375 778.541015625 254.3046875 761.763671875 275 761.763671875 c 4
 295.6953125 761.763671875 312.475585938 778.541015625 312.475585938 799.236328125 c 4
 312.475585938 819.931640625 295.6953125 836.708984375 275 836.708984375 c 4
 254.3046875 836.708984375 237.52734375 819.931640625 237.52734375 799.236328125 c 4
EndSplineSet
Validated: 5
EndChar

StartChar: AE
Encoding: 198 198 54
Width: 550
Flags: W
HStem: -0.5 74.9922<318.229 395.403> 224.5 74.9922<199.136 275 318.229 395.403> 429.5 20G<50 125> 599.508 74.9922<199.136 275 318.229 395.403>
VStem: 50 74.9922<3.19786 525.941> 260 15<224.5 299.492 599.508 667.783> 318.174 16.8262<-0.5 74.4922 224.5 299.492 599.508 667.783>
LayerCount: 2
Fore
SplineSet
275 224.5 m 5
 215.328125 224.5 158.095703125 248.206054688 115.900390625 290.400390625 c 4
 73.70703125 332.59765625 50 389.82421875 50 449.5 c 4
 50 509.172851562 73.70703125 566.40234375 115.900390625 608.599609375 c 4
 158.095703125 650.793945312 215.328125 674.5 275 674.5 c 5
 275 599.5078125 l 5
 235.21484375 599.5078125 197.060546875 583.704101562 168.927734375 555.572265625 c 4
 140.796875 527.439453125 124.9921875 489.28515625 124.9921875 449.5 c 4
 124.9921875 409.71484375 140.796875 371.560546875 168.927734375 343.427734375 c 4
 197.060546875 315.298828125 235.21484375 299.4921875 275 299.4921875 c 5
 275 224.5 l 5
491.59765625 305.95703125 m 5
 470.466796875 280.452148438 443.966796875 259.927734375 413.990234375 245.84765625 c 4
 384.013671875 231.765625 351.294921875 224.478515625 318.173828125 224.5 c 5
 318.228515625 299.4921875 l 5
 340.30859375 299.478515625 362.119140625 304.3359375 382.107421875 313.7265625 c 4
 402.095703125 323.11328125 419.76171875 336.796875 433.84765625 353.798828125 c 5
 491.59765625 305.95703125 l 5
491.59765625 80.95703125 m 5
 470.466796875 55.4521484375 443.966796875 34.927734375 413.990234375 20.84765625 c 4
 384.013671875 6.765625 351.294921875 -0.521484375 318.173828125 -0.5 c 5
 318.228515625 74.4921875 l 5
 340.310546875 74.478515625 362.12109375 79.3359375 382.107421875 88.7265625 c 4
 402.095703125 98.11328125 419.763671875 111.796875 433.84765625 128.798828125 c 5
 491.59765625 80.95703125 l 5
500.0078125 104.638671875 m 4
 500.0078125 83.931640625 483.220703125 67.138671875 462.5078125 67.138671875 c 4
 441.796875 67.138671875 425.0078125 83.931640625 425.0078125 104.638671875 c 4
 425.0078125 125.349609375 441.796875 142.138671875 462.5078125 142.138671875 c 4
 483.220703125 142.138671875 500.0078125 125.349609375 500.0078125 104.638671875 c 4
491.59765625 593.04296875 m 5
 433.84765625 545.198242188 l 5
 419.763671875 562.203125 402.095703125 575.88671875 382.107421875 585.276367188 c 4
 362.12109375 594.6640625 340.310546875 599.521484375 318.228515625 599.5078125 c 5
 318.173828125 674.5 l 5
 351.294921875 674.521484375 384.013671875 667.234375 413.990234375 653.15234375 c 4
 443.966796875 639.072265625 470.466796875 618.544921875 491.59765625 593.04296875 c 5
500.0078125 569.358398438 m 4
 500.0078125 548.6484375 483.220703125 531.858398438 462.5078125 531.858398438 c 4
 441.796875 531.858398438 425.0078125 548.6484375 425.0078125 569.358398438 c 4
 425.0078125 590.071289062 441.796875 606.858398438 462.5078125 606.858398438 c 4
 483.220703125 606.858398438 500.0078125 590.071289062 500.0078125 569.358398438 c 4
500.0078125 329.638671875 m 4
 500.0078125 308.931640625 483.220703125 292.138671875 462.5078125 292.138671875 c 4
 441.796875 292.138671875 425.0078125 308.931640625 425.0078125 329.638671875 c 4
 425.0078125 350.349609375 441.796875 367.138671875 462.5078125 367.138671875 c 4
 483.220703125 367.138671875 500.0078125 350.349609375 500.0078125 329.638671875 c 4
260 659.5 m 6
 260 667.783203125 266.716796875 674.5 275 674.5 c 6
 320 674.5 l 6
 328.287109375 674.5 335 667.783203125 335 659.5 c 6
 335 -0.5 l 5
 260 -0.5 l 5
 260 659.5 l 6
50 449.5 m 5
 125 449.5 l 5
 125 37 l 6
 125 16.2890625 108.2109375 -0.5 87.5 -0.5 c 4
 66.7890625 -0.5 50 16.2890625 50 37 c 6
 50 449.5 l 5
EndSplineSet
Validated: 37
EndChar

StartChar: Oslash
Encoding: 216 216 55
Width: 550
Flags: W
HStem: -0.501953 74.9932<197.503 352.497> 223.251 1.25<50 124.992 425.008 500> 449.501 1.25<50 124.992 425.008 500> 599.508 74.9932<197.503 352.497>
VStem: 50 75<146.583 527.416> 425 75<146.583 527.416>
LayerCount: 2
Fore
SplineSet
124.9921875 449.500976562 m 5
 50 449.500976562 l 5
 50 475.077148438 54.3603515625 500.438476562 62.869140625 524.500976562 c 4
 64.1875 528.233398438 65.607421875 531.9375 67.126953125 535.604492188 c 4
 78.435546875 562.901367188 95.0078125 587.706054688 115.900390625 608.599609375 c 4
 136.794921875 629.491210938 161.599609375 646.065429688 188.896484375 657.372070312 c 4
 216.193359375 668.680664062 245.451171875 674.500976562 275 674.500976562 c 4
 304.548828125 674.500976562 333.806640625 668.680664062 361.103515625 657.372070312 c 4
 388.403320312 646.065429688 413.205078125 629.491210938 434.099609375 608.599609375 c 4
 454.9921875 587.706054688 471.564453125 562.901367188 482.873046875 535.604492188 c 4
 484.392578125 531.9375 485.8125 528.233398438 487.130859375 524.500976562 c 4
 495.639648438 500.438476562 500 475.077148438 500 449.500976562 c 5
 425.0078125 449.500976562 l 5
 425.0078125 469.200195312 421.127929688 488.705078125 413.588867188 506.905273438 c 4
 406.049804688 525.106445312 395.001953125 541.641601562 381.072265625 555.572265625 c 4
 367.143554688 569.500976562 350.60546875 580.55078125 332.404296875 588.08984375 c 4
 314.204101562 595.62890625 294.69921875 599.5078125 275 599.5078125 c 4
 255.30078125 599.5078125 235.79296875 595.62890625 217.595703125 588.08984375 c 4
 199.39453125 580.55078125 182.856445312 569.500976562 168.927734375 555.572265625 c 4
 154.998046875 541.641601562 143.947265625 525.106445312 136.411132812 506.905273438 c 4
 128.872070312 488.705078125 124.9921875 469.200195312 124.9921875 449.500976562 c 5
124.9921875 224.500976562 m 5
 124.9921875 204.80078125 128.872070312 185.293945312 136.411132812 167.09375 c 4
 143.947265625 148.892578125 154.998046875 132.357421875 168.927734375 118.428710938 c 4
 182.856445312 104.498046875 199.39453125 93.4482421875 217.595703125 85.912109375 c 4
 235.79296875 78.3701171875 255.30078125 74.4912109375 275 74.4912109375 c 4
 294.69921875 74.4912109375 314.204101562 78.3701171875 332.404296875 85.912109375 c 4
 350.60546875 93.4482421875 367.143554688 104.498046875 381.072265625 118.428710938 c 4
 395.001953125 132.357421875 406.049804688 148.892578125 413.588867188 167.09375 c 4
 421.127929688 185.293945312 425.0078125 204.80078125 425.0078125 224.500976562 c 5
 500 224.500976562 l 5
 500 198.921875 495.639648438 173.560546875 487.130859375 149.500976562 c 4
 485.8125 145.765625 484.392578125 142.064453125 482.873046875 138.39453125 c 4
 471.564453125 111.09765625 454.9921875 86.29296875 434.099609375 65.4013671875 c 4
 413.205078125 44.505859375 388.403320312 27.93359375 361.103515625 16.625 c 4
 333.806640625 5.318359375 304.548828125 -0.501953125 275 -0.501953125 c 4
 245.451171875 -0.501953125 216.193359375 5.318359375 188.896484375 16.625 c 4
 161.599609375 27.93359375 136.794921875 44.505859375 115.900390625 65.4013671875 c 4
 95.0078125 86.29296875 78.435546875 111.09765625 67.126953125 138.39453125 c 4
 65.607421875 142.064453125 64.1875 145.765625 62.869140625 149.500976562 c 4
 54.3603515625 173.560546875 50 198.921875 50 224.500976562 c 5
 124.9921875 224.500976562 l 5
50 450.750976562 m 5
 125 450.750976562 l 5
 125 223.250976562 l 5
 50 223.250976562 l 5
 50 450.750976562 l 5
425 450.750976562 m 5
 500 450.750976562 l 5
 500 223.250976562 l 5
 425 223.250976562 l 5
 425 450.750976562 l 5
92.119140625 112.359375 m 6
 102.546875 128.978515625 124.47265625 133.998046875 141.091796875 123.568359375 c 4
 157.709960938 113.140625 162.7265625 91.21484375 152.299804688 74.595703125 c 6
 115.646484375 16.185546875 l 6
 105.216796875 -0.4306640625 83.29296875 -5.453125 66.6748046875 4.9794921875 c 4
 50.056640625 15.40625 45.037109375 37.330078125 55.466796875 53.951171875 c 6
 92.119140625 112.359375 l 6
434.31640625 657.811523438 m 6
 444.748046875 674.4296875 466.671875 679.447265625 483.291015625 669.01953125 c 4
 499.91015625 658.58984375 504.926757812 636.666015625 494.5 620.047851562 c 6
 457.846679688 561.63671875 l 6
 447.419921875 545.018554688 425.493164062 539.999023438 408.875 550.428710938 c 4
 392.2578125 560.85546875 387.236328125 582.782226562 397.66796875 599.400390625 c 6
 434.31640625 657.811523438 l 6
EndSplineSet
Validated: 37
EndChar

StartChar: oslash
Encoding: 248 248 56
Width: 550
Flags: W
HStem: 0 75<53.6979 121.302 197.428 352.572> 375 75<197.428 352.572 441.789 483.211> 418.032 20G<415 455>
VStem: 50 75<3.69786 71.3021 147.428 302.572> 425 75<147.428 302.572 391.789 433.211>
LayerCount: 2
Fore
SplineSet
275 75 m 0xd8
 357.841796875 75 425 142.158203125 425 225 c 0
 425 307.841796875 357.841796875 375 275 375 c 0
 192.158203125 375 125 307.841796875 125 225 c 0
 125 142.158203125 192.158203125 75 275 75 c 0xd8
275 0 m 0
 150.734375 0 50 100.734375 50 225 c 0
 50 349.265625 150.734375 450 275 450 c 0
 399.265625 450 500 349.265625 500 225 c 0
 500 100.734375 399.265625 0 275 0 c 0
500 412.5 m 0
 500 391.7890625 483.2109375 375 462.5 375 c 0
 441.7890625 375 425 391.7890625 425 412.5 c 0
 425 433.2109375 441.7890625 450 462.5 450 c 0
 483.2109375 450 500 433.2109375 500 412.5 c 0
401.967773438 405 m 1
 435 438.032226562 l 1xb8
 488.032226562 385 l 1
 455 351.967773438 l 1
 401.967773438 405 l 1
125 37.5 m 0
 125 16.7890625 108.2109375 0 87.5 0 c 0
 66.7890625 0 50 16.7890625 50 37.5 c 0
 50 58.2109375 66.7890625 75 87.5 75 c 0
 108.2109375 75 125 58.2109375 125 37.5 c 0
500 412.5 m 0
 500 391.7890625 483.2109375 375 462.5 375 c 0
 441.7890625 375 425 391.7890625 425 412.5 c 0
 425 433.2109375 441.7890625 450 462.5 450 c 0xd8
 483.2109375 450 500 433.2109375 500 412.5 c 0
401.967773438 405 m 1
 435 438.032226562 l 1xb8
 488.032226562 385 l 1
 455 351.967773438 l 1
 401.967773438 405 l 1
50 37.5 m 0
 50 58.2109375 66.7890625 75 87.5 75 c 0
 108.2109375 75 125 58.2109375 125 37.5 c 0
 125 16.7890625 108.2109375 0 87.5 0 c 0
 66.7890625 0 50 16.7890625 50 37.5 c 0
148.032226562 45 m 1
 115 11.9677734375 l 1
 61.9677734375 65 l 1
 95 98.0322265625 l 1
 148.032226562 45 l 1
50 37.5 m 0
 50 58.2109375 66.7890625 75 87.5 75 c 0
 108.2109375 75 125 58.2109375 125 37.5 c 0
 125 16.7890625 108.2109375 0 87.5 0 c 0
 66.7890625 0 50 16.7890625 50 37.5 c 0
148.032226562 45 m 1
 115 11.9677734375 l 1
 61.9677734375 65 l 1
 95 98.0322265625 l 1
 148.032226562 45 l 1
EndSplineSet
Validated: 5
EndChar

StartChar: aring
Encoding: 229 229 57
Width: 550
Flags: W
HStem: -0.5 75<197.428 352.572> -0.5 21G<452.145 472.855> 37 37.5<441.789 483.211> 374.5 75<197.428 352.572> 524.5 37.5273<243.544 306.458> 636.973 37.5273<243.544 306.458>
VStem: 50 75<146.928 302.072> 200 37.5273<568.044 630.956> 312.476 37.5244<568.044 630.956> 425 75<3.19786 302.072>
LayerCount: 2
Fore
SplineSet
500 37 m 4x7fc0
 500 16.2890625 483.2109375 -0.5 462.5 -0.5 c 4
 441.7890625 -0.5 425 16.2890625 425 37 c 4
 425 57.7109375 441.7890625 74.5 462.5 74.5 c 4
 483.2109375 74.5 500 57.7109375 500 37 c 4x7fc0
425 224.5 m 5
 500 224.5 l 5
 500 37 l 5
 425 37 l 5
 425 224.5 l 5
275 74.5 m 4x9fc0
 357.841796875 74.5 425 141.658203125 425 224.5 c 4
 425 307.341796875 357.841796875 374.5 275 374.5 c 4
 192.158203125 374.5 125 307.341796875 125 224.5 c 4
 125 141.658203125 192.158203125 74.5 275 74.5 c 4x9fc0
275 -0.5 m 4
 150.734375 -0.5 50 100.234375 50 224.5 c 4
 50 348.765625 150.734375 449.5 275 449.5 c 4
 399.265625 449.5 500 348.765625 500 224.5 c 4
 500 100.234375 399.265625 -0.5 275 -0.5 c 4
350 599.5 m 4
 350 558.079101562 316.423828125 524.5 275 524.5 c 4
 233.579101562 524.5 200 558.079101562 200 599.5 c 4
 200 640.920898438 233.579101562 674.5 275 674.5 c 4
 316.423828125 674.5 350 640.920898438 350 599.5 c 4
237.52734375 599.5 m 4
 237.52734375 578.8046875 254.3046875 562.02734375 275 562.02734375 c 4
 295.6953125 562.02734375 312.475585938 578.8046875 312.475585938 599.5 c 4
 312.475585938 620.1953125 295.6953125 636.97265625 275 636.97265625 c 4
 254.3046875 636.97265625 237.52734375 620.1953125 237.52734375 599.5 c 4
EndSplineSet
Validated: 5
EndChar

StartChar: ae
Encoding: 230 230 58
Width: 530
Flags: W
HStem: 37.3398 39.2734<266.516 312.5> 268.104 75<423.518 464.938> 373.422 38.918<237.5 285.972>
VStem: 237.5 75<37.3398 131.562 187.99 412.34>
LayerCount: 2
Fore
SplineSet
445.836914062 93.0263671875 m 0
 445.836914062 72.3134765625 429.047851562 55.5263671875 408.336914062 55.5263671875 c 0
 387.626953125 55.5263671875 370.836914062 72.3134765625 370.836914062 93.0263671875 c 0
 370.836914062 113.734375 387.626953125 130.526367188 408.336914062 130.526367188 c 0
 429.047851562 130.526367188 445.836914062 113.734375 445.836914062 93.0263671875 c 0
481.73046875 305.604492188 m 0
 481.73046875 284.89453125 464.938476562 268.104492188 444.23046875 268.104492188 c 0
 423.517578125 268.104492188 406.73046875 284.89453125 406.73046875 305.604492188 c 0
 406.73046875 326.317382812 423.517578125 343.104492188 444.23046875 343.104492188 c 0
 464.938476562 343.104492188 481.73046875 326.317382812 481.73046875 305.604492188 c 0
434.098632812 65.7412109375 m 1
 400.32421875 31.96484375 356.676757812 9.81640625 309.474609375 2.4990234375 c 0
 262.272460938 -4.822265625 213.966796875 3.0703125 171.549804688 25.033203125 c 0
 129.1328125 46.994140625 94.8046875 81.88671875 73.537109375 124.65234375 c 0
 52.267578125 167.423828125 45.1611328125 215.848632812 53.2470703125 262.92578125 c 0
 61.3330078125 310.001953125 84.189453125 353.283203125 118.5078125 386.505859375 c 0
 152.829101562 419.725585938 196.831054688 441.1640625 244.145507812 447.713867188 c 0
 291.45703125 454.263671875 339.62890625 445.587890625 381.684570312 422.94140625 c 4
 423.740234375 400.291992188 457.495117188 364.84765625 478.063476562 321.740234375 c 1
 410.375976562 289.4375 l 1
 396.662109375 318.177734375 374.157226562 341.805664062 346.123046875 356.90625 c 0
 318.0859375 372.00390625 285.971679688 377.787109375 254.430664062 373.421875 c 0
 222.887695312 369.0546875 193.5546875 354.76171875 170.673828125 332.616210938 c 0
 147.794921875 310.467773438 132.555664062 281.61328125 127.16796875 250.23046875 c 0
 121.77734375 218.846679688 126.513671875 186.564453125 140.693359375 158.05078125 c 0
 154.873046875 129.537109375 177.755859375 106.278320312 206.03515625 91.63671875 c 0
 234.313476562 76.99609375 266.515625 71.734375 297.983398438 76.61328125 c 0
 329.450195312 81.4931640625 358.546875 96.26171875 381.064453125 118.775390625 c 1
 434.098632812 65.7412109375 l 1
237.5 412.33984375 m 1
 312.5 412.33984375 l 1
 312.5 37.33984375 l 1
 237.5 37.33984375 l 1
 237.5 412.33984375 l 1
419.669921875 333.947265625 m 1
 469.07421875 277.518554688 l 1
 302.368164062 131.561523438 l 1
 252.963867188 187.990234375 l 1
 419.669921875 333.947265625 l 1
445.836914062 93.0263671875 m 0
 445.836914062 72.3134765625 429.047851562 55.5263671875 408.336914062 55.5263671875 c 0
 387.626953125 55.5263671875 370.836914062 72.3134765625 370.836914062 93.0263671875 c 0
 370.836914062 113.734375 387.626953125 130.526367188 408.336914062 130.526367188 c 0
 429.047851562 130.526367188 445.836914062 113.734375 445.836914062 93.0263671875 c 0
481.73046875 305.604492188 m 0
 481.73046875 284.89453125 464.938476562 268.104492188 444.23046875 268.104492188 c 0
 423.517578125 268.104492188 406.73046875 284.89453125 406.73046875 305.604492188 c 0
 406.73046875 326.317382812 423.517578125 343.104492188 444.23046875 343.104492188 c 0
 464.938476562 343.104492188 481.73046875 326.317382812 481.73046875 305.604492188 c 0
434.098632812 65.7412109375 m 1
 400.32421875 31.96484375 356.676757812 9.81640625 309.474609375 2.4990234375 c 0
 262.272460938 -4.822265625 213.966796875 3.0703125 171.549804688 25.033203125 c 0
 129.1328125 46.994140625 94.8046875 81.88671875 73.537109375 124.65234375 c 0
 52.267578125 167.423828125 45.1611328125 215.848632812 53.2470703125 262.92578125 c 0
 61.3330078125 310.001953125 84.189453125 353.283203125 118.5078125 386.505859375 c 0
 152.829101562 419.725585938 196.831054688 441.1640625 244.145507812 447.713867188 c 0
 291.45703125 454.263671875 339.62890625 445.587890625 381.684570312 422.94140625 c 0
 423.740234375 400.291992188 457.495117188 364.84765625 478.063476562 321.740234375 c 1
 410.375976562 289.4375 l 1
 396.662109375 318.177734375 374.157226562 341.805664062 346.123046875 356.90625 c 0
 318.0859375 372.00390625 285.971679688 377.787109375 254.430664062 373.421875 c 0
 222.887695312 369.0546875 193.5546875 354.76171875 170.673828125 332.616210938 c 0
 147.794921875 310.467773438 132.555664062 281.61328125 127.16796875 250.23046875 c 0
 121.77734375 218.846679688 126.513671875 186.564453125 140.693359375 158.05078125 c 0
 154.873046875 129.537109375 177.755859375 106.278320312 206.03515625 91.63671875 c 0
 234.313476562 76.99609375 266.515625 71.734375 297.983398438 76.61328125 c 0
 329.450195312 81.4931640625 358.546875 96.26171875 381.064453125 118.775390625 c 1
 434.098632812 65.7412109375 l 1
237.5 412.33984375 m 1
 312.5 412.33984375 l 1
 312.5 37.33984375 l 1
 237.5 37.33984375 l 1
 237.5 412.33984375 l 1
419.669921875 333.947265625 m 1
 469.07421875 277.518554688 l 1
 302.368164062 131.561523438 l 1
 252.963867188 187.990234375 l 1
 419.669921875 333.947265625 l 1
EndSplineSet
Validated: 37
EndChar

StartChar: zero
Encoding: 48 48 59
Width: 550
Flags: W
HStem: -0.5 74.9922<197.503 352.498> 223.25 1.25<50 124.992 425.008 500> 449.5 1.25<50 124.992 425.008 500> 599.508 74.9922<197.503 352.498>
VStem: 50 75<146.584 527.416> 425 75<146.584 527.416>
LayerCount: 2
Fore
SplineSet
124.9921875 449.5 m 5
 50 449.5 l 5
 50 475.078125 54.3603515625 500.439453125 62.869140625 524.5 c 4
 64.1875 528.232421875 65.607421875 531.936523438 67.126953125 535.603515625 c 4
 78.435546875 562.900390625 95.0078125 587.705078125 115.900390625 608.599609375 c 4
 136.794921875 629.4921875 161.599609375 646.064453125 188.896484375 657.373046875 c 4
 216.193359375 668.6796875 245.451171875 674.5 275 674.5 c 4
 304.548828125 674.5 333.806640625 668.6796875 361.10546875 657.373046875 c 4
 388.403320312 646.064453125 413.205078125 629.4921875 434.099609375 608.599609375 c 4
 454.9921875 587.705078125 471.564453125 562.900390625 482.873046875 535.603515625 c 4
 484.392578125 531.936523438 485.8125 528.232421875 487.130859375 524.5 c 4
 495.639648438 500.439453125 500 475.078125 500 449.5 c 5
 425.0078125 449.5 l 5
 425.0078125 469.19921875 421.127929688 488.70703125 413.588867188 506.904296875 c 4
 406.049804688 525.10546875 395.001953125 541.643554688 381.072265625 555.572265625 c 4
 367.143554688 569.501953125 350.60546875 580.549804688 332.404296875 588.088867188 c 4
 314.204101562 595.627929688 294.69921875 599.5078125 275 599.5078125 c 4
 255.30078125 599.5078125 235.79296875 595.627929688 217.595703125 588.088867188 c 4
 199.39453125 580.552734375 182.856445312 569.501953125 168.927734375 555.572265625 c 4
 154.998046875 541.643554688 143.947265625 525.10546875 136.411132812 506.904296875 c 4
 128.872070312 488.70703125 124.9921875 469.19921875 124.9921875 449.5 c 5
124.9921875 224.5 m 5
 124.9921875 204.80078125 128.872070312 185.295898438 136.411132812 167.095703125 c 4
 143.947265625 148.89453125 154.998046875 132.356445312 168.927734375 118.427734375 c 4
 182.856445312 104.498046875 199.39453125 93.4501953125 217.595703125 85.9111328125 c 4
 235.79296875 78.3720703125 255.30078125 74.4921875 275 74.4921875 c 4
 294.69921875 74.4921875 314.204101562 78.3720703125 332.404296875 85.9111328125 c 4
 350.60546875 93.4501953125 367.143554688 104.498046875 381.072265625 118.427734375 c 4
 395.001953125 132.356445312 406.049804688 148.89453125 413.588867188 167.095703125 c 4
 421.127929688 185.295898438 425.0078125 204.80078125 425.0078125 224.5 c 5
 500 224.5 l 5
 500 198.921875 495.639648438 173.560546875 487.130859375 149.5 c 4
 485.8125 145.764648438 484.392578125 142.063476562 482.873046875 138.396484375 c 4
 471.564453125 111.096679688 454.9921875 86.294921875 434.099609375 65.400390625 c 4
 413.205078125 44.5078125 388.403320312 27.935546875 361.10546875 16.626953125 c 4
 333.806640625 5.3203125 304.548828125 -0.5 275 -0.5 c 4
 245.451171875 -0.5 216.193359375 5.3203125 188.896484375 16.626953125 c 4
 161.599609375 27.935546875 136.794921875 44.5078125 115.900390625 65.400390625 c 4
 95.0078125 86.294921875 78.435546875 111.096679688 67.126953125 138.396484375 c 4
 65.607421875 142.063476562 64.1875 145.764648438 62.869140625 149.5 c 4
 54.3603515625 173.560546875 50 198.921875 50 224.5 c 5
 124.9921875 224.5 l 5
50 450.75 m 5
 125 450.75 l 5
 125 223.25 l 5
 50 223.25 l 5
 50 450.75 l 5
425 450.75 m 5
 500 450.75 l 5
 500 223.25 l 5
 425 223.25 l 5
 425 450.75 l 5
97.5244140625 564.397460938 m 5
 162.475585938 601.897460938 l 5
 452.475585938 99.6025390625 l 5
 387.524414062 62.1025390625 l 5
 97.5244140625 564.397460938 l 5
EndSplineSet
Validated: 5
EndChar

StartChar: one
Encoding: 49 49 60
Width: 440
Flags: W
HStem: -0.5 75<200.034 241.455> -0.5 21G<205.97 235.518> 42 32.4902<201.045 240.444> 599.5 37.5<200.034 241.455> 654.5 20G<205.968 220.742>
VStem: 50 208.244<71.8613 113.281 560.719 602.139> 183.244 75<16.2891 74.4902 74.5 599.5 599.508 657.711> 183.244 37.498<599.508 599.508 637 657.711>
LayerCount: 2
Fore
SplineSet
61.642578125 608.599609375 m 5x19
 82.537109375 629.4921875 107.341796875 646.064453125 134.638671875 657.373046875 c 4
 161.935546875 668.6796875 191.193359375 674.5 220.7421875 674.5 c 5
 220.7421875 599.5078125 l 5
 201.04296875 599.5078125 181.53515625 595.627929688 163.337890625 588.088867188 c 4
 145.13671875 580.549804688 128.6015625 569.5 114.669921875 555.572265625 c 5
 61.642578125 608.599609375 l 5x19
379.841796875 65.400390625 m 5
 358.950195312 44.5078125 334.145507812 27.935546875 306.84765625 16.626953125 c 4
 279.548828125 5.3203125 250.291015625 -0.5 220.744140625 -0.5 c 4x98
 191.196289062 -0.5 161.938476562 5.3203125 134.638671875 16.626953125 c 4
 107.341796875 27.935546875 82.537109375 44.5078125 61.6455078125 65.400390625 c 5
 114.669921875 118.427734375 l 5
 128.598632812 104.498046875 145.13671875 93.447265625 163.337890625 85.908203125 c 4
 181.538085938 78.369140625 201.044921875 74.490234375 220.744140625 74.490234375 c 4x38
 240.444335938 74.490234375 259.951171875 78.369140625 278.149414062 85.908203125 c 4
 296.349609375 93.447265625 312.888671875 104.498046875 326.81640625 118.427734375 c 5
 379.841796875 65.400390625 l 5
391.484375 92.5712890625 m 4
 391.484375 71.861328125 374.6953125 55.0712890625 353.984375 55.0712890625 c 4
 333.271484375 55.0712890625 316.484375 71.861328125 316.484375 92.5712890625 c 4
 316.484375 113.28125 333.271484375 130.071289062 353.984375 130.071289062 c 4
 374.6953125 130.071289062 391.484375 113.28125 391.484375 92.5712890625 c 4
125 92.5712890625 m 4
 125 71.861328125 108.2109375 55.0712890625 87.5 55.0712890625 c 4
 66.7890625 55.0712890625 50 71.861328125 50 92.5712890625 c 4x1c
 50 113.28125 66.7890625 130.071289062 87.5 130.071289062 c 4
 108.2109375 130.071289062 125 113.28125 125 92.5712890625 c 4
183.244140625 637 m 5x3a
 258.244140625 637 l 5
 258.244140625 42 l 5
 183.244140625 42 l 5
 183.244140625 637 l 5x3a
258.244140625 637 m 4
 258.244140625 616.2890625 241.455078125 599.5 220.744140625 599.5 c 4
 200.034179688 599.5 183.244140625 616.2890625 183.244140625 637 c 4x1a
 183.244140625 657.7109375 200.03125 674.5 220.7421875 674.5 c 4x19
 241.453125 674.5 258.244140625 657.7109375 258.244140625 637 c 4
125 581.428710938 m 4
 125 560.71875 108.2109375 543.928710938 87.5 543.928710938 c 4
 66.7890625 543.928710938 50 560.71875 50 581.428710938 c 4x1c
 50 602.138671875 66.7890625 618.928710938 87.5 618.928710938 c 4
 108.2109375 618.928710938 125 602.138671875 125 581.428710938 c 4
258.244140625 37 m 4x9a
 258.244140625 16.2890625 241.455078125 -0.5 220.744140625 -0.5 c 4
 200.034179688 -0.5 183.244140625 16.2890625 183.244140625 37 c 4
 183.244140625 57.7109375 200.034179688 74.5 220.744140625 74.5 c 4
 241.455078125 74.5 258.244140625 57.7109375 258.244140625 37 c 4x9a
61.642578125 608.599609375 m 1
 82.537109375 629.4921875 107.341796875 646.064453125 134.638671875 657.373046875 c 0
 161.935546875 668.6796875 191.193359375 674.5 220.7421875 674.5 c 1
 220.7421875 599.5078125 l 1x19
 201.04296875 599.5078125 181.53515625 595.627929688 163.337890625 588.088867188 c 0
 145.13671875 580.549804688 128.6015625 569.5 114.669921875 555.572265625 c 1
 61.642578125 608.599609375 l 1
379.841796875 65.400390625 m 1
 358.950195312 44.5078125 334.145507812 27.935546875 306.84765625 16.626953125 c 0
 279.548828125 5.3203125 250.291015625 -0.5 220.744140625 -0.5 c 0x98
 191.196289062 -0.5 161.938476562 5.3203125 134.638671875 16.626953125 c 0
 107.341796875 27.935546875 82.537109375 44.5078125 61.6455078125 65.400390625 c 1
 114.669921875 118.427734375 l 1
 128.598632812 104.498046875 145.13671875 93.447265625 163.337890625 85.908203125 c 0
 181.538085938 78.369140625 201.044921875 74.490234375 220.744140625 74.490234375 c 0x38
 240.444335938 74.490234375 259.951171875 78.369140625 278.149414062 85.908203125 c 0
 296.349609375 93.447265625 312.888671875 104.498046875 326.81640625 118.427734375 c 1
 379.841796875 65.400390625 l 1
391.484375 92.5712890625 m 0
 391.484375 71.861328125 374.6953125 55.0712890625 353.984375 55.0712890625 c 0
 333.271484375 55.0712890625 316.484375 71.861328125 316.484375 92.5712890625 c 0
 316.484375 113.28125 333.271484375 130.071289062 353.984375 130.071289062 c 0
 374.6953125 130.071289062 391.484375 113.28125 391.484375 92.5712890625 c 0
125 92.5712890625 m 0
 125 71.861328125 108.2109375 55.0712890625 87.5 55.0712890625 c 0
 66.7890625 55.0712890625 50 71.861328125 50 92.5712890625 c 0x1c
 50 113.28125 66.7890625 130.071289062 87.5 130.071289062 c 0
 108.2109375 130.071289062 125 113.28125 125 92.5712890625 c 0
183.244140625 637 m 1x3a
 258.244140625 637 l 1
 258.244140625 42 l 1
 183.244140625 42 l 1
 183.244140625 637 l 1x3a
258.244140625 637 m 0
 258.244140625 616.2890625 241.455078125 599.5 220.744140625 599.5 c 0
 200.034179688 599.5 183.244140625 616.2890625 183.244140625 637 c 0x1a
 183.244140625 657.7109375 200.03125 674.5 220.7421875 674.5 c 0x19
 241.453125 674.5 258.244140625 657.7109375 258.244140625 637 c 0
125 581.428710938 m 0
 125 560.71875 108.2109375 543.928710938 87.5 543.928710938 c 0
 66.7890625 543.928710938 50 560.71875 50 581.428710938 c 0x1c
 50 602.138671875 66.7890625 618.928710938 87.5 618.928710938 c 0
 108.2109375 618.928710938 125 602.138671875 125 581.428710938 c 0
258.244140625 37 m 0x9a
 258.244140625 16.2890625 241.455078125 -0.5 220.744140625 -0.5 c 0
 200.034179688 -0.5 183.244140625 16.2890625 183.244140625 37 c 0
 183.244140625 57.7109375 200.034179688 74.5 220.744140625 74.5 c 0
 241.455078125 74.5 258.244140625 57.7109375 258.244140625 37 c 0x9a
EndSplineSet
Validated: 5
EndChar

StartChar: two
Encoding: 50 50 61
Width: 524
Flags: W
HStem: -0.270508 75<55.5611 89.4141 126.863 471.615>
VStem: 89.4141 37.4492<17.7843 69.3003> 400.174 74.9062<371.719 527.994>
LayerCount: 2
Fore
SplineSet
125 542.688476562 m 4
 125 521.977539062 108.2109375 505.188476562 87.5 505.188476562 c 4
 66.7890625 505.188476562 50 521.977539062 50 542.688476562 c 4
 50 563.3984375 66.7890625 580.188476562 87.5 580.188476562 c 4
 108.2109375 580.188476562 125 563.3984375 125 542.688476562 c 4
55.478515625 562.219726562 m 5
 71.6064453125 590.151367188 93.5498046875 614.291992188 119.82421875 633.000976562 c 4
 146.098632812 651.708984375 176.0859375 664.55078125 207.758789062 670.654296875 c 4
 239.428710938 676.7578125 272.04296875 675.981445312 303.388671875 668.374023438 c 4
 334.731445312 660.76953125 364.07421875 646.513671875 389.428710938 626.575195312 c 4
 414.780273438 606.635742188 435.548828125 581.479492188 450.327148438 552.810546875 c 4
 465.107421875 524.140625 473.546875 492.629882812 475.080078125 460.41015625 c 4
 476.611328125 428.193359375 471.203125 396.0234375 459.2109375 366.079101562 c 4
 447.221679688 336.137695312 428.935546875 309.12109375 405.590820312 286.868164062 c 5
 353.842773438 341.145507812 l 5
 369.40625 355.984375 381.599609375 373.994140625 389.591796875 393.958007812 c 4
 397.587890625 413.918945312 401.193359375 435.369140625 400.173828125 456.848632812 c 4
 399.15234375 478.328125 393.5234375 499.3359375 383.669921875 518.450195312 c 4
 373.818359375 537.563476562 359.970703125 554.3359375 343.06640625 567.629882812 c 4
 326.1640625 580.922851562 306.6015625 590.427734375 285.705078125 595.498046875 c 4
 264.806640625 600.56640625 243.064453125 601.086914062 221.948242188 597.016601562 c 4
 200.834960938 592.947265625 180.83984375 584.387695312 163.322265625 571.912109375 c 4
 145.805664062 559.438476562 131.176757812 543.344726562 120.424804688 524.724609375 c 5
 55.478515625 562.219726562 l 5
353.84765625 341.165039062 m 5
 405.59765625 286.877929688 l 5
 115.141601562 9.990234375 l 5
 63.3935546875 64.27734375 l 5
 353.84765625 341.165039062 l 5
126.86328125 37.2294921875 m 4
 126.86328125 16.5185546875 110.073242188 -0.2705078125 89.36328125 -0.2705078125 c 4
 68.65234375 -0.2705078125 51.86328125 16.5185546875 51.86328125 37.2294921875 c 4
 51.86328125 57.939453125 68.65234375 74.7294921875 89.36328125 74.7294921875 c 4
 110.073242188 74.7294921875 126.86328125 57.939453125 126.86328125 37.2294921875 c 4
89.4140625 74.7197265625 m 5
 437.8125 74.7197265625 l 6
 458.5234375 74.7197265625 475.3125 57.9296875 475.3125 37.2197265625 c 4
 475.3125 16.5087890625 458.5234375 -0.2802734375 437.8125 -0.2802734375 c 6
 89.4140625 -0.2802734375 l 5
 89.4140625 74.7197265625 l 5
EndSplineSet
Validated: 37
EndChar

StartChar: three
Encoding: 51 51 62
Width: 532
Flags: W
HStem: 0.103516 74.958<180.92 336.177> 372.262 74.46<192.763 339.65>
VStem: 408.184 74.8076<146.824 303.237>
LayerCount: 2
Fore
SplineSet
264.065429688 409.76171875 m 0
 264.065429688 389.05078125 247.275390625 372.26171875 226.565429688 372.26171875 c 0
 205.854492188 372.26171875 189.065429688 389.05078125 189.065429688 409.76171875 c 0
 189.065429688 430.471679688 205.854492188 447.26171875 226.565429688 447.26171875 c 0
 247.275390625 447.26171875 264.065429688 430.471679688 264.065429688 409.76171875 c 0
125 148.16015625 m 0
 125 127.451171875 108.2109375 110.66015625 87.5 110.66015625 c 0
 66.7900390625 110.66015625 50 127.451171875 50 148.16015625 c 0
 50 168.873046875 66.7900390625 185.66015625 87.5 185.66015625 c 0
 108.2109375 185.66015625 125 168.873046875 125 148.16015625 c 0
53.65234375 132.01953125 m 1
 121.943359375 163.010742188 l 1
 133.530273438 137.4765625 152.043945312 115.701171875 175.380859375 100.15234375 c 0
 198.71875 84.607421875 225.9453125 75.9140625 253.97265625 75.0615234375 c 0
 282 74.205078125 309.70703125 81.2236328125 333.9453125 95.318359375 c 0
 358.188476562 109.412109375 377.993164062 130.01953125 391.11328125 154.802734375 c 0
 404.236328125 179.583007812 410.149414062 207.544921875 408.18359375 235.517578125 c 0
 406.215820312 263.4921875 396.448242188 290.349609375 379.98828125 313.052734375 c 0
 363.528320312 335.751953125 341.03515625 353.388671875 315.061523438 363.951171875 c 0
 289.084960938 374.514648438 260.668945312 377.587890625 233.037109375 372.8203125 c 1
 220.286132812 446.721679688 l 1
 261.733398438 453.873046875 304.353515625 449.263671875 343.313476562 433.41796875 c 0
 382.2734375 417.57421875 416.013671875 391.123046875 440.701171875 357.073242188 c 0
 465.390625 323.0234375 480.041992188 282.732421875 482.991210938 240.77734375 c 0
 485.940429688 198.82421875 477.0703125 156.880859375 457.387695312 119.709960938 c 0
 437.708007812 82.5390625 408.002929688 51.630859375 371.643554688 30.48828125 c 0
 335.283203125 9.3486328125 293.725585938 -1.1787109375 251.6875 0.103515625 c 0
 209.646484375 1.3828125 168.80859375 14.421875 133.803710938 37.740234375 c 0
 98.8017578125 61.0576171875 71.033203125 93.720703125 53.65234375 132.01953125 c 1
176.889648438 578.388671875 m 0
 176.889648438 557.678710938 160.102539062 540.888671875 139.389648438 540.888671875 c 0
 118.6796875 540.888671875 101.889648438 557.678710938 101.889648438 578.388671875 c 0
 101.889648438 599.099609375 118.6796875 615.888671875 139.389648438 615.888671875 c 0
 160.102539062 615.888671875 176.889648438 599.099609375 176.889648438 578.388671875 c 0
109.241210938 600.69140625 m 1
 139.260742188 640.334960938 183.801757812 666.431640625 233.061523438 673.232421875 c 0
 282.322265625 680.037109375 332.268554688 666.995117188 371.912109375 636.97265625 c 0
 411.552734375 606.951171875 437.649414062 562.412109375 444.453125 513.15234375 c 0
 451.254882812 463.892578125 438.212890625 413.9453125 408.19140625 374.302734375 c 1
 348.40625 419.578125 l 1
 366.418945312 443.365234375 374.24609375 473.333007812 370.1640625 502.890625 c 0
 366.08203125 532.44921875 350.422851562 559.172851562 326.635742188 577.1875 c 0
 302.849609375 595.201171875 272.880859375 603.02734375 243.323242188 598.943359375 c 0
 213.764648438 594.861328125 187.041015625 579.205078125 169.026367188 555.41796875 c 1
 109.241210938 600.69140625 l 1
EndSplineSet
Validated: 37
EndChar

StartChar: four
Encoding: 52 52 63
Width: 550
Flags: W
HStem: -0.5 21G<452.145 472.855> -0.5 21G<452.145 472.855> 268.294 74.8467<197.185 352.861> 654.5 20G<144.723 165.434 452.145 472.855>
VStem: 51.7773 74.3994<413.491 572.241> 425 75<3.19786 670.802>
LayerCount: 2
Fore
SplineSet
192.578125 637 m 4x3c
 192.578125 616.2890625 175.7890625 599.5 155.078125 599.5 c 4
 134.3671875 599.5 117.578125 616.2890625 117.578125 637 c 4
 117.578125 657.7109375 134.3671875 674.5 155.078125 674.5 c 4
 175.7890625 674.5 192.578125 657.7109375 192.578125 637 c 4x3c
500 492.849609375 m 5
 500 454.951171875 490.427734375 417.666015625 472.169921875 384.458984375 c 4
 453.9140625 351.248046875 427.563476562 323.186523438 395.564453125 302.87890625 c 4
 363.56640625 282.571289062 326.9609375 270.673828125 289.135742188 268.293945312 c 4
 251.313476562 265.9140625 213.500976562 273.125 179.208984375 289.260742188 c 4
 144.916992188 305.393554688 115.255859375 329.927734375 92.978515625 360.5859375 c 4
 70.701171875 391.24609375 56.5283203125 427.034179688 51.77734375 464.634765625 c 4
 47.0234375 502.232421875 51.845703125 540.422851562 65.79296875 575.66015625 c 4
 79.7412109375 610.896484375 102.36328125 642.041015625 131.5625 666.201171875 c 5
 179.370117188 608.423828125 l 5
 159.90234375 592.314453125 144.822265625 571.552734375 135.522460938 548.059570312 c 4
 126.22265625 524.56640625 123.0078125 499.104492188 126.176757812 474.0390625 c 4
 129.345703125 448.970703125 138.793945312 425.110351562 153.647460938 404.670898438 c 4
 168.498046875 384.228515625 188.2734375 367.87109375 211.137695312 357.115234375 c 4
 233.999023438 346.360351562 259.208984375 341.552734375 284.423828125 343.140625 c 4
 309.643554688 344.7265625 334.047851562 352.65625 355.3828125 366.197265625 c 4
 376.713867188 379.734375 394.282226562 398.443359375 406.453125 420.583984375 c 4
 418.625 442.724609375 425.0078125 467.583984375 425.0078125 492.849609375 c 5
 500 492.849609375 l 5
425 637 m 6
 425 657.7109375 441.7890625 674.5 462.5 674.5 c 4
 483.2109375 674.5 500 657.7109375 500 637 c 6
 500 37 l 6
 500 16.2890625 483.2109375 -0.5 462.5 -0.5 c 4xbc
 441.7890625 -0.5 425 16.2890625 425 37 c 6
 425 637 l 6
EndSplineSet
Validated: 37
EndChar

StartChar: five
Encoding: 53 53 64
Width: 504
Flags: W
HStem: 374.404 74.9219<154.392 307.071>
LayerCount: 2
Fore
SplineSet
416.014648438 623.5390625 m 4
 419.989257812 603.21484375 406.734375 583.515625 386.41015625 579.541015625 c 4
 366.080078125 575.56640625 346.3828125 588.8203125 342.408203125 609.14453125 c 4
 338.43359375 629.47265625 351.688476562 649.169921875 372.012695312 653.146484375 c 4
 392.33984375 657.12109375 412.040039062 643.8671875 416.014648438 623.5390625 c 4
86.3466796875 361.901367188 m 5
 68.3310546875 404.50390625 63.8828125 451.623046875 73.607421875 496.842773438 c 4
 83.333984375 542.064453125 106.758789062 583.1875 140.697265625 614.619140625 c 4
 174.6328125 646.046875 217.432617188 666.251953125 263.265625 672.484375 c 4
 309.09765625 678.71484375 355.73828125 670.670898438 396.834960938 649.443359375 c 5
 362.41796875 582.814453125 l 5
 335.020507812 596.966796875 303.926757812 602.331054688 273.368164062 598.17578125 c 4
 242.811523438 594.020507812 214.278320312 580.548828125 191.651367188 559.596679688 c 4
 169.02734375 538.642578125 153.409179688 511.224609375 146.924804688 481.076171875 c 4
 140.440429688 450.927734375 143.407226562 419.513671875 155.416015625 391.110351562 c 5
 86.3466796875 361.901367188 l 5
157.435546875 384.333007812 m 4
 161.41015625 364.0078125 148.155273438 344.30859375 127.828125 340.333984375 c 4
 107.50390625 336.357421875 87.8037109375 349.61328125 83.8291015625 369.938476562 c 4
 79.8544921875 390.265625 93.109375 409.962890625 113.43359375 413.9375 c 4
 133.760742188 417.912109375 153.4609375 404.658203125 157.435546875 384.333007812 c 4
124.310546875 109.359375 m 4
 128.28515625 89.033203125 115.030273438 69.3359375 94.703125 65.361328125 c 4
 74.37890625 61.38671875 54.6787109375 74.640625 50.7041015625 94.96484375 c 4
 46.7294921875 115.290039062 59.984375 134.990234375 80.30859375 138.966796875 c 4
 100.635742188 142.94140625 120.3359375 129.684570312 124.310546875 109.359375 c 4
98.7998046875 407.630859375 m 5
 134.263671875 432.958984375 176.319335938 447.443359375 219.857421875 449.326171875 c 4
 263.397460938 451.208007812 306.543945312 440.404296875 344.05859375 418.2265625 c 4
 381.576171875 396.056640625 411.844726562 363.463867188 431.190429688 324.411132812 c 4
 450.533203125 285.361328125 458.12109375 241.533203125 453.03125 198.25390625 c 4
 447.940429688 154.970703125 430.391601562 114.1015625 402.513671875 80.6025390625 c 4
 374.637695312 47.109375 337.630859375 22.4287109375 295.9921875 9.5625 c 4
 254.356445312 -3.30078125 209.87890625 -3.798828125 167.96484375 8.134765625 c 4
 126.05078125 20.0654296875 88.5048828125 43.9130859375 59.88671875 76.779296875 c 5
 116.44140625 126.025390625 l 5
 135.521484375 104.115234375 160.555664062 88.21484375 188.497070312 80.2607421875 c 4
 216.44140625 72.306640625 246.094726562 72.63671875 273.856445312 81.212890625 c 4
 301.615234375 89.7890625 326.28515625 106.2421875 344.872070312 128.576171875 c 4
 363.456054688 150.908203125 375.16015625 178.158203125 378.55078125 207.013671875 c 4
 381.947265625 235.869140625 376.885742188 265.087890625 363.98828125 291.123046875 c 4
 351.094726562 317.158203125 330.9140625 338.888671875 305.90234375 353.671875 c 4
 280.889648438 368.45703125 252.123046875 375.658203125 223.094726562 374.404296875 c 4
 194.068359375 373.1484375 166.029296875 363.490234375 142.38671875 346.60546875 c 5
 98.7998046875 407.630859375 l 5
EndSplineSet
Validated: 37
EndChar

StartChar: six
Encoding: 54 54 65
Width: 550
Flags: W
HStem: -0.203125 74.9932<197.426 352.574> 374.805 74.9922<197.426 352.574> 449.797 21G<50 124.992>
VStem: 50 74.9922<147.223 526.856> 425.008 74.9922<147.223 302.371>
LayerCount: 2
Fore
SplineSet
500 224.796875 m 4xd8
 500 100.532226562 399.265625 -0.203125 275 -0.203125 c 4
 150.734375 -0.203125 50 100.532226562 50 224.796875 c 4
 50 349.0625 150.734375 449.796875 275 449.796875 c 4
 399.265625 449.796875 500 349.0625 500 224.796875 c 4xd8
124.9921875 224.796875 m 4
 124.9921875 141.950195312 192.153320312 74.7900390625 275 74.7900390625 c 4
 357.846679688 74.7900390625 425.0078125 141.950195312 425.0078125 224.796875 c 4
 425.0078125 307.643554688 357.846679688 374.8046875 275 374.8046875 c 4
 192.153320312 374.8046875 124.9921875 307.643554688 124.9921875 224.796875 c 4
444.853515625 582.619140625 m 4
 444.853515625 561.90625 428.061523438 545.119140625 407.353515625 545.119140625 c 4
 386.640625 545.119140625 369.853515625 561.90625 369.853515625 582.619140625 c 4
 369.853515625 603.330078125 386.640625 620.119140625 407.353515625 620.119140625 c 4
 428.061523438 620.119140625 444.853515625 603.330078125 444.853515625 582.619140625 c 4
50 449.796875 m 5xb8
 50 494.298828125 63.1953125 537.799804688 87.919921875 574.799804688 c 4
 112.641601562 611.801757812 147.783203125 640.639648438 188.896484375 657.670898438 c 4
 230.009765625 674.69921875 275.249023438 679.155273438 318.89453125 670.473632812 c 4
 362.5390625 661.791992188 402.631835938 640.36328125 434.099609375 608.896484375 c 5
 381.072265625 555.869140625 l 5
 360.092773438 576.84765625 333.361328125 591.134765625 304.265625 596.920898438 c 4
 275.166015625 602.709960938 245.004882812 599.73828125 217.595703125 588.385742188 c 4
 190.18359375 577.03125 166.755859375 557.8046875 150.2734375 533.13671875 c 4
 133.7890625 508.46875 124.9921875 479.46484375 124.9921875 449.796875 c 5
 50 449.796875 l 5xb8
50 449.796875 m 5
 125 449.796875 l 5
 125 224.796875 l 5
 50 224.796875 l 5
 50 449.796875 l 5
EndSplineSet
Validated: 37
EndChar

StartChar: seven
Encoding: 55 55 66
Width: 550
Flags: W
HStem: 411.613 21G<77.1445 97.8555> 449.113 37.5<66.7891 108.211> 599.113 75<235.215 425 426.27 483.211>
VStem: 50 75<428.402 488.898> 425 37.5<615.902 657.324>
LayerCount: 2
Fore
SplineSet
426.26953125 646.291015625 m 2
 431.630859375 666.295898438 452.192382812 678.16796875 472.197265625 672.806640625 c 0
 492.202148438 667.448242188 504.07421875 646.884765625 498.715820312 626.87890625 c 2
 337.954101562 26.9208984375 l 2
 332.595703125 6.916015625 312.033203125 -4.95703125 292.026367188 0.40234375 c 0
 272.021484375 5.763671875 260.151367188 26.328125 265.509765625 46.330078125 c 2
 426.26953125 646.291015625 l 2
50 449.11328125 m 1
 50 508.786132812 73.7060546875 566.017578125 115.900390625 608.212890625 c 0
 158.095703125 650.407226562 215.327148438 674.11328125 275 674.11328125 c 1
 275 599.12109375 l 1
 235.21484375 599.12109375 197.060546875 583.317382812 168.927734375 555.185546875 c 0
 140.795898438 527.052734375 124.9921875 488.8984375 124.9921875 449.11328125 c 1
 50 449.11328125 l 1
125 449.11328125 m 0
 125 428.40234375 108.2109375 411.61328125 87.5 411.61328125 c 0
 66.7890625 411.61328125 50 428.40234375 50 449.11328125 c 0
 50 469.82421875 66.7890625 486.61328125 87.5 486.61328125 c 0
 108.2109375 486.61328125 125 469.82421875 125 449.11328125 c 0
500 636.61328125 m 0
 500 615.90234375 483.2109375 599.11328125 462.5 599.11328125 c 0
 441.7890625 599.11328125 425 615.90234375 425 636.61328125 c 0
 425 657.32421875 441.7890625 674.11328125 462.5 674.11328125 c 0
 483.2109375 674.11328125 500 657.32421875 500 636.61328125 c 0
275 674.11328125 m 1
 462.5 674.11328125 l 1
 462.5 599.11328125 l 1
 275 599.11328125 l 1
 275 674.11328125 l 1
426.26953125 646.291015625 m 2
 431.630859375 666.295898438 452.192382812 678.16796875 472.197265625 672.806640625 c 0
 492.202148438 667.448242188 504.07421875 646.884765625 498.715820312 626.87890625 c 2
 337.954101562 26.9208984375 l 2
 332.595703125 6.916015625 312.033203125 -4.95703125 292.026367188 0.40234375 c 0
 272.021484375 5.763671875 260.151367188 26.328125 265.509765625 46.330078125 c 2
 426.26953125 646.291015625 l 2
50 449.11328125 m 1
 50 508.786132812 73.7060546875 566.017578125 115.900390625 608.212890625 c 0
 158.095703125 650.407226562 215.327148438 674.11328125 275 674.11328125 c 1
 275 599.12109375 l 1
 235.21484375 599.12109375 197.060546875 583.317382812 168.927734375 555.185546875 c 0
 140.795898438 527.052734375 124.9921875 488.8984375 124.9921875 449.11328125 c 1
 50 449.11328125 l 1
125 449.11328125 m 0
 125 428.40234375 108.2109375 411.61328125 87.5 411.61328125 c 0
 66.7890625 411.61328125 50 428.40234375 50 449.11328125 c 0
 50 469.82421875 66.7890625 486.61328125 87.5 486.61328125 c 0
 108.2109375 486.61328125 125 469.82421875 125 449.11328125 c 0
500 636.61328125 m 0
 500 615.90234375 483.2109375 599.11328125 462.5 599.11328125 c 0
 441.7890625 599.11328125 425 615.90234375 425 636.61328125 c 0
 425 657.32421875 441.7890625 674.11328125 462.5 674.11328125 c 0
 483.2109375 674.11328125 500 657.32421875 500 636.61328125 c 0
275 674.11328125 m 1
 462.5 674.11328125 l 1
 462.5 599.11328125 l 1
 275 599.11328125 l 1
 275 674.11328125 l 1
EndSplineSet
Validated: 37
EndChar

StartChar: eight
Encoding: 56 56 67
Width: 550
Flags: W
HStem: -0.5 74.9922<197.426 352.574> 374.508 74.9922<197.426 352.574> 599.51 74.9902<208.485 341.351>
VStem: 50 74.9922<146.926 302.074> 87.7148 74.9043<425.451 553.745> 387.385 74.9082<425.539 552.574> 425.008 74.9922<146.926 302.074>
LayerCount: 2
Fore
SplineSet
500 224.5 m 4xf2
 500 100.234375 399.265625 -0.5 275 -0.5 c 4
 150.734375 -0.5 50 100.234375 50 224.5 c 4
 50 348.765625 150.734375 449.5 275 449.5 c 4
 399.265625 449.5 500 348.765625 500 224.5 c 4xf2
124.9921875 224.5 m 4
 124.9921875 141.653320312 192.153320312 74.4921875 275 74.4921875 c 4
 357.846679688 74.4921875 425.0078125 141.653320312 425.0078125 224.5 c 4
 425.0078125 307.346679688 357.846679688 374.5078125 275 374.5078125 c 4
 192.153320312 374.5078125 124.9921875 307.346679688 124.9921875 224.5 c 4
118.920898438 383.1015625 m 5
 100.125 411.3359375 89.337890625 444.140625 87.71484375 478.020507812 c 4
 86.091796875 511.900390625 93.6865234375 545.5859375 109.6953125 575.491210938 c 4
 125.703125 605.396484375 149.5234375 630.396484375 178.618164062 647.83203125 c 4
 207.712890625 665.266601562 240.994140625 674.482421875 274.912109375 674.5 c 4
 308.833007812 674.514648438 342.119140625 665.330078125 371.23046875 647.922851562 c 4
 400.341796875 630.513671875 424.184570312 605.53515625 440.22265625 575.64453125 c 4
 456.2578125 545.7578125 463.884765625 512.078125 462.29296875 478.196289062 c 4
 460.701171875 444.314453125 449.946289062 411.5 431.176757812 383.245117188 c 5
 368.715820312 424.7421875 l 5
 379.978515625 441.6953125 386.430664062 461.38671875 387.384765625 481.716796875 c 4
 388.341796875 502.048828125 383.764648438 522.255859375 374.142578125 540.19140625 c 4
 364.51953125 558.127929688 350.212890625 573.115234375 332.7421875 583.5625 c 4
 315.275390625 594.006835938 295.30078125 599.51953125 274.946289062 599.509765625 c 4
 254.594726562 599.5 234.624023438 593.970703125 217.166015625 583.508789062 c 4
 199.70703125 573.044921875 185.415039062 558.04296875 175.80859375 540.09765625 c 4
 166.203125 522.15625 161.645507812 501.94140625 162.619140625 481.611328125 c 4xec
 163.59375 461.282226562 170.06640625 441.59765625 181.342773438 424.654296875 c 5
 118.920898438 383.1015625 l 5
EndSplineSet
Validated: 37
EndChar

StartChar: nine
Encoding: 57 57 68
Width: 550
Flags: W
HStem: 224.203 74.9932<197.426 352.574> 429.203 20G<425 500> 599.211 74.9922<197.426 352.574>
VStem: 50 74.9922<371.63 526.777> 425.008 74.9922<147.145 526.777>
LayerCount: 2
Fore
SplineSet
50 449.203125 m 4
 50 573.46875 150.734375 674.203125 275 674.203125 c 4
 399.265625 674.203125 500 573.46875 500 449.203125 c 4
 500 324.938476562 399.265625 224.203125 275 224.203125 c 4
 150.734375 224.203125 50 324.938476562 50 449.203125 c 4
425.0078125 449.203125 m 4
 425.0078125 532.05078125 357.846679688 599.2109375 275 599.2109375 c 4
 192.153320312 599.2109375 124.9921875 532.05078125 124.9921875 449.203125 c 4
 124.9921875 366.357421875 192.153320312 299.196289062 275 299.196289062 c 4
 357.846679688 299.196289062 425.0078125 366.357421875 425.0078125 449.203125 c 4
105.1484375 91.3837890625 m 4
 105.1484375 112.09375 121.938476562 128.883789062 142.6484375 128.883789062 c 4
 163.359375 128.883789062 180.1484375 112.09375 180.1484375 91.3837890625 c 4
 180.1484375 70.6708984375 163.359375 53.8837890625 142.6484375 53.8837890625 c 4
 121.938476562 53.8837890625 105.1484375 70.6708984375 105.1484375 91.3837890625 c 4
500 224.203125 m 5
 500 179.704101562 486.8046875 136.201171875 462.080078125 99.201171875 c 4
 437.358398438 62.19921875 402.216796875 33.361328125 361.103515625 16.330078125 c 4
 319.990234375 -0.69921875 274.750976562 -5.154296875 231.103515625 3.525390625 c 4
 187.458984375 12.208984375 147.368164062 33.6396484375 115.900390625 65.1044921875 c 5
 168.927734375 118.134765625 l 5
 189.907226562 97.15234375 216.635742188 82.865234375 245.734375 77.080078125 c 4
 274.833984375 71.291015625 304.995117188 74.26171875 332.404296875 85.615234375 c 4
 359.814453125 96.9697265625 383.2421875 116.1953125 399.7265625 140.86328125 c 4
 416.2109375 165.534179688 425.0078125 194.53515625 425.0078125 224.203125 c 5
 500 224.203125 l 5
500 224.203125 m 5
 425 224.203125 l 5
 425 449.203125 l 5
 500 449.203125 l 5
 500 224.203125 l 5
EndSplineSet
Validated: 37
EndChar

StartChar: exclam
Encoding: 33 33 69
Width: 200
Flags: W
HStem: -2 100<59.2247 140.775> 654.487 20G<90.1445 110.855>
VStem: 50 100<7.22473 88.7753> 63 75<228.188 670.79>
LayerCount: 2
Fore
SplineSet
50 48 m 4xe0
 50 75.6142578125 72.3857421875 98 100 98 c 4
 127.614257812 98 150 75.6142578125 150 48 c 4
 150 20.3857421875 127.614257812 -2 100 -2 c 4
 72.3857421875 -2 50 20.3857421875 50 48 c 4xe0
63 636.990234375 m 2xd0
 63 657.700195312 79.7890625 674.487304688 100.5 674.487304688 c 0
 121.2109375 674.487304688 138 657.700195312 138 636.990234375 c 2
 138 261.990234375 l 2
 138 241.27734375 121.2109375 224.490234375 100.5 224.490234375 c 0
 79.7890625 224.490234375 63 241.27734375 63 261.990234375 c 2
 63 636.990234375 l 2xd0
EndSplineSet
Validated: 1
EndChar

StartChar: numbersign
Encoding: 35 35 70
Width: 774
Flags: W
HStem: 112.017 74.9902<309.426 454.6> 177.014 74.998<53.1979 215.186 537 720.802> 422.01 75<53.1979 237 558.789 720.802> 487.017 74.9902<319.4 464.574>
VStem: 162 75<259.44 414.583> 537.008 74.9922<259.44 414.583>
LayerCount: 2
Fore
SplineSet
237 497.009765625 m 5x2c
 237 422.009765625 l 5
 87 422.009765625 l 6
 66.2890625 422.009765625 49.5 438.798828125 49.5 459.509765625 c 4
 49.5 480.219726562 66.2890625 497.009765625 87 497.009765625 c 6
 237 497.009765625 l 5x2c
237 252.01171875 m 5x4c
 237 177.013671875 l 5
 87 177.013671875 l 6
 66.2890625 177.013671875 49.5 193.803710938 49.5 214.513671875 c 4
 49.5 235.224609375 66.2890625 252.01171875 87 252.01171875 c 6
 237 252.01171875 l 5x4c
537 177.013671875 m 5
 537 252.01171875 l 5
 687 252.01171875 l 6
 707.7109375 252.01171875 724.5 235.224609375 724.5 214.513671875 c 4
 724.5 193.803710938 707.7109375 177.013671875 687 177.013671875 c 6
 537 177.013671875 l 5
537 422.009765625 m 5x2c
 537 497.009765625 l 5
 687 497.006835938 l 6
 707.7109375 497.006835938 724.5 480.219726562 724.5 459.509765625 c 4
 724.5 438.798828125 707.7109375 422.009765625 687 422.009765625 c 6
 537 422.009765625 l 5x2c
612 337.01171875 m 4
 612 212.749023438 511.265625 112.016601562 387 112.016601562 c 4
 262.734375 112.016601562 162 212.749023438 162 337.01171875 c 4
 162 461.271484375 262.734375 562.006835938 387 562.006835938 c 4x9c
 511.265625 562.006835938 612 461.271484375 612 337.01171875 c 4
236.9921875 337.01171875 m 4
 236.9921875 254.16796875 304.153320312 187.006835938 387 187.006835938 c 4
 469.846679688 187.006835938 537.0078125 254.16796875 537.0078125 337.01171875 c 4
 537.0078125 419.85546875 469.846679688 487.016601562 387 487.016601562 c 4
 304.153320312 487.016601562 236.9921875 419.85546875 236.9921875 337.01171875 c 4
251.47265625 640.0703125 m 6
 253.176757812 660.7109375 271.291992188 676.0625 291.931640625 674.357421875 c 4
 312.571289062 672.654296875 327.922851562 654.541015625 326.216796875 633.8984375 c 6
 314.622070312 493.494140625 l 5
 239.875976562 499.666015625 l 5
 251.47265625 640.0703125 l 6
497.33203125 640.083007812 m 6
 499.0390625 660.72265625 517.1484375 676.072265625 537.791015625 674.3671875 c 4
 558.43359375 672.6640625 573.782226562 654.55078125 572.078125 633.911132812 c 6
 558.7890625 473.334960938 l 5
 484.045898438 479.506835938 l 5
 497.33203125 640.083007812 l 6
522.615234375 33.962890625 m 6
 520.911132812 13.322265625 502.798828125 -2.03125 482.154296875 -0.32421875 c 4
 461.513671875 1.37890625 446.165039062 19.4921875 447.869140625 40.1318359375 c 6
 459.361328125 180.529296875 l 5
 534.104492188 174.357421875 l 5
 522.615234375 33.962890625 l 6
276.672851562 33.9140625 m 6
 274.96875 13.2734375 256.85546875 -2.078125 236.213867188 -0.373046875 c 4
 215.57421875 1.3330078125 200.22265625 19.443359375 201.926757812 40.0859375 c 6
 215.185546875 200.642578125 l 5
 289.931640625 194.470703125 l 5
 276.672851562 33.9140625 l 6
EndSplineSet
Validated: 37
EndChar

StartChar: dollar
Encoding: 36 36 71
Width: 474
Flags: W
HStem: 149.5 37.5<66.7891 108.211> 299.5 75<171.671 303.329> 449.5 21G<377.145 397.855> 487 37.5<366.789 408.211>
VStem: 50 75<121.171 220.802 421.71 553.146> 212.5 50<-37.7992 711.799> 350 75<453.198 552.829>
CounterMasks: 1 0e
LayerCount: 2
Fore
SplineSet
50 187 m 5
 125 187 l 5
 125 164.749023438 131.599609375 143.000976562 143.959960938 124.498046875 c 4
 156.3203125 105.99609375 173.891601562 91.578125 194.448242188 83.0625 c 4
 215.004882812 74.546875 237.625 72.3203125 259.448242188 76.6630859375 c 4
 281.26953125 81.001953125 301.31640625 91.716796875 317.05078125 107.44921875 c 4
 332.783203125 123.18359375 343.498046875 143.23046875 347.836914062 165.051757812 c 4
 352.1796875 186.875 349.953125 209.495117188 341.4375 230.051757812 c 4
 332.921875 250.608398438 318.50390625 268.176757812 300.001953125 280.540039062 c 4
 281.501953125 292.903320312 259.750976562 299.5 237.5 299.5 c 5
 237.5 374.5 l 5
 274.584960938 374.5 310.834960938 363.501953125 341.669921875 342.900390625 c 4
 372.501953125 322.297851562 396.53515625 293.015625 410.727539062 258.752929688 c 4
 424.919921875 224.4921875 428.6328125 186.79296875 421.396484375 150.419921875 c 4
 414.162109375 114.05078125 396.306640625 80.640625 370.083007812 54.4169921875 c 4
 343.859375 28.193359375 310.44921875 10.337890625 274.080078125 3.103515625 c 4
 237.70703125 -4.1328125 200.0078125 -0.419921875 165.747070312 13.7724609375 c 4
 131.486328125 27.96484375 102.202148438 51.998046875 81.599609375 82.830078125 c 4
 60.99609375 113.665039062 50 149.915039062 50 187 c 5
425 487 m 5
 350 487 l 5
 350 509.250976562 343.403320312 531.001953125 331.040039062 549.501953125 c 4
 318.6796875 568.000976562 301.108398438 582.421875 280.551757812 590.935546875 c 4
 259.995117188 599.451171875 237.375 601.6796875 215.551757812 597.33984375 c 4
 193.73046875 592.998046875 173.68359375 582.283203125 157.951171875 566.548828125 c 4
 142.216796875 550.81640625 131.501953125 530.76953125 127.16015625 508.948242188 c 4
 122.8203125 487.125 125.048828125 464.504882812 133.564453125 443.948242188 c 4
 142.078125 423.391601562 156.499023438 405.8203125 174.998046875 393.459960938 c 4
 193.498046875 381.096679688 215.249023438 374.5 237.5 374.5 c 5
 237.5 299.5 l 5
 200.415039062 299.5 164.165039062 310.498046875 133.330078125 331.099609375 c 4
 102.498046875 351.702148438 78.46484375 380.984375 64.2724609375 415.247070312 c 4
 50.080078125 449.5078125 46.3671875 487.20703125 53.603515625 523.580078125 c 4
 60.837890625 559.951171875 78.6962890625 593.359375 104.916992188 619.583007812 c 4
 131.140625 645.803710938 164.548828125 663.662109375 200.919921875 670.896484375 c 4
 237.29296875 678.1328125 274.9921875 674.419921875 309.252929688 660.227539062 c 4
 343.515625 646.03515625 372.797851562 622.001953125 393.400390625 591.169921875 c 4
 414.001953125 560.334960938 425 524.084960938 425 487 c 5
425 487 m 4
 425 466.2890625 408.2109375 449.5 387.5 449.5 c 4
 366.7890625 449.5 350 466.2890625 350 487 c 4
 350 507.7109375 366.7890625 524.5 387.5 524.5 c 4
 408.2109375 524.5 425 507.7109375 425 487 c 4
125 187 m 4
 125 166.2890625 108.2109375 149.5 87.5 149.5 c 4
 66.7890625 149.5 50 166.2890625 50 187 c 4
 50 207.7109375 66.7890625 224.5 87.5 224.5 c 4
 108.2109375 224.5 125 207.7109375 125 187 c 4
212.5 687 m 6
 212.5 700.806640625 223.693359375 712 237.5 712 c 4
 251.306640625 712 262.5 700.806640625 262.5 687 c 6
 262.5 -13 l 6
 262.5 -26.80859375 251.306640625 -38 237.5 -38 c 4
 223.693359375 -38 212.5 -26.80859375 212.5 -13 c 6
 212.5 687 l 6
EndSplineSet
Validated: 37
EndChar

StartChar: percent
Encoding: 37 37 72
Width: 774
Flags: W
HStem: -0.5 50<513.266 636.734> 249.5 50<513.266 636.734> 374.5 50<138.265 261.735> 624.5 50<138.265 261.735>
VStem: 50 50<462.765 586.235> 300 50<462.765 586.235> 425 50<87.766 211.234> 675 50<87.766 211.234>
LayerCount: 2
Fore
SplineSet
350 524.5 m 4
 350 441.658203125 282.841796875 374.5 200 374.5 c 4
 117.158203125 374.5 50 441.658203125 50 524.5 c 4
 50 607.341796875 117.158203125 674.5 200 674.5 c 4
 282.841796875 674.5 350 607.341796875 350 524.5 c 4
100 524.5 m 4
 100 469.270507812 144.770507812 424.5 200 424.5 c 4
 255.229492188 424.5 300 469.270507812 300 524.5 c 4
 300 579.729492188 255.229492188 624.5 200 624.5 c 4
 144.770507812 624.5 100 579.729492188 100 524.5 c 4
725 149.5 m 4
 725 66.658203125 657.841796875 -0.5 575 -0.5 c 4
 492.158203125 -0.5 425 66.658203125 425 149.5 c 4
 425 232.341796875 492.158203125 299.5 575 299.5 c 4
 657.841796875 299.5 725 232.341796875 725 149.5 c 4
475 149.5 m 4
 475 94.2734375 519.7734375 49.5 575 49.5 c 4
 630.2265625 49.5 675 94.2734375 675 149.5 c 4
 675 204.7265625 630.2265625 249.5 575 249.5 c 4
 519.7734375 249.5 475 204.7265625 475 149.5 c 4
590.79296875 575.650390625 m 6
 600.5546875 585.41015625 616.384765625 585.41015625 626.147460938 575.647460938 c 4
 635.91015625 565.88671875 635.91015625 550.056640625 626.147460938 540.29296875 c 6
 184.20703125 98.3525390625 l 6
 174.443359375 88.5869140625 158.61328125 88.5869140625 148.849609375 98.3525390625 c 4
 139.086914062 108.115234375 139.086914062 123.9453125 148.849609375 133.70703125 c 6
 590.79296875 575.650390625 l 6
EndSplineSet
Validated: 33
EndChar

StartChar: ampersand
Encoding: 38 38 73
Width: 550
Flags: W
HStem: -0.5 74.9922<197.427 352.573> 374.5 75.002<171.444 378.556> 599.5 75<222.694 327.301>
VStem: 50 74.9932<146.927 302.074> 124.997 75<472.197 576.804> 349.997 75<472.197 576.804> 425.007 74.9932<146.927 302.074>
LayerCount: 2
Fore
SplineSet
500 224.5 m 4
 500 100.237304688 399.264648438 -0.5 275 -0.5 c 4
 150.735351562 -0.5 50 100.237304688 50 224.5 c 4
 50 348.765625 150.735351562 449.501953125 275 449.501953125 c 4
 399.264648438 449.501953125 500 348.765625 500 224.5 c 4
124.993164062 224.5 m 4
 124.993164062 141.65625 192.153320312 74.4921875 275 74.4921875 c 4
 357.846679688 74.4921875 425.006835938 141.65625 425.006835938 224.5 c 4
 425.006835938 307.346679688 357.846679688 374.509765625 275 374.509765625 c 4
 192.153320312 374.509765625 124.993164062 307.346679688 124.993164062 224.5 c 4
424.997070312 524.5 m 4
 424.997070312 441.658203125 357.838867188 374.5 274.997070312 374.5 c 4
 192.155273438 374.5 124.997070312 441.658203125 124.997070312 524.5 c 4
 124.997070312 607.341796875 192.155273438 674.5 274.997070312 674.5 c 4
 357.838867188 674.5 424.997070312 607.341796875 424.997070312 524.5 c 4
199.997070312 524.5 m 4
 199.997070312 483.079101562 233.579101562 449.501953125 275 449.501953125 c 4
 316.422851562 449.501953125 349.997070312 483.079101562 349.997070312 524.5 c 4
 349.997070312 565.920898438 316.420898438 599.5 274.997070312 599.5 c 4
 233.577148438 599.5 199.997070312 565.920898438 199.997070312 524.5 c 4
389.684570312 80.52734375 m 5
 452.685546875 121.220703125 l 5
 493.940429688 57.3466796875 l 6
 505.17578125 39.94921875 500.180664062 16.736328125 482.783203125 5.50390625 c 4
 465.385742188 -5.734375 442.172851562 -0.7392578125 430.9375 16.658203125 c 6
 389.684570312 80.52734375 l 5
EndSplineSet
Validated: 37
EndChar

StartChar: parenleft
Encoding: 40 40 74
Width: 480
Flags: W
HStem: 655.004 20G<335.69 403.842>
VStem: 50 75.0156<115.539 362.457>
LayerCount: 2
Fore
SplineSet
430.984375 637.50390625 m 4
 430.984375 616.79296875 414.197265625 600.00390625 393.486328125 600.00390625 c 4
 372.775390625 600.00390625 355.984375 616.79296875 355.984375 637.50390625 c 4
 355.984375 658.213867188 372.775390625 675.00390625 393.486328125 675.00390625 c 4
 414.197265625 675.00390625 430.984375 658.213867188 430.984375 637.50390625 c 4
430.984375 -159.498046875 m 4
 430.984375 -180.208984375 414.197265625 -197.000976562 393.486328125 -197.000976562 c 4
 372.775390625 -197.000976562 355.984375 -180.208984375 355.984375 -159.498046875 c 4
 355.984375 -138.788085938 372.775390625 -122.000976562 393.486328125 -122.000976562 c 4
 414.197265625 -122.000976562 430.984375 -138.788085938 430.984375 -159.498046875 c 4
383.533203125 -195.669921875 m 5
 287.84765625 -170.030273438 203.296875 -113.534179688 142.9921875 -34.9453125 c 4
 82.685546875 43.646484375 50 139.9375 50 238.998046875 c 4
 50 338.057617188 82.685546875 434.349609375 142.993164062 512.942382812 c 4
 203.296875 591.529296875 287.84765625 648.026367188 383.533203125 673.663085938 c 5
 402.947265625 601.205078125 l 5
 323.212890625 579.83984375 252.755859375 532.762695312 202.504882812 467.274414062 c 4
 152.25390625 401.786132812 125.015625 321.543945312 125.015625 238.998046875 c 4
 125.015625 156.451171875 152.25390625 76.2099609375 202.504882812 10.7216796875 c 4
 252.755859375 -54.7666015625 323.212890625 -101.844726562 402.947265625 -123.208984375 c 5
 383.533203125 -195.669921875 l 5
EndSplineSet
Validated: 5
EndChar

StartChar: parenright
Encoding: 41 41 75
Width: 480
Flags: W
HStem: 655.004 20G<77.1445 145.297>
VStem: 355.969 75.0156<115.539 362.457>
LayerCount: 2
Fore
SplineSet
50 637.50390625 m 4
 50 658.213867188 66.7890625 675.00390625 87.5 675.00390625 c 4
 108.2109375 675.00390625 125 658.213867188 125 637.50390625 c 4
 125 616.79296875 108.2109375 600.00390625 87.5 600.00390625 c 4
 66.7890625 600.00390625 50 616.79296875 50 637.50390625 c 4
50 -159.500976562 m 4
 50 -138.788085938 66.7890625 -122.000976562 87.5 -122.000976562 c 4
 108.2109375 -122.000976562 125 -138.788085938 125 -159.500976562 c 4
 125 -180.208984375 108.2109375 -197.000976562 87.5 -197.000976562 c 4
 66.7890625 -197.000976562 50 -180.208984375 50 -159.500976562 c 4
97.453125 -195.669921875 m 5
 78.0390625 -123.208984375 l 5
 157.7734375 -101.844726562 228.23046875 -54.7666015625 278.482421875 10.7216796875 c 4
 328.732421875 76.2099609375 355.96875 156.451171875 355.96875 238.998046875 c 4
 355.96875 321.543945312 328.732421875 401.786132812 278.482421875 467.274414062 c 4
 228.23046875 532.762695312 157.7734375 579.83984375 78.0390625 601.205078125 c 5
 97.453125 673.663085938 l 5
 193.140625 648.026367188 277.69140625 591.529296875 337.99609375 512.940429688 c 4
 398.30078125 434.349609375 430.984375 338.057617188 430.984375 238.998046875 c 4
 430.984375 139.9375 398.30078125 43.646484375 337.99609375 -34.9453125 c 4
 277.69140625 -113.534179688 193.140625 -170.030273438 97.453125 -195.669921875 c 5
EndSplineSet
Validated: 5
EndChar

